<mxfile host="Electron" agent="Mozilla/5.0 (Windows NT 10.0; Win64; x64) AppleWebKit/537.36 (KHTML, like Gecko) draw.io/25.0.1 Chrome/128.0.6613.186 Electron/32.2.6 Safari/537.36" version="25.0.1">
  <diagram name="Page-1" id="3yqpxKQvHaOyZTGhgoW6">
    <mxGraphModel dx="71" dy="-2273" grid="1" gridSize="10" guides="1" tooltips="1" connect="1" arrows="1" fold="1" page="1" pageScale="1" pageWidth="850" pageHeight="1100" math="0" shadow="0">
      <root>
        <mxCell id="0" />
        <mxCell id="1" parent="0" />
        <mxCell id="iMzeJBbJIZaKQnCHU_Ai-182" value="&lt;div style=&quot;line-height: 19px; white-space: pre;&quot;&gt;&lt;br&gt;&lt;/div&gt;" style="rounded=1;whiteSpace=wrap;html=1;arcSize=46;container=0;fontSize=17;strokeWidth=3;fillColor=none;" parent="1" vertex="1">
          <mxGeometry x="4623.41" y="4501" width="148.59" height="35.18" as="geometry" />
        </mxCell>
        <mxCell id="iMzeJBbJIZaKQnCHU_Ai-62" value="" style="shape=step;perimeter=stepPerimeter;whiteSpace=wrap;html=1;fixedSize=1;rotation=60;size=19.050000000000182;fillColor=#99FF33;" parent="1" vertex="1">
          <mxGeometry x="3922.56" y="5259.54" width="117.88" height="97.16" as="geometry" />
        </mxCell>
        <mxCell id="iMzeJBbJIZaKQnCHU_Ai-41" value="" style="shape=trapezoid;perimeter=trapezoidPerimeter;whiteSpace=wrap;html=1;fixedSize=1;rotation=-120;strokeColor=none;fillColor=#33FFFF;" parent="1" vertex="1">
          <mxGeometry x="3492.11" y="5337.58" width="194.96" height="97.5" as="geometry" />
        </mxCell>
        <mxCell id="A8dvImM9lTqvxSa1htUZ-28" value="&lt;div style=&quot;line-height: 19px; white-space: pre;&quot;&gt;&lt;br&gt;&lt;/div&gt;" style="rounded=1;whiteSpace=wrap;html=1;fillColor=#001933;strokeColor=none;fontColor=#FFFFFF;arcSize=3;container=0;fontSize=17;" parent="1" vertex="1">
          <mxGeometry x="3474" y="4461" width="702" height="341" as="geometry" />
        </mxCell>
        <mxCell id="c_0ql-a7YFW9CGbc3SsH-20" value="&lt;font face=&quot;Comic Sans MS&quot;&gt;&lt;span&gt;&lt;b&gt;Activation Function&lt;/b&gt;&lt;/span&gt;&lt;/font&gt;" style="rounded=1;whiteSpace=wrap;html=1;fillColor=none;strokeColor=none;fontColor=#FFFFFF;arcSize=18;container=0;fontSize=18;" parent="1" vertex="1">
          <mxGeometry x="3757.84" y="4740.7" width="136.31" height="47.52" as="geometry" />
        </mxCell>
        <mxCell id="A8dvImM9lTqvxSa1htUZ-4" value="" style="ellipse;whiteSpace=wrap;html=1;strokeWidth=3.5;fillColor=#003366;strokeColor=#FFFFFF;" parent="1" vertex="1">
          <mxGeometry x="3686" y="4576.7" width="280" height="140" as="geometry" />
        </mxCell>
        <mxCell id="A8dvImM9lTqvxSa1htUZ-6" value="" style="endArrow=none;html=1;rounded=0;entryX=0.33;entryY=0.047;entryDx=0;entryDy=0;entryPerimeter=0;strokeWidth=3.5;strokeColor=#FFFFFF;" parent="1" edge="1">
          <mxGeometry width="50" height="50" relative="1" as="geometry">
            <mxPoint x="3776" y="4712" as="sourcePoint" />
            <mxPoint x="3776.4" y="4582.28" as="targetPoint" />
          </mxGeometry>
        </mxCell>
        <mxCell id="A8dvImM9lTqvxSa1htUZ-7" value="" style="endArrow=none;html=1;rounded=0;strokeWidth=3.5;strokeColor=#FFFFFF;" parent="1" edge="1">
          <mxGeometry width="50" height="50" relative="1" as="geometry">
            <mxPoint x="3882" y="4711" as="sourcePoint" />
            <mxPoint x="3883" y="4584" as="targetPoint" />
          </mxGeometry>
        </mxCell>
        <mxCell id="A8dvImM9lTqvxSa1htUZ-9" value="&lt;font face=&quot;Comic Sans MS&quot;&gt;&lt;span&gt;&lt;b&gt;Output&lt;/b&gt;&lt;/span&gt;&lt;/font&gt;" style="rounded=1;whiteSpace=wrap;html=1;fillColor=none;strokeColor=none;fontColor=#FFFFFF;arcSize=18;container=0;fontSize=18;" parent="1" vertex="1">
          <mxGeometry x="3876" y="4740.7" width="104.12" height="47.52" as="geometry" />
        </mxCell>
        <mxCell id="A8dvImM9lTqvxSa1htUZ-10" value="&lt;font face=&quot;Comic Sans MS&quot;&gt;&lt;span&gt;&lt;b&gt;Input&lt;/b&gt;&lt;/span&gt;&lt;/font&gt;&lt;div&gt;&lt;font face=&quot;Comic Sans MS&quot;&gt;&lt;span&gt;&lt;b&gt;Function&lt;/b&gt;&lt;/span&gt;&lt;/font&gt;&lt;/div&gt;" style="rounded=1;whiteSpace=wrap;html=1;fillColor=none;strokeColor=none;fontColor=#FFFFFF;arcSize=18;container=0;fontSize=18;" parent="1" vertex="1">
          <mxGeometry x="3658.69" y="4740.7" width="136.31" height="47.52" as="geometry" />
        </mxCell>
        <mxCell id="A8dvImM9lTqvxSa1htUZ-11" value="&lt;font face=&quot;Comic Sans MS&quot;&gt;&lt;span&gt;&lt;b&gt;Output&lt;/b&gt;&lt;/span&gt;&lt;/font&gt;&lt;div&gt;&lt;font face=&quot;Comic Sans MS&quot;&gt;&lt;span&gt;&lt;b&gt;&amp;nbsp;Links&lt;/b&gt;&lt;/span&gt;&lt;/font&gt;&lt;/div&gt;" style="rounded=1;whiteSpace=wrap;html=1;fillColor=none;strokeColor=none;fontColor=#FFFFFF;arcSize=18;container=0;fontSize=18;" parent="1" vertex="1">
          <mxGeometry x="3996" y="4738.98" width="104.12" height="47.52" as="geometry" />
        </mxCell>
        <mxCell id="A8dvImM9lTqvxSa1htUZ-12" value="&lt;font face=&quot;Comic Sans MS&quot;&gt;&lt;span&gt;&lt;b&gt;Input&lt;/b&gt;&lt;/span&gt;&lt;/font&gt;&lt;div&gt;&lt;b style=&quot;font-family: &amp;quot;Comic Sans MS&amp;quot;; background-color: initial;&quot;&gt;Links&lt;/b&gt;&lt;/div&gt;" style="rounded=1;whiteSpace=wrap;html=1;fillColor=none;strokeColor=none;fontColor=#FFFFFF;arcSize=18;container=0;fontSize=18;" parent="1" vertex="1">
          <mxGeometry x="3550.88" y="4740.7" width="104.12" height="47.52" as="geometry" />
        </mxCell>
        <mxCell id="A8dvImM9lTqvxSa1htUZ-13" value="" style="endArrow=classic;html=1;rounded=0;strokeWidth=4;exitX=1;exitY=0.5;exitDx=0;exitDy=0;strokeColor=#FFFFFF;" parent="1" source="A8dvImM9lTqvxSa1htUZ-4" edge="1">
          <mxGeometry width="50" height="50" relative="1" as="geometry">
            <mxPoint x="4006" y="4647.7" as="sourcePoint" />
            <mxPoint x="4151" y="4648" as="targetPoint" />
          </mxGeometry>
        </mxCell>
        <mxCell id="A8dvImM9lTqvxSa1htUZ-14" value="" style="endArrow=classic;html=1;rounded=0;strokeWidth=4;strokeColor=#FFFFFF;" parent="1" edge="1">
          <mxGeometry width="50" height="50" relative="1" as="geometry">
            <mxPoint x="4056" y="4648" as="sourcePoint" />
            <mxPoint x="4149" y="4608" as="targetPoint" />
          </mxGeometry>
        </mxCell>
        <mxCell id="A8dvImM9lTqvxSa1htUZ-15" value="" style="endArrow=classic;html=1;rounded=0;strokeWidth=4;strokeColor=#FFFFFF;" parent="1" edge="1">
          <mxGeometry width="50" height="50" relative="1" as="geometry">
            <mxPoint x="4055" y="4648" as="sourcePoint" />
            <mxPoint x="4146" y="4687" as="targetPoint" />
          </mxGeometry>
        </mxCell>
        <mxCell id="A8dvImM9lTqvxSa1htUZ-16" value="" style="endArrow=classic;html=1;rounded=0;strokeWidth=4;strokeColor=#FFFFFF;" parent="1" edge="1">
          <mxGeometry width="50" height="50" relative="1" as="geometry">
            <mxPoint x="3566" y="4736" as="sourcePoint" />
            <mxPoint x="3696" y="4688" as="targetPoint" />
          </mxGeometry>
        </mxCell>
        <mxCell id="A8dvImM9lTqvxSa1htUZ-17" value="" style="endArrow=classic;html=1;rounded=0;strokeWidth=4;strokeColor=#FFFFFF;" parent="1" edge="1">
          <mxGeometry width="50" height="50" relative="1" as="geometry">
            <mxPoint x="3558" y="4677" as="sourcePoint" />
            <mxPoint x="3678" y="4658" as="targetPoint" />
          </mxGeometry>
        </mxCell>
        <mxCell id="A8dvImM9lTqvxSa1htUZ-18" value="" style="endArrow=classic;html=1;rounded=0;strokeWidth=4;strokeColor=#FFFFFF;" parent="1" edge="1">
          <mxGeometry width="50" height="50" relative="1" as="geometry">
            <mxPoint x="3556" y="4613" as="sourcePoint" />
            <mxPoint x="3680" y="4630" as="targetPoint" />
          </mxGeometry>
        </mxCell>
        <mxCell id="A8dvImM9lTqvxSa1htUZ-19" value="" style="endArrow=classic;html=1;rounded=0;strokeWidth=4;strokeColor=#FFFFFF;" parent="1" edge="1">
          <mxGeometry width="50" height="50" relative="1" as="geometry">
            <mxPoint x="3561" y="4564" as="sourcePoint" />
            <mxPoint x="3699" y="4599" as="targetPoint" />
          </mxGeometry>
        </mxCell>
        <mxCell id="A8dvImM9lTqvxSa1htUZ-22" value="&lt;span style=&quot;color: rgb(191, 191, 191); text-align: start;&quot;&gt;&lt;font style=&quot;font-size: 42px;&quot; face=&quot;Helvetica&quot;&gt;&lt;b&gt;âˆ‘&amp;nbsp;&lt;/b&gt;&lt;/font&gt;&lt;/span&gt;&lt;font face=&quot;Comic Sans MS&quot;&gt;&lt;span&gt;&lt;b&gt;&lt;br&gt;&lt;/b&gt;&lt;/span&gt;&lt;/font&gt;" style="rounded=1;whiteSpace=wrap;html=1;fillColor=none;strokeColor=none;fontColor=#000000;arcSize=18;container=0;fontSize=35;" parent="1" vertex="1">
          <mxGeometry x="3713.5" y="4626.94" width="49.81" height="47.52" as="geometry" />
        </mxCell>
        <mxCell id="A8dvImM9lTqvxSa1htUZ-23" value="&lt;font face=&quot;Comic Sans MS&quot; color=&quot;#ffffff&quot;&gt;&lt;b&gt;in&lt;/b&gt;&lt;/font&gt;" style="rounded=1;whiteSpace=wrap;html=1;fillColor=none;strokeColor=none;fontColor=#000000;arcSize=18;container=0;fontSize=28;" parent="1" vertex="1">
          <mxGeometry x="3727.35" y="4590.4400000000005" width="31" height="47.52" as="geometry" />
        </mxCell>
        <mxCell id="A8dvImM9lTqvxSa1htUZ-24" value="&lt;font face=&quot;Comic Sans MS&quot; color=&quot;#ffffff&quot;&gt;&lt;b&gt;j&lt;/b&gt;&lt;/font&gt;" style="rounded=1;whiteSpace=wrap;html=1;fillColor=none;strokeColor=none;fontColor=#000000;arcSize=18;container=0;fontSize=18;" parent="1" vertex="1">
          <mxGeometry x="3744" y="4608.4" width="31" height="29.56" as="geometry" />
        </mxCell>
        <mxCell id="A8dvImM9lTqvxSa1htUZ-25" value="&lt;font face=&quot;Comic Sans MS&quot; color=&quot;#ffffff&quot;&gt;&lt;b&gt;g&lt;/b&gt;&lt;/font&gt;" style="rounded=1;whiteSpace=wrap;html=1;fillColor=none;strokeColor=none;fontColor=#000000;arcSize=18;container=0;fontSize=28;" parent="1" vertex="1">
          <mxGeometry x="3816" y="4581.99" width="31" height="26.01" as="geometry" />
        </mxCell>
        <mxCell id="A8dvImM9lTqvxSa1htUZ-26" value="&lt;font face=&quot;Comic Sans MS&quot; color=&quot;#ffffff&quot;&gt;&lt;b&gt;a&lt;/b&gt;&lt;/font&gt;" style="rounded=1;whiteSpace=wrap;html=1;fillColor=none;strokeColor=none;fontColor=#000000;arcSize=18;container=0;fontSize=28;" parent="1" vertex="1">
          <mxGeometry x="3895.64" y="4617.700000000001" width="31" height="47.52" as="geometry" />
        </mxCell>
        <mxCell id="A8dvImM9lTqvxSa1htUZ-27" value="&lt;font face=&quot;Comic Sans MS&quot; color=&quot;#ffffff&quot;&gt;&lt;b&gt;j&lt;/b&gt;&lt;/font&gt;" style="rounded=1;whiteSpace=wrap;html=1;fillColor=none;strokeColor=none;fontColor=#000000;arcSize=18;container=0;fontSize=18;" parent="1" vertex="1">
          <mxGeometry x="3912.29" y="4635.66" width="31" height="29.56" as="geometry" />
        </mxCell>
        <mxCell id="A8dvImM9lTqvxSa1htUZ-29" value="" style="endArrow=none;html=1;rounded=0;curved=1;strokeWidth=3.5;strokeColor=#FFFFFF;" parent="1" edge="1">
          <mxGeometry width="50" height="50" relative="1" as="geometry">
            <mxPoint x="3795" y="4697.4" as="sourcePoint" />
            <mxPoint x="3858" y="4624" as="targetPoint" />
            <Array as="points">
              <mxPoint x="3826" y="4701.7" />
              <mxPoint x="3836" y="4621.7" />
            </Array>
          </mxGeometry>
        </mxCell>
        <mxCell id="A8dvImM9lTqvxSa1htUZ-33" value="&lt;font face=&quot;Comic Sans MS&quot; color=&quot;#ffffff&quot;&gt;&lt;b&gt;a&lt;/b&gt;&lt;/font&gt;" style="rounded=1;whiteSpace=wrap;html=1;fillColor=none;strokeColor=none;fontColor=#000000;arcSize=18;container=0;fontSize=28;" parent="1" vertex="1">
          <mxGeometry x="3502.23" y="4652.18" width="31" height="47.52" as="geometry" />
        </mxCell>
        <mxCell id="A8dvImM9lTqvxSa1htUZ-34" value="&lt;font face=&quot;Comic Sans MS&quot; color=&quot;#ffffff&quot;&gt;&lt;b&gt;i&lt;/b&gt;&lt;/font&gt;" style="rounded=1;whiteSpace=wrap;html=1;fillColor=none;strokeColor=none;fontColor=#000000;arcSize=18;container=0;fontSize=18;" parent="1" vertex="1">
          <mxGeometry x="3518.88" y="4670.139999999999" width="31" height="29.56" as="geometry" />
        </mxCell>
        <mxCell id="A8dvImM9lTqvxSa1htUZ-36" value="&lt;font face=&quot;Comic Sans MS&quot; color=&quot;#ffffff&quot;&gt;&lt;b&gt;a&lt;/b&gt;&lt;/font&gt;" style="rounded=1;whiteSpace=wrap;html=1;fillColor=none;strokeColor=none;fontColor=#000000;arcSize=18;container=0;fontSize=28;" parent="1" vertex="1">
          <mxGeometry x="3484.58" y="4535.18" width="31" height="47.52" as="geometry" />
        </mxCell>
        <mxCell id="A8dvImM9lTqvxSa1htUZ-37" value="&lt;font style=&quot;font-size: 16px;&quot; face=&quot;Comic Sans MS&quot; color=&quot;#ffffff&quot;&gt;&lt;b style=&quot;&quot;&gt;0&lt;/b&gt;&lt;/font&gt;" style="rounded=1;whiteSpace=wrap;html=1;fillColor=none;strokeColor=none;fontColor=#000000;arcSize=18;container=0;fontSize=18;" parent="1" vertex="1">
          <mxGeometry x="3499.23" y="4557.139999999999" width="31" height="29.56" as="geometry" />
        </mxCell>
        <mxCell id="A8dvImM9lTqvxSa1htUZ-38" value="&lt;font face=&quot;Comic Sans MS&quot; color=&quot;#ffffff&quot;&gt;&lt;b&gt;=1&lt;/b&gt;&lt;/font&gt;" style="rounded=1;whiteSpace=wrap;html=1;fillColor=none;strokeColor=none;fontColor=#000000;arcSize=18;container=0;fontSize=28;" parent="1" vertex="1">
          <mxGeometry x="3515.88" y="4537.18" width="40" height="47.52" as="geometry" />
        </mxCell>
        <mxCell id="A8dvImM9lTqvxSa1htUZ-39" value="&lt;font face=&quot;Comic Sans MS&quot;&gt;&lt;b&gt;Bias Weights&lt;/b&gt;&lt;/font&gt;" style="rounded=1;whiteSpace=wrap;html=1;fillColor=none;strokeColor=none;fontColor=#FFFFFF;arcSize=18;container=0;fontSize=18;" parent="1" vertex="1">
          <mxGeometry x="3559.38" y="4499.18" width="154.12" height="47.52" as="geometry" />
        </mxCell>
        <mxCell id="A8dvImM9lTqvxSa1htUZ-40" value="&lt;font face=&quot;Comic Sans MS&quot; color=&quot;#ffffff&quot;&gt;&lt;b&gt;w&lt;/b&gt;&lt;/font&gt;" style="rounded=1;whiteSpace=wrap;html=1;fillColor=none;strokeColor=none;fontColor=#000000;arcSize=18;container=0;fontSize=28;" parent="1" vertex="1">
          <mxGeometry x="3627.77" y="4529.18" width="31" height="47.52" as="geometry" />
        </mxCell>
        <mxCell id="A8dvImM9lTqvxSa1htUZ-41" value="&lt;font face=&quot;Comic Sans MS&quot; color=&quot;#ffffff&quot;&gt;&lt;b&gt;&lt;font style=&quot;font-size: 16px;&quot;&gt;0&lt;/font&gt;j&lt;/b&gt;&lt;/font&gt;" style="rounded=1;whiteSpace=wrap;html=1;fillColor=none;strokeColor=none;fontColor=#000000;arcSize=18;container=0;fontSize=18;" parent="1" vertex="1">
          <mxGeometry x="3644.42" y="4547.139999999999" width="34.35" height="29.56" as="geometry" />
        </mxCell>
        <mxCell id="A8dvImM9lTqvxSa1htUZ-42" value="&lt;font face=&quot;Comic Sans MS&quot; color=&quot;#ffffff&quot;&gt;&lt;b&gt;w&lt;/b&gt;&lt;/font&gt;" style="rounded=1;whiteSpace=wrap;html=1;fillColor=none;strokeColor=none;fontColor=#000000;arcSize=18;container=0;fontSize=28;" parent="1" vertex="1">
          <mxGeometry x="3574.5" y="4617.700000000001" width="31" height="47.52" as="geometry" />
        </mxCell>
        <mxCell id="A8dvImM9lTqvxSa1htUZ-43" value="&lt;font face=&quot;Comic Sans MS&quot; color=&quot;#ffffff&quot;&gt;&lt;b&gt;ij&lt;/b&gt;&lt;/font&gt;" style="rounded=1;whiteSpace=wrap;html=1;fillColor=none;strokeColor=none;fontColor=#000000;arcSize=18;container=0;fontSize=18;" parent="1" vertex="1">
          <mxGeometry x="3591.15" y="4635.66" width="31" height="29.56" as="geometry" />
        </mxCell>
        <mxCell id="A8dvImM9lTqvxSa1htUZ-44" value="&lt;div style=&quot;line-height: 19px; white-space: pre;&quot;&gt;&lt;b style=&quot;font-family: &amp;quot;Comic Sans MS&amp;quot;; font-size: 18px; white-space: normal;&quot;&gt;Perceptron&lt;/b&gt;&lt;br&gt;&lt;/div&gt;" style="rounded=1;whiteSpace=wrap;html=1;arcSize=46;container=0;fontSize=17;strokeWidth=3;" parent="1" vertex="1">
          <mxGeometry x="3683.75" y="4472.68" width="284.5" height="26.5" as="geometry" />
        </mxCell>
        <mxCell id="A8dvImM9lTqvxSa1htUZ-78" value="&lt;div style=&quot;line-height: 19px; white-space: pre;&quot;&gt;&lt;br&gt;&lt;/div&gt;" style="rounded=1;whiteSpace=wrap;html=1;fillColor=none;strokeColor=none;fontColor=#FFFFFF;arcSize=3;container=0;fontSize=17;" parent="1" vertex="1">
          <mxGeometry x="4186" y="4462" width="45.23" height="341" as="geometry" />
        </mxCell>
        <mxCell id="A8dvImM9lTqvxSa1htUZ-79" value="&lt;div style=&quot;line-height: 19px; white-space: pre;&quot;&gt;&lt;br&gt;&lt;/div&gt;" style="rounded=1;whiteSpace=wrap;html=1;fillColor=none;strokeColor=none;fontColor=#FFFFFF;arcSize=3;container=0;fontSize=17;" parent="1" vertex="1">
          <mxGeometry x="3420" y="4461" width="45.23" height="341" as="geometry" />
        </mxCell>
        <mxCell id="A8dvImM9lTqvxSa1htUZ-80" value="&lt;font face=&quot;Comic Sans MS&quot; color=&quot;#ffffff&quot;&gt;&lt;b&gt;i&lt;/b&gt;&lt;/font&gt;" style="rounded=1;whiteSpace=wrap;html=1;fillColor=none;strokeColor=none;fontColor=#000000;arcSize=18;container=0;fontSize=18;" parent="1" vertex="1">
          <mxGeometry x="3518.88" y="4670.139999999999" width="31" height="29.56" as="geometry" />
        </mxCell>
        <mxCell id="A8dvImM9lTqvxSa1htUZ-81" value="&lt;font face=&quot;Comic Sans MS&quot; color=&quot;#ffffff&quot;&gt;&lt;b&gt;a&lt;/b&gt;&lt;/font&gt;" style="rounded=1;whiteSpace=wrap;html=1;fillColor=none;strokeColor=none;fontColor=#000000;arcSize=18;container=0;fontSize=28;" parent="1" vertex="1">
          <mxGeometry x="3756" y="4509.62" width="31" height="47.52" as="geometry" />
        </mxCell>
        <mxCell id="A8dvImM9lTqvxSa1htUZ-82" value="&lt;font face=&quot;Comic Sans MS&quot; color=&quot;#ffffff&quot;&gt;&lt;b&gt;j&lt;/b&gt;&lt;/font&gt;" style="rounded=1;whiteSpace=wrap;html=1;fillColor=none;strokeColor=none;fontColor=#000000;arcSize=18;container=0;fontSize=18;" parent="1" vertex="1">
          <mxGeometry x="3772.65" y="4527.579999999999" width="31" height="29.56" as="geometry" />
        </mxCell>
        <mxCell id="A8dvImM9lTqvxSa1htUZ-83" value="&lt;font face=&quot;Comic Sans MS&quot; color=&quot;#ffffff&quot;&gt;&lt;b&gt;=&lt;/b&gt;&lt;/font&gt;" style="rounded=1;whiteSpace=wrap;html=1;fillColor=none;strokeColor=none;fontColor=#000000;arcSize=18;container=0;fontSize=28;" parent="1" vertex="1">
          <mxGeometry x="3788" y="4509.62" width="40" height="47.52" as="geometry" />
        </mxCell>
        <mxCell id="A8dvImM9lTqvxSa1htUZ-84" value="&lt;font face=&quot;Comic Sans MS&quot; color=&quot;#ffffff&quot;&gt;&lt;b&gt;g(in&lt;/b&gt;&lt;/font&gt;" style="rounded=1;whiteSpace=wrap;html=1;fillColor=none;strokeColor=none;fontColor=#000000;arcSize=18;container=0;fontSize=28;" parent="1" vertex="1">
          <mxGeometry x="3828" y="4509.62" width="40" height="47.52" as="geometry" />
        </mxCell>
        <mxCell id="A8dvImM9lTqvxSa1htUZ-86" value="&lt;font face=&quot;Comic Sans MS&quot; color=&quot;#ffffff&quot;&gt;&lt;b&gt;)&lt;/b&gt;&lt;/font&gt;" style="rounded=1;whiteSpace=wrap;html=1;fillColor=none;strokeColor=none;fontColor=#000000;arcSize=18;container=0;fontSize=28;" parent="1" vertex="1">
          <mxGeometry x="3868" y="4509.62" width="40" height="47.52" as="geometry" />
        </mxCell>
        <mxCell id="A8dvImM9lTqvxSa1htUZ-85" value="&lt;font face=&quot;Comic Sans MS&quot; color=&quot;#ffffff&quot;&gt;&lt;b&gt;j&lt;/b&gt;&lt;/font&gt;" style="rounded=1;whiteSpace=wrap;html=1;fillColor=none;strokeColor=none;fontColor=#000000;arcSize=18;container=0;fontSize=18;" parent="1" vertex="1">
          <mxGeometry x="3862.29" y="4527.58" width="31" height="29.56" as="geometry" />
        </mxCell>
        <mxCell id="A8dvImM9lTqvxSa1htUZ-87" value="&lt;div style=&quot;text-align: justify;&quot;&gt;&lt;br&gt;&lt;/div&gt;" style="rounded=1;whiteSpace=wrap;html=1;fillColor=none;strokeColor=none;fontColor=#FFFFFF;arcSize=7;container=0;fontSize=16;spacing=15;" parent="1" vertex="1">
          <mxGeometry x="3413.42" y="4840" width="46.58" height="300" as="geometry" />
        </mxCell>
        <mxCell id="A8dvImM9lTqvxSa1htUZ-89" value="" style="endArrow=none;html=1;rounded=0;strokeWidth=5;strokeColor=#000000;endFill=0;" parent="1" edge="1">
          <mxGeometry width="50" height="50" relative="1" as="geometry">
            <mxPoint x="3522.2007733007736" y="5101.100135819237" as="sourcePoint" />
            <mxPoint x="3522" y="4884" as="targetPoint" />
          </mxGeometry>
        </mxCell>
        <mxCell id="A8dvImM9lTqvxSa1htUZ-90" value="" style="endArrow=none;html=1;rounded=0;strokeWidth=5;strokeColor=#000000;endFill=0;" parent="1" edge="1">
          <mxGeometry width="50" height="50" relative="1" as="geometry">
            <mxPoint x="3521.7965087505086" y="5099.179843190517" as="sourcePoint" />
            <mxPoint x="3801" y="5099" as="targetPoint" />
          </mxGeometry>
        </mxCell>
        <mxCell id="A8dvImM9lTqvxSa1htUZ-91" value="&lt;font face=&quot;Comic Sans MS&quot;&gt;&lt;span&gt;&lt;b&gt;0&lt;/b&gt;&lt;/span&gt;&lt;/font&gt;" style="rounded=1;whiteSpace=wrap;html=1;fillColor=none;strokeColor=none;fontColor=#000000;arcSize=18;container=0;fontSize=18;" parent="1" vertex="1">
          <mxGeometry x="3487.216341066341" y="5115.76908260279" width="37.332276353276384" height="28.99265341400174" as="geometry" />
        </mxCell>
        <mxCell id="A8dvImM9lTqvxSa1htUZ-92" value="&lt;font face=&quot;Comic Sans MS&quot;&gt;&lt;span&gt;&lt;b&gt;-4&lt;/b&gt;&lt;/span&gt;&lt;/font&gt;" style="rounded=1;whiteSpace=wrap;html=1;fillColor=none;strokeColor=none;fontColor=#000000;arcSize=18;container=0;fontSize=18;" parent="1" vertex="1">
          <mxGeometry x="3540.946201872202" y="5115.9573465859985" width="37.332276353276384" height="28.99265341400174" as="geometry" />
        </mxCell>
        <mxCell id="A8dvImM9lTqvxSa1htUZ-93" value="&lt;font face=&quot;Comic Sans MS&quot;&gt;&lt;span&gt;&lt;b&gt;-2&lt;/b&gt;&lt;/span&gt;&lt;/font&gt;" style="rounded=1;whiteSpace=wrap;html=1;fillColor=none;strokeColor=none;fontColor=#000000;arcSize=18;container=0;fontSize=18;" parent="1" vertex="1">
          <mxGeometry x="3593.6658447293444" y="5115.95908260279" width="37.332276353276384" height="28.99265341400174" as="geometry" />
        </mxCell>
        <mxCell id="A8dvImM9lTqvxSa1htUZ-94" value="&lt;font face=&quot;Comic Sans MS&quot;&gt;&lt;span&gt;&lt;b&gt;0&lt;/b&gt;&lt;/span&gt;&lt;/font&gt;" style="rounded=1;whiteSpace=wrap;html=1;fillColor=none;strokeColor=none;fontColor=#000000;arcSize=18;container=0;fontSize=18;" parent="1" vertex="1">
          <mxGeometry x="3644.7709116809124" y="5115.9573465859985" width="37.332276353276384" height="28.99265341400174" as="geometry" />
        </mxCell>
        <mxCell id="A8dvImM9lTqvxSa1htUZ-95" value="&lt;font face=&quot;Comic Sans MS&quot;&gt;&lt;span&gt;&lt;b&gt;2&lt;/b&gt;&lt;/span&gt;&lt;/font&gt;" style="rounded=1;whiteSpace=wrap;html=1;fillColor=none;strokeColor=none;fontColor=#000000;arcSize=18;container=0;fontSize=18;" parent="1" vertex="1">
          <mxGeometry x="3695.322656695156" y="5115.95908260279" width="37.332276353276384" height="28.99265341400174" as="geometry" />
        </mxCell>
        <mxCell id="A8dvImM9lTqvxSa1htUZ-96" value="&lt;font face=&quot;Comic Sans MS&quot;&gt;&lt;span&gt;&lt;b&gt;4&lt;/b&gt;&lt;/span&gt;&lt;/font&gt;" style="rounded=1;whiteSpace=wrap;html=1;fillColor=none;strokeColor=none;fontColor=#000000;arcSize=18;container=0;fontSize=18;" parent="1" vertex="1">
          <mxGeometry x="3752.9977236467225" y="5115.9573465859985" width="37.332276353276384" height="28.99265341400174" as="geometry" />
        </mxCell>
        <mxCell id="A8dvImM9lTqvxSa1htUZ-99" value="&lt;font face=&quot;Comic Sans MS&quot;&gt;&lt;span&gt;&lt;b&gt;0.5&lt;/b&gt;&lt;/span&gt;&lt;/font&gt;" style="rounded=1;whiteSpace=wrap;html=1;fillColor=none;strokeColor=none;fontColor=#000000;arcSize=18;container=0;fontSize=18;" parent="1" vertex="1">
          <mxGeometry x="3467.9999999999995" y="4991.996088405976" width="37.332276353276384" height="28.99265341400174" as="geometry" />
        </mxCell>
        <mxCell id="A8dvImM9lTqvxSa1htUZ-101" value="&lt;font style=&quot;font-size: 19px;&quot; face=&quot;Comic Sans MS&quot;&gt;&lt;span&gt;&lt;b&gt;1&lt;/b&gt;&lt;/span&gt;&lt;/font&gt;" style="rounded=1;whiteSpace=wrap;html=1;fillColor=none;strokeColor=none;fontColor=#000000;arcSize=18;container=0;fontSize=18;" parent="1" vertex="1">
          <mxGeometry x="3473.9999999999995" y="4899.002094085689" width="37.332276353276384" height="28.99265341400174" as="geometry" />
        </mxCell>
        <mxCell id="A8dvImM9lTqvxSa1htUZ-201" value="" style="endArrow=none;html=1;rounded=0;strokeWidth=5;strokeColor=#000000;endFill=0;" parent="1" edge="1">
          <mxGeometry width="50" height="50" relative="1" as="geometry">
            <mxPoint x="3523" y="4913" as="sourcePoint" />
            <mxPoint x="3509" y="4913" as="targetPoint" />
          </mxGeometry>
        </mxCell>
        <mxCell id="A8dvImM9lTqvxSa1htUZ-202" value="" style="endArrow=none;html=1;rounded=0;strokeWidth=5;strokeColor=#000000;endFill=0;" parent="1" edge="1">
          <mxGeometry width="50" height="50" relative="1" as="geometry">
            <mxPoint x="3521.73" y="5006.36" as="sourcePoint" />
            <mxPoint x="3507.73" y="5006.36" as="targetPoint" />
          </mxGeometry>
        </mxCell>
        <mxCell id="A8dvImM9lTqvxSa1htUZ-203" value="" style="endArrow=none;html=1;rounded=0;strokeWidth=5;strokeColor=#000000;endFill=0;" parent="1" edge="1">
          <mxGeometry width="50" height="50" relative="1" as="geometry">
            <mxPoint x="3566" y="5114" as="sourcePoint" />
            <mxPoint x="3566" y="5100" as="targetPoint" />
          </mxGeometry>
        </mxCell>
        <mxCell id="A8dvImM9lTqvxSa1htUZ-204" value="" style="endArrow=none;html=1;rounded=0;strokeWidth=5;strokeColor=#000000;endFill=0;" parent="1" edge="1">
          <mxGeometry width="50" height="50" relative="1" as="geometry">
            <mxPoint x="3616.26" y="5114" as="sourcePoint" />
            <mxPoint x="3616.26" y="5100" as="targetPoint" />
          </mxGeometry>
        </mxCell>
        <mxCell id="A8dvImM9lTqvxSa1htUZ-205" value="" style="endArrow=none;html=1;rounded=0;strokeWidth=5;strokeColor=#000000;endFill=0;" parent="1" edge="1">
          <mxGeometry width="50" height="50" relative="1" as="geometry">
            <mxPoint x="3663" y="5114.96" as="sourcePoint" />
            <mxPoint x="3663" y="5100.96" as="targetPoint" />
          </mxGeometry>
        </mxCell>
        <mxCell id="A8dvImM9lTqvxSa1htUZ-206" value="" style="endArrow=none;html=1;rounded=0;strokeWidth=5;strokeColor=#000000;endFill=0;" parent="1" edge="1">
          <mxGeometry width="50" height="50" relative="1" as="geometry">
            <mxPoint x="3714.26" y="5114.96" as="sourcePoint" />
            <mxPoint x="3714.26" y="5100.96" as="targetPoint" />
          </mxGeometry>
        </mxCell>
        <mxCell id="A8dvImM9lTqvxSa1htUZ-207" value="" style="endArrow=none;html=1;rounded=0;strokeWidth=5;strokeColor=#000000;endFill=0;" parent="1" edge="1">
          <mxGeometry width="50" height="50" relative="1" as="geometry">
            <mxPoint x="3772.4300000000003" y="5114.77" as="sourcePoint" />
            <mxPoint x="3772.4300000000003" y="5100.77" as="targetPoint" />
          </mxGeometry>
        </mxCell>
        <mxCell id="A8dvImM9lTqvxSa1htUZ-208" value="&lt;div style=&quot;line-height: 19px; white-space: pre;&quot;&gt;&lt;b style=&quot;font-family: &amp;quot;Comic Sans MS&amp;quot;; font-size: 18px; white-space: normal;&quot;&gt;Step Function&lt;/b&gt;&lt;br&gt;&lt;/div&gt;" style="rounded=1;whiteSpace=wrap;html=1;arcSize=46;container=0;fontSize=17;strokeWidth=3;" parent="1" vertex="1">
          <mxGeometry x="3578.28" y="4850" width="187.5" height="26.5" as="geometry" />
        </mxCell>
        <mxCell id="A8dvImM9lTqvxSa1htUZ-209" value="" style="endArrow=none;html=1;rounded=0;strokeWidth=5;strokeColor=#FF0000;endFill=0;" parent="1" edge="1">
          <mxGeometry width="50" height="50" relative="1" as="geometry">
            <mxPoint x="3662.5807733007737" y="5096.100135819237" as="sourcePoint" />
            <mxPoint x="3763" y="4913" as="targetPoint" />
            <Array as="points">
              <mxPoint x="3662" y="4913" />
            </Array>
          </mxGeometry>
        </mxCell>
        <mxCell id="A8dvImM9lTqvxSa1htUZ-214" value="" style="endArrow=none;html=1;rounded=0;strokeWidth=5;strokeColor=#000000;endFill=0;" parent="1" edge="1">
          <mxGeometry width="50" height="50" relative="1" as="geometry">
            <mxPoint x="3879.2007733007736" y="5100.910135819237" as="sourcePoint" />
            <mxPoint x="3879" y="4883.81" as="targetPoint" />
          </mxGeometry>
        </mxCell>
        <mxCell id="A8dvImM9lTqvxSa1htUZ-215" value="" style="endArrow=none;html=1;rounded=0;strokeWidth=5;strokeColor=#000000;endFill=0;" parent="1" edge="1">
          <mxGeometry width="50" height="50" relative="1" as="geometry">
            <mxPoint x="3878.7965087505086" y="5098.989843190518" as="sourcePoint" />
            <mxPoint x="4158" y="5098.81" as="targetPoint" />
          </mxGeometry>
        </mxCell>
        <mxCell id="A8dvImM9lTqvxSa1htUZ-216" value="&lt;font face=&quot;Comic Sans MS&quot;&gt;&lt;span&gt;&lt;b&gt;0&lt;/b&gt;&lt;/span&gt;&lt;/font&gt;" style="rounded=1;whiteSpace=wrap;html=1;fillColor=none;strokeColor=none;fontColor=#000000;arcSize=18;container=0;fontSize=18;" parent="1" vertex="1">
          <mxGeometry x="3844.216341066341" y="5115.579082602791" width="37.332276353276384" height="28.99265341400174" as="geometry" />
        </mxCell>
        <mxCell id="A8dvImM9lTqvxSa1htUZ-217" value="&lt;font face=&quot;Comic Sans MS&quot;&gt;&lt;span&gt;&lt;b&gt;-4&lt;/b&gt;&lt;/span&gt;&lt;/font&gt;" style="rounded=1;whiteSpace=wrap;html=1;fillColor=none;strokeColor=none;fontColor=#000000;arcSize=18;container=0;fontSize=18;" parent="1" vertex="1">
          <mxGeometry x="3897.946201872202" y="5115.767346585999" width="37.332276353276384" height="28.99265341400174" as="geometry" />
        </mxCell>
        <mxCell id="A8dvImM9lTqvxSa1htUZ-218" value="&lt;font face=&quot;Comic Sans MS&quot;&gt;&lt;span&gt;&lt;b&gt;-2&lt;/b&gt;&lt;/span&gt;&lt;/font&gt;" style="rounded=1;whiteSpace=wrap;html=1;fillColor=none;strokeColor=none;fontColor=#000000;arcSize=18;container=0;fontSize=18;" parent="1" vertex="1">
          <mxGeometry x="3950.6658447293444" y="5115.76908260279" width="37.332276353276384" height="28.99265341400174" as="geometry" />
        </mxCell>
        <mxCell id="A8dvImM9lTqvxSa1htUZ-219" value="&lt;font face=&quot;Comic Sans MS&quot;&gt;&lt;span&gt;&lt;b&gt;0&lt;/b&gt;&lt;/span&gt;&lt;/font&gt;" style="rounded=1;whiteSpace=wrap;html=1;fillColor=none;strokeColor=none;fontColor=#000000;arcSize=18;container=0;fontSize=18;" parent="1" vertex="1">
          <mxGeometry x="4001.7709116809124" y="5115.767346585999" width="37.332276353276384" height="28.99265341400174" as="geometry" />
        </mxCell>
        <mxCell id="A8dvImM9lTqvxSa1htUZ-220" value="&lt;font face=&quot;Comic Sans MS&quot;&gt;&lt;span&gt;&lt;b&gt;2&lt;/b&gt;&lt;/span&gt;&lt;/font&gt;" style="rounded=1;whiteSpace=wrap;html=1;fillColor=none;strokeColor=none;fontColor=#000000;arcSize=18;container=0;fontSize=18;" parent="1" vertex="1">
          <mxGeometry x="4052.322656695156" y="5115.76908260279" width="37.332276353276384" height="28.99265341400174" as="geometry" />
        </mxCell>
        <mxCell id="A8dvImM9lTqvxSa1htUZ-221" value="&lt;font face=&quot;Comic Sans MS&quot;&gt;&lt;span&gt;&lt;b&gt;4&lt;/b&gt;&lt;/span&gt;&lt;/font&gt;" style="rounded=1;whiteSpace=wrap;html=1;fillColor=none;strokeColor=none;fontColor=#000000;arcSize=18;container=0;fontSize=18;" parent="1" vertex="1">
          <mxGeometry x="4109.997723646722" y="5115.767346585999" width="37.332276353276384" height="28.99265341400174" as="geometry" />
        </mxCell>
        <mxCell id="A8dvImM9lTqvxSa1htUZ-222" value="&lt;font face=&quot;Comic Sans MS&quot;&gt;&lt;span&gt;&lt;b&gt;0.5&lt;/b&gt;&lt;/span&gt;&lt;/font&gt;" style="rounded=1;whiteSpace=wrap;html=1;fillColor=none;strokeColor=none;fontColor=#000000;arcSize=18;container=0;fontSize=18;" parent="1" vertex="1">
          <mxGeometry x="3824.9999999999995" y="4988.806088405976" width="37.332276353276384" height="28.99265341400174" as="geometry" />
        </mxCell>
        <mxCell id="A8dvImM9lTqvxSa1htUZ-223" value="&lt;font style=&quot;font-size: 19px;&quot; face=&quot;Comic Sans MS&quot;&gt;&lt;span&gt;&lt;b&gt;1&lt;/b&gt;&lt;/span&gt;&lt;/font&gt;" style="rounded=1;whiteSpace=wrap;html=1;fillColor=none;strokeColor=none;fontColor=#000000;arcSize=18;container=0;fontSize=18;" parent="1" vertex="1">
          <mxGeometry x="3830.9999999999995" y="4898.81209408569" width="37.332276353276384" height="28.99265341400174" as="geometry" />
        </mxCell>
        <mxCell id="A8dvImM9lTqvxSa1htUZ-224" value="" style="endArrow=none;html=1;rounded=0;strokeWidth=5;strokeColor=#000000;endFill=0;" parent="1" edge="1">
          <mxGeometry width="50" height="50" relative="1" as="geometry">
            <mxPoint x="3880" y="4912.81" as="sourcePoint" />
            <mxPoint x="3866" y="4912.81" as="targetPoint" />
          </mxGeometry>
        </mxCell>
        <mxCell id="A8dvImM9lTqvxSa1htUZ-225" value="" style="endArrow=none;html=1;rounded=0;strokeWidth=5;strokeColor=#000000;endFill=0;" parent="1" edge="1">
          <mxGeometry width="50" height="50" relative="1" as="geometry">
            <mxPoint x="3878.73" y="5003.17" as="sourcePoint" />
            <mxPoint x="3864.73" y="5003.17" as="targetPoint" />
          </mxGeometry>
        </mxCell>
        <mxCell id="A8dvImM9lTqvxSa1htUZ-226" value="" style="endArrow=none;html=1;rounded=0;strokeWidth=5;strokeColor=#000000;endFill=0;" parent="1" edge="1">
          <mxGeometry width="50" height="50" relative="1" as="geometry">
            <mxPoint x="3923" y="5113.81" as="sourcePoint" />
            <mxPoint x="3923" y="5099.81" as="targetPoint" />
          </mxGeometry>
        </mxCell>
        <mxCell id="A8dvImM9lTqvxSa1htUZ-227" value="" style="endArrow=none;html=1;rounded=0;strokeWidth=5;strokeColor=#000000;endFill=0;" parent="1" edge="1">
          <mxGeometry width="50" height="50" relative="1" as="geometry">
            <mxPoint x="3973.26" y="5113.81" as="sourcePoint" />
            <mxPoint x="3973.26" y="5099.81" as="targetPoint" />
          </mxGeometry>
        </mxCell>
        <mxCell id="A8dvImM9lTqvxSa1htUZ-228" value="" style="endArrow=none;html=1;rounded=0;strokeWidth=5;strokeColor=#000000;endFill=0;" parent="1" edge="1">
          <mxGeometry width="50" height="50" relative="1" as="geometry">
            <mxPoint x="4020" y="5114.77" as="sourcePoint" />
            <mxPoint x="4020" y="5100.77" as="targetPoint" />
          </mxGeometry>
        </mxCell>
        <mxCell id="A8dvImM9lTqvxSa1htUZ-229" value="" style="endArrow=none;html=1;rounded=0;strokeWidth=5;strokeColor=#000000;endFill=0;" parent="1" edge="1">
          <mxGeometry width="50" height="50" relative="1" as="geometry">
            <mxPoint x="4071.26" y="5114.77" as="sourcePoint" />
            <mxPoint x="4071.26" y="5100.77" as="targetPoint" />
          </mxGeometry>
        </mxCell>
        <mxCell id="A8dvImM9lTqvxSa1htUZ-230" value="" style="endArrow=none;html=1;rounded=0;strokeWidth=5;strokeColor=#000000;endFill=0;" parent="1" edge="1">
          <mxGeometry width="50" height="50" relative="1" as="geometry">
            <mxPoint x="4129.43" y="5114.580000000001" as="sourcePoint" />
            <mxPoint x="4129.43" y="5100.580000000001" as="targetPoint" />
          </mxGeometry>
        </mxCell>
        <mxCell id="A8dvImM9lTqvxSa1htUZ-231" value="&lt;div style=&quot;line-height: 19px; white-space: pre;&quot;&gt;&lt;b style=&quot;font-family: &amp;quot;Comic Sans MS&amp;quot;; font-size: 18px; white-space: normal;&quot;&gt;Sigmoid Function&lt;/b&gt;&lt;br&gt;&lt;/div&gt;" style="rounded=1;whiteSpace=wrap;html=1;arcSize=46;container=0;fontSize=17;strokeWidth=3;" parent="1" vertex="1">
          <mxGeometry x="3935.28" y="4849.81" width="187.5" height="26.5" as="geometry" />
        </mxCell>
        <mxCell id="A8dvImM9lTqvxSa1htUZ-232" value="" style="endArrow=none;html=1;rounded=0;strokeWidth=5;strokeColor=#FF0000;endFill=0;curved=1;" parent="1" edge="1">
          <mxGeometry width="50" height="50" relative="1" as="geometry">
            <mxPoint x="3921" y="5092" as="sourcePoint" />
            <mxPoint x="4120" y="4912.81" as="targetPoint" />
            <Array as="points">
              <mxPoint x="3987" y="5094" />
              <mxPoint x="4026" y="4995" />
              <mxPoint x="4058" y="4907" />
            </Array>
          </mxGeometry>
        </mxCell>
        <mxCell id="A8dvImM9lTqvxSa1htUZ-234" value="&lt;div style=&quot;text-align: justify;&quot;&gt;&lt;br&gt;&lt;/div&gt;" style="rounded=1;whiteSpace=wrap;html=1;fillColor=none;strokeColor=none;fontColor=#FFFFFF;arcSize=7;container=0;fontSize=16;spacing=15;" parent="1" vertex="1">
          <mxGeometry x="4176" y="4840" width="46.58" height="300" as="geometry" />
        </mxCell>
        <mxCell id="iMzeJBbJIZaKQnCHU_Ai-1" value="&lt;div style=&quot;text-align: justify;&quot;&gt;&lt;br&gt;&lt;/div&gt;" style="rounded=1;whiteSpace=wrap;html=1;fillColor=none;strokeColor=none;fontColor=#FFFFFF;arcSize=7;container=0;fontSize=16;spacing=15;" parent="1" vertex="1">
          <mxGeometry x="3426.92" y="5170" width="46.58" height="320" as="geometry" />
        </mxCell>
        <mxCell id="iMzeJBbJIZaKQnCHU_Ai-2" value="" style="endArrow=none;html=1;rounded=0;strokeWidth=5;strokeColor=#000000;endFill=0;" parent="1" edge="1">
          <mxGeometry width="50" height="50" relative="1" as="geometry">
            <mxPoint x="3596.0307733007735" y="5430.100135819237" as="sourcePoint" />
            <mxPoint x="3596.33" y="5249" as="targetPoint" />
          </mxGeometry>
        </mxCell>
        <mxCell id="iMzeJBbJIZaKQnCHU_Ai-3" value="" style="endArrow=none;html=1;rounded=0;strokeWidth=5;strokeColor=#000000;endFill=0;" parent="1" edge="1">
          <mxGeometry width="50" height="50" relative="1" as="geometry">
            <mxPoint x="3595.6265087505085" y="5428.179843190517" as="sourcePoint" />
            <mxPoint x="3790.33" y="5428" as="targetPoint" />
          </mxGeometry>
        </mxCell>
        <mxCell id="iMzeJBbJIZaKQnCHU_Ai-4" value="&lt;font face=&quot;Comic Sans MS&quot;&gt;&lt;span&gt;&lt;b&gt;0&lt;/b&gt;&lt;/span&gt;&lt;/font&gt;" style="rounded=1;whiteSpace=wrap;html=1;fillColor=none;strokeColor=none;fontColor=#000000;arcSize=18;container=0;fontSize=18;" parent="1" vertex="1">
          <mxGeometry x="3568.166341066341" y="5428.99908260279" width="37.332276353276384" height="28.99265341400174" as="geometry" />
        </mxCell>
        <mxCell id="iMzeJBbJIZaKQnCHU_Ai-8" value="&lt;font face=&quot;Comic Sans MS&quot;&gt;&lt;span&gt;&lt;b&gt;2&lt;/b&gt;&lt;/span&gt;&lt;/font&gt;" style="rounded=1;whiteSpace=wrap;html=1;fillColor=none;strokeColor=none;fontColor=#000000;arcSize=18;container=0;fontSize=18;" parent="1" vertex="1">
          <mxGeometry x="3678.102656695156" y="5444.76908260279" width="37.332276353276384" height="28.99265341400174" as="geometry" />
        </mxCell>
        <mxCell id="iMzeJBbJIZaKQnCHU_Ai-10" value="&lt;font face=&quot;Comic Sans MS&quot;&gt;&lt;span&gt;&lt;b&gt;1&lt;/b&gt;&lt;/span&gt;&lt;/font&gt;" style="rounded=1;whiteSpace=wrap;html=1;fillColor=none;strokeColor=none;fontColor=#000000;arcSize=18;container=0;fontSize=18;" parent="1" vertex="1">
          <mxGeometry x="3550.33" y="5343" width="28.83" height="28.99" as="geometry" />
        </mxCell>
        <mxCell id="iMzeJBbJIZaKQnCHU_Ai-11" value="&lt;font style=&quot;font-size: 19px;&quot; face=&quot;Comic Sans MS&quot;&gt;&lt;span&gt;&lt;b&gt;2&lt;/b&gt;&lt;/span&gt;&lt;/font&gt;" style="rounded=1;whiteSpace=wrap;html=1;fillColor=none;strokeColor=none;fontColor=#000000;arcSize=18;container=0;fontSize=18;" parent="1" vertex="1">
          <mxGeometry x="3547.8299999999995" y="5250.002094085689" width="37.332276353276384" height="28.99265341400174" as="geometry" />
        </mxCell>
        <mxCell id="iMzeJBbJIZaKQnCHU_Ai-12" value="" style="endArrow=none;html=1;rounded=0;strokeWidth=5;strokeColor=#000000;endFill=0;" parent="1" edge="1">
          <mxGeometry width="50" height="50" relative="1" as="geometry">
            <mxPoint x="3596.83" y="5264" as="sourcePoint" />
            <mxPoint x="3582.83" y="5264" as="targetPoint" />
          </mxGeometry>
        </mxCell>
        <mxCell id="iMzeJBbJIZaKQnCHU_Ai-13" value="" style="endArrow=none;html=1;rounded=0;strokeWidth=5;strokeColor=#000000;endFill=0;" parent="1" edge="1">
          <mxGeometry width="50" height="50" relative="1" as="geometry">
            <mxPoint x="3595.56" y="5357.36" as="sourcePoint" />
            <mxPoint x="3581.56" y="5357.36" as="targetPoint" />
          </mxGeometry>
        </mxCell>
        <mxCell id="iMzeJBbJIZaKQnCHU_Ai-16" value="" style="endArrow=none;html=1;rounded=0;strokeWidth=5;strokeColor=#000000;endFill=0;" parent="1" edge="1">
          <mxGeometry width="50" height="50" relative="1" as="geometry">
            <mxPoint x="3696.43" y="5444.77" as="sourcePoint" />
            <mxPoint x="3696.43" y="5430.77" as="targetPoint" />
          </mxGeometry>
        </mxCell>
        <mxCell id="iMzeJBbJIZaKQnCHU_Ai-19" value="&lt;div style=&quot;line-height: 19px; white-space: pre;&quot;&gt;&lt;b style=&quot;font-family: &amp;quot;Comic Sans MS&amp;quot;; font-size: 18px; white-space: normal;&quot;&gt;Binary Decision Rule&lt;/b&gt;&lt;br&gt;&lt;/div&gt;" style="rounded=1;whiteSpace=wrap;html=1;arcSize=46;container=0;fontSize=17;strokeWidth=3;" parent="1" vertex="1">
          <mxGeometry x="3588.5" y="5185" width="187.5" height="26.5" as="geometry" />
        </mxCell>
        <mxCell id="iMzeJBbJIZaKQnCHU_Ai-42" value="" style="endArrow=none;html=1;rounded=0;strokeWidth=2;strokeColor=#000000;endFill=0;" parent="1" edge="1">
          <mxGeometry width="50" height="50" relative="1" as="geometry">
            <mxPoint x="3579.16" y="5269.99" as="sourcePoint" />
            <mxPoint x="3684" y="5452" as="targetPoint" />
          </mxGeometry>
        </mxCell>
        <mxCell id="iMzeJBbJIZaKQnCHU_Ai-43" value="&lt;font face=&quot;Comic Sans MS&quot;&gt;&lt;span&gt;&lt;b&gt;free&lt;/b&gt;&lt;/span&gt;&lt;/font&gt;" style="rounded=1;whiteSpace=wrap;html=1;fillColor=none;strokeColor=none;fontColor=#000000;arcSize=18;container=0;fontSize=18;" parent="1" vertex="1">
          <mxGeometry x="3749.672656695156" y="5444.76908260279" width="37.332276353276384" height="28.99265341400174" as="geometry" />
        </mxCell>
        <mxCell id="iMzeJBbJIZaKQnCHU_Ai-44" value="&lt;font face=&quot;Comic Sans MS&quot;&gt;&lt;b&gt;money&lt;/b&gt;&lt;/font&gt;" style="rounded=1;whiteSpace=wrap;html=1;fillColor=none;strokeColor=none;fontColor=#000000;arcSize=18;container=0;fontSize=18;rotation=-90;" parent="1" vertex="1">
          <mxGeometry x="3515.582656695156" y="5258.99908260279" width="37.332276353276384" height="28.99265341400174" as="geometry" />
        </mxCell>
        <mxCell id="iMzeJBbJIZaKQnCHU_Ai-45" value="&lt;font face=&quot;Comic Sans MS&quot;&gt;&lt;span&gt;&lt;b&gt;w=(Bias:-3, free:4,money:2,the:0)&lt;/b&gt;&lt;/span&gt;&lt;/font&gt;" style="rounded=1;whiteSpace=wrap;html=1;fillColor=none;strokeColor=none;fontColor=#000000;arcSize=18;container=0;fontSize=18;" parent="1" vertex="1">
          <mxGeometry x="3624.15" y="5229.01" width="180.33" height="28.99" as="geometry" />
        </mxCell>
        <mxCell id="iMzeJBbJIZaKQnCHU_Ai-51" value="&lt;div style=&quot;text-align: justify;&quot;&gt;&lt;br&gt;&lt;/div&gt;" style="rounded=1;whiteSpace=wrap;html=1;fillColor=none;strokeColor=none;fontColor=#FFFFFF;arcSize=7;container=0;fontSize=16;spacing=15;" parent="1" vertex="1">
          <mxGeometry x="4184.65" y="5170" width="46.58" height="320" as="geometry" />
        </mxCell>
        <mxCell id="iMzeJBbJIZaKQnCHU_Ai-56" value="" style="shape=step;perimeter=stepPerimeter;whiteSpace=wrap;html=1;fixedSize=1;rotation=-180;size=19.050000000000182;fillColor=#FF99FF;" parent="1" vertex="1">
          <mxGeometry x="4010.95" y="5294.49" width="101.07" height="130" as="geometry" />
        </mxCell>
        <mxCell id="iMzeJBbJIZaKQnCHU_Ai-60" value="" style="shape=step;perimeter=stepPerimeter;whiteSpace=wrap;html=1;fixedSize=1;rotation=-45;size=35.25;fillColor=#66FFFF;" parent="1" vertex="1">
          <mxGeometry x="3922.24" y="5332.57" width="104.45" height="122.31" as="geometry" />
        </mxCell>
        <mxCell id="iMzeJBbJIZaKQnCHU_Ai-54" value="" style="endArrow=none;html=1;rounded=0;strokeWidth=3;strokeColor=#000000;endFill=0;" parent="1" edge="1">
          <mxGeometry width="50" height="50" relative="1" as="geometry">
            <mxPoint x="3884" y="5380" as="sourcePoint" />
            <mxPoint x="4134.33" y="5380" as="targetPoint" />
          </mxGeometry>
        </mxCell>
        <mxCell id="iMzeJBbJIZaKQnCHU_Ai-63" value="" style="endArrow=none;html=1;rounded=0;strokeWidth=3;strokeColor=#000000;endFill=0;" parent="1" edge="1">
          <mxGeometry width="50" height="50" relative="1" as="geometry">
            <mxPoint x="3995" y="5229" as="sourcePoint" />
            <mxPoint x="3998" y="5476" as="targetPoint" />
          </mxGeometry>
        </mxCell>
        <mxCell id="iMzeJBbJIZaKQnCHU_Ai-64" value="&lt;div style=&quot;line-height: 19px; white-space: pre;&quot;&gt;&lt;b style=&quot;font-family: &amp;quot;Comic Sans MS&amp;quot;; font-size: 18px; white-space: normal;&quot;&gt;Multiclass Decision Rule&lt;/b&gt;&lt;br&gt;&lt;/div&gt;" style="rounded=1;whiteSpace=wrap;html=1;arcSize=46;container=0;fontSize=17;strokeWidth=3;" parent="1" vertex="1">
          <mxGeometry x="3900" y="5185" width="230" height="26.5" as="geometry" />
        </mxCell>
        <mxCell id="iMzeJBbJIZaKQnCHU_Ai-73" value="" style="group" parent="1" vertex="1" connectable="0">
          <mxGeometry x="4020" y="5340" width="66" height="39.38999999999942" as="geometry" />
        </mxCell>
        <mxCell id="iMzeJBbJIZaKQnCHU_Ai-67" value="&lt;font style=&quot;font-size: 15px;&quot; face=&quot;Comic Sans MS&quot;&gt;&lt;b style=&quot;&quot;&gt;3&lt;/b&gt;&lt;/font&gt;" style="rounded=1;whiteSpace=wrap;html=1;fillColor=none;strokeColor=none;fontColor=#000000;arcSize=18;container=0;fontSize=18;" parent="iMzeJBbJIZaKQnCHU_Ai-73" vertex="1">
          <mxGeometry x="12" y="10.399999999999636" width="30" height="28.99" as="geometry" />
        </mxCell>
        <mxCell id="iMzeJBbJIZaKQnCHU_Ai-65" value="&lt;font style=&quot;font-size: 20px;&quot; face=&quot;Comic Sans MS&quot;&gt;&lt;b style=&quot;&quot;&gt;w&lt;/b&gt;&lt;/font&gt;" style="rounded=1;whiteSpace=wrap;html=1;fillColor=none;strokeColor=none;fontColor=#000000;arcSize=18;container=0;fontSize=18;" parent="iMzeJBbJIZaKQnCHU_Ai-73" vertex="1">
          <mxGeometry width="30" height="28.99" as="geometry" />
        </mxCell>
        <mxCell id="iMzeJBbJIZaKQnCHU_Ai-71" value="" style="ellipse;whiteSpace=wrap;html=1;fillColor=#000000;" parent="iMzeJBbJIZaKQnCHU_Ai-73" vertex="1">
          <mxGeometry x="33.22999999999956" y="14.5" width="4.77" height="4.91" as="geometry" />
        </mxCell>
        <mxCell id="iMzeJBbJIZaKQnCHU_Ai-72" value="&lt;font style=&quot;font-size: 20px;&quot; face=&quot;Comic Sans MS&quot;&gt;&lt;b style=&quot;&quot;&gt;f&lt;/b&gt;&lt;/font&gt;" style="rounded=1;whiteSpace=wrap;html=1;fillColor=none;strokeColor=none;fontColor=#000000;arcSize=18;container=0;fontSize=18;" parent="iMzeJBbJIZaKQnCHU_Ai-73" vertex="1">
          <mxGeometry x="36" width="30" height="28.99" as="geometry" />
        </mxCell>
        <mxCell id="iMzeJBbJIZaKQnCHU_Ai-75" value="" style="group" parent="1" vertex="1" connectable="0">
          <mxGeometry x="3928" y="5278" width="66" height="39.38999999999942" as="geometry" />
        </mxCell>
        <mxCell id="iMzeJBbJIZaKQnCHU_Ai-76" value="&lt;font style=&quot;font-size: 15px;&quot; face=&quot;Comic Sans MS&quot;&gt;&lt;b style=&quot;&quot;&gt;1&lt;/b&gt;&lt;/font&gt;" style="rounded=1;whiteSpace=wrap;html=1;fillColor=none;strokeColor=none;fontColor=#000000;arcSize=18;container=0;fontSize=18;" parent="iMzeJBbJIZaKQnCHU_Ai-75" vertex="1">
          <mxGeometry x="12" y="10.399999999999636" width="30" height="28.99" as="geometry" />
        </mxCell>
        <mxCell id="iMzeJBbJIZaKQnCHU_Ai-77" value="&lt;font style=&quot;font-size: 20px;&quot; face=&quot;Comic Sans MS&quot;&gt;&lt;b style=&quot;&quot;&gt;w&lt;/b&gt;&lt;/font&gt;" style="rounded=1;whiteSpace=wrap;html=1;fillColor=none;strokeColor=none;fontColor=#000000;arcSize=18;container=0;fontSize=18;" parent="iMzeJBbJIZaKQnCHU_Ai-75" vertex="1">
          <mxGeometry width="30" height="28.99" as="geometry" />
        </mxCell>
        <mxCell id="iMzeJBbJIZaKQnCHU_Ai-78" value="" style="ellipse;whiteSpace=wrap;html=1;fillColor=#000000;" parent="iMzeJBbJIZaKQnCHU_Ai-75" vertex="1">
          <mxGeometry x="33.22999999999956" y="14.5" width="4.77" height="4.91" as="geometry" />
        </mxCell>
        <mxCell id="iMzeJBbJIZaKQnCHU_Ai-79" value="&lt;font style=&quot;font-size: 20px;&quot; face=&quot;Comic Sans MS&quot;&gt;&lt;b style=&quot;&quot;&gt;f&lt;/b&gt;&lt;/font&gt;" style="rounded=1;whiteSpace=wrap;html=1;fillColor=none;strokeColor=none;fontColor=#000000;arcSize=18;container=0;fontSize=18;" parent="iMzeJBbJIZaKQnCHU_Ai-75" vertex="1">
          <mxGeometry x="36" width="30" height="28.99" as="geometry" />
        </mxCell>
        <mxCell id="iMzeJBbJIZaKQnCHU_Ai-80" value="" style="group" parent="1" vertex="1" connectable="0">
          <mxGeometry x="3925" y="5345" width="66" height="39.38999999999942" as="geometry" />
        </mxCell>
        <mxCell id="iMzeJBbJIZaKQnCHU_Ai-81" value="&lt;font style=&quot;font-size: 15px;&quot; face=&quot;Comic Sans MS&quot;&gt;&lt;b style=&quot;&quot;&gt;2&lt;/b&gt;&lt;/font&gt;" style="rounded=1;whiteSpace=wrap;html=1;fillColor=none;strokeColor=none;fontColor=#000000;arcSize=18;container=0;fontSize=18;" parent="iMzeJBbJIZaKQnCHU_Ai-80" vertex="1">
          <mxGeometry x="12" y="10.399999999999636" width="30" height="28.99" as="geometry" />
        </mxCell>
        <mxCell id="iMzeJBbJIZaKQnCHU_Ai-82" value="&lt;font style=&quot;font-size: 20px;&quot; face=&quot;Comic Sans MS&quot;&gt;&lt;b style=&quot;&quot;&gt;w&lt;/b&gt;&lt;/font&gt;" style="rounded=1;whiteSpace=wrap;html=1;fillColor=none;strokeColor=none;fontColor=#000000;arcSize=18;container=0;fontSize=18;" parent="iMzeJBbJIZaKQnCHU_Ai-80" vertex="1">
          <mxGeometry width="30" height="28.99" as="geometry" />
        </mxCell>
        <mxCell id="iMzeJBbJIZaKQnCHU_Ai-83" value="" style="ellipse;whiteSpace=wrap;html=1;fillColor=#000000;" parent="iMzeJBbJIZaKQnCHU_Ai-80" vertex="1">
          <mxGeometry x="33.22999999999956" y="14.5" width="4.77" height="4.91" as="geometry" />
        </mxCell>
        <mxCell id="iMzeJBbJIZaKQnCHU_Ai-84" value="&lt;font style=&quot;font-size: 20px;&quot; face=&quot;Comic Sans MS&quot;&gt;&lt;b style=&quot;&quot;&gt;f&lt;/b&gt;&lt;/font&gt;" style="rounded=1;whiteSpace=wrap;html=1;fillColor=none;strokeColor=none;fontColor=#000000;arcSize=18;container=0;fontSize=18;" parent="iMzeJBbJIZaKQnCHU_Ai-80" vertex="1">
          <mxGeometry x="36" width="30" height="28.99" as="geometry" />
        </mxCell>
        <mxCell id="iMzeJBbJIZaKQnCHU_Ai-85" value="" style="group" parent="1" vertex="1" connectable="0">
          <mxGeometry x="3650" y="5330" width="130" height="39.38999999999942" as="geometry" />
        </mxCell>
        <mxCell id="iMzeJBbJIZaKQnCHU_Ai-87" value="&lt;font style=&quot;font-size: 20px;&quot; face=&quot;Comic Sans MS&quot;&gt;&lt;b style=&quot;&quot;&gt;w&lt;/b&gt;&lt;/font&gt;" style="rounded=1;whiteSpace=wrap;html=1;fillColor=none;strokeColor=none;fontColor=#000000;arcSize=18;container=0;fontSize=18;" parent="iMzeJBbJIZaKQnCHU_Ai-85" vertex="1">
          <mxGeometry x="2" width="30" height="28.99" as="geometry" />
        </mxCell>
        <mxCell id="iMzeJBbJIZaKQnCHU_Ai-88" value="" style="ellipse;whiteSpace=wrap;html=1;fillColor=#000000;" parent="iMzeJBbJIZaKQnCHU_Ai-85" vertex="1">
          <mxGeometry x="33.22999999999956" y="14.5" width="4.77" height="4.91" as="geometry" />
        </mxCell>
        <mxCell id="iMzeJBbJIZaKQnCHU_Ai-89" value="&lt;font face=&quot;Comic Sans MS&quot;&gt;&lt;b&gt;&lt;font style=&quot;font-size: 20px;&quot;&gt;f(x)&amp;nbsp;&lt;/font&gt;&lt;span style=&quot;text-align: start;&quot;&gt;â‰¥ 0&lt;/span&gt;&lt;/b&gt;&lt;/font&gt;" style="rounded=1;whiteSpace=wrap;html=1;fillColor=none;strokeColor=none;fontColor=#000000;arcSize=18;container=0;fontSize=18;" parent="iMzeJBbJIZaKQnCHU_Ai-85" vertex="1">
          <mxGeometry x="38" width="94" height="28.99" as="geometry" />
        </mxCell>
        <mxCell id="iMzeJBbJIZaKQnCHU_Ai-156" value="" style="group" parent="1" vertex="1" connectable="0">
          <mxGeometry x="4258.996341066341" y="4498.99908260279" width="269.91227635327596" height="263.46265341400067" as="geometry" />
        </mxCell>
        <mxCell id="iMzeJBbJIZaKQnCHU_Ai-155" value="&lt;div style=&quot;line-height: 19px; white-space: pre;&quot;&gt;&lt;br&gt;&lt;/div&gt;" style="rounded=1;whiteSpace=wrap;html=1;arcSize=46;container=0;fontSize=17;strokeWidth=3;fillColor=none;" parent="iMzeJBbJIZaKQnCHU_Ai-156" vertex="1">
          <mxGeometry x="86.41" y="1" width="148.59" height="35.18" as="geometry" />
        </mxCell>
        <mxCell id="iMzeJBbJIZaKQnCHU_Ai-110" value="" style="endArrow=classic;html=1;rounded=0;strokeWidth=3.5;strokeColor=#000000;endFill=1;" parent="iMzeJBbJIZaKQnCHU_Ai-156" edge="1">
          <mxGeometry width="50" height="50" relative="1" as="geometry">
            <mxPoint x="57.0036589336587" y="220.0009173972103" as="sourcePoint" />
            <mxPoint x="258.0036589336587" y="220.0009173972103" as="targetPoint" />
          </mxGeometry>
        </mxCell>
        <mxCell id="iMzeJBbJIZaKQnCHU_Ai-111" value="" style="endArrow=none;html=1;rounded=0;strokeWidth=3.5;strokeColor=#000000;endFill=0;startArrow=classic;startFill=1;" parent="iMzeJBbJIZaKQnCHU_Ai-156" edge="1">
          <mxGeometry width="50" height="50" relative="1" as="geometry">
            <mxPoint x="58.0036589336587" y="21.000917397210287" as="sourcePoint" />
            <mxPoint x="58.0036589336587" y="221.0009173972103" as="targetPoint" />
          </mxGeometry>
        </mxCell>
        <mxCell id="iMzeJBbJIZaKQnCHU_Ai-132" value="&lt;font face=&quot;Comic Sans MS&quot;&gt;&lt;span&gt;&lt;b&gt;0&lt;/b&gt;&lt;/span&gt;&lt;/font&gt;" style="rounded=1;whiteSpace=wrap;html=1;fillColor=none;strokeColor=none;fontColor=#000000;arcSize=18;container=0;fontSize=18;" parent="iMzeJBbJIZaKQnCHU_Ai-156" vertex="1">
          <mxGeometry x="18" y="225" width="37.332276353276384" height="28.99265341400174" as="geometry" />
        </mxCell>
        <mxCell id="iMzeJBbJIZaKQnCHU_Ai-133" value="&lt;font face=&quot;Comic Sans MS&quot;&gt;&lt;span&gt;&lt;b&gt;1&lt;/b&gt;&lt;/span&gt;&lt;/font&gt;" style="rounded=1;whiteSpace=wrap;html=1;fillColor=none;strokeColor=none;fontColor=#000000;arcSize=18;container=0;fontSize=18;" parent="iMzeJBbJIZaKQnCHU_Ai-156" vertex="1">
          <mxGeometry x="178" y="228" width="37.332276353276384" height="28.99265341400174" as="geometry" />
        </mxCell>
        <mxCell id="iMzeJBbJIZaKQnCHU_Ai-134" value="&lt;font face=&quot;Comic Sans MS&quot;&gt;&lt;span&gt;&lt;b&gt;1&lt;/b&gt;&lt;/span&gt;&lt;/font&gt;" style="rounded=1;whiteSpace=wrap;html=1;fillColor=none;strokeColor=none;fontColor=#000000;arcSize=18;container=0;fontSize=18;" parent="iMzeJBbJIZaKQnCHU_Ai-156" vertex="1">
          <mxGeometry x="18" y="62.44999999999982" width="37.332276353276384" height="28.99265341400174" as="geometry" />
        </mxCell>
        <mxCell id="iMzeJBbJIZaKQnCHU_Ai-135" value="" style="ellipse;whiteSpace=wrap;html=1;aspect=fixed;strokeWidth=2;" parent="iMzeJBbJIZaKQnCHU_Ai-156" vertex="1">
          <mxGeometry x="52.0036589336587" y="213.98091739720985" width="13" height="13" as="geometry" />
        </mxCell>
        <mxCell id="iMzeJBbJIZaKQnCHU_Ai-136" value="" style="ellipse;whiteSpace=wrap;html=1;aspect=fixed;strokeWidth=2;fillColor=#FF00FF;" parent="iMzeJBbJIZaKQnCHU_Ai-156" vertex="1">
          <mxGeometry x="190.16365893365855" y="213.7009173972101" width="13" height="13" as="geometry" />
        </mxCell>
        <mxCell id="iMzeJBbJIZaKQnCHU_Ai-137" value="" style="ellipse;whiteSpace=wrap;html=1;aspect=fixed;strokeWidth=2;fillColor=#FF00FF;" parent="iMzeJBbJIZaKQnCHU_Ai-156" vertex="1">
          <mxGeometry x="52.0036589336587" y="69.99091739721007" width="13" height="13" as="geometry" />
        </mxCell>
        <mxCell id="iMzeJBbJIZaKQnCHU_Ai-138" value="" style="endArrow=none;html=1;rounded=0;strokeWidth=5;strokeColor=#FF0000;endFill=0;" parent="iMzeJBbJIZaKQnCHU_Ai-156" edge="1">
          <mxGeometry width="50" height="50" relative="1" as="geometry">
            <mxPoint x="84.0036589336587" y="76.00091739721029" as="sourcePoint" />
            <mxPoint x="193.0036589336587" y="197.0009173972103" as="targetPoint" />
          </mxGeometry>
        </mxCell>
        <mxCell id="iMzeJBbJIZaKQnCHU_Ai-139" value="" style="ellipse;whiteSpace=wrap;html=1;aspect=fixed;strokeWidth=2;fillColor=#FF00FF;" parent="iMzeJBbJIZaKQnCHU_Ai-156" vertex="1">
          <mxGeometry x="190.1636589336587" y="70.4509173972101" width="13" height="13" as="geometry" />
        </mxCell>
        <mxCell id="iMzeJBbJIZaKQnCHU_Ai-142" value="" style="group" parent="iMzeJBbJIZaKQnCHU_Ai-156" vertex="1" connectable="0">
          <mxGeometry y="18.710000000000036" width="51.912276353275956" height="40.46265341400067" as="geometry" />
        </mxCell>
        <mxCell id="iMzeJBbJIZaKQnCHU_Ai-140" value="&lt;font style=&quot;font-size: 26px;&quot; face=&quot;Comic Sans MS&quot;&gt;&lt;b style=&quot;&quot;&gt;x&lt;/b&gt;&lt;/font&gt;" style="rounded=1;whiteSpace=wrap;html=1;fillColor=none;strokeColor=none;fontColor=#000000;arcSize=18;container=0;fontSize=18;" parent="iMzeJBbJIZaKQnCHU_Ai-142" vertex="1">
          <mxGeometry width="37.332276353276384" height="28.99265341400174" as="geometry" />
        </mxCell>
        <mxCell id="iMzeJBbJIZaKQnCHU_Ai-141" value="&lt;font style=&quot;font-size: 16px;&quot; face=&quot;Comic Sans MS&quot;&gt;&lt;b style=&quot;&quot;&gt;1&lt;/b&gt;&lt;/font&gt;" style="rounded=1;whiteSpace=wrap;html=1;fillColor=none;strokeColor=none;fontColor=#000000;arcSize=18;container=0;fontSize=18;" parent="iMzeJBbJIZaKQnCHU_Ai-142" vertex="1">
          <mxGeometry x="14.579999999999927" y="11.469999999999345" width="37.332276353276384" height="28.99265341400174" as="geometry" />
        </mxCell>
        <mxCell id="iMzeJBbJIZaKQnCHU_Ai-143" value="" style="group" parent="iMzeJBbJIZaKQnCHU_Ai-156" vertex="1" connectable="0">
          <mxGeometry x="218" y="223" width="51.912276353275956" height="40.46265341400067" as="geometry" />
        </mxCell>
        <mxCell id="iMzeJBbJIZaKQnCHU_Ai-144" value="&lt;font style=&quot;font-size: 26px;&quot; face=&quot;Comic Sans MS&quot;&gt;&lt;b style=&quot;&quot;&gt;x&lt;/b&gt;&lt;/font&gt;" style="rounded=1;whiteSpace=wrap;html=1;fillColor=none;strokeColor=none;fontColor=#000000;arcSize=18;container=0;fontSize=18;" parent="iMzeJBbJIZaKQnCHU_Ai-143" vertex="1">
          <mxGeometry width="37.332276353276384" height="28.99265341400174" as="geometry" />
        </mxCell>
        <mxCell id="iMzeJBbJIZaKQnCHU_Ai-145" value="&lt;font style=&quot;font-size: 16px;&quot; face=&quot;Comic Sans MS&quot;&gt;&lt;b style=&quot;&quot;&gt;2&lt;/b&gt;&lt;/font&gt;" style="rounded=1;whiteSpace=wrap;html=1;fillColor=none;strokeColor=none;fontColor=#000000;arcSize=18;container=0;fontSize=18;" parent="iMzeJBbJIZaKQnCHU_Ai-143" vertex="1">
          <mxGeometry x="14.579999999999927" y="11.469999999999345" width="37.332276353276384" height="28.99265341400174" as="geometry" />
        </mxCell>
        <mxCell id="iMzeJBbJIZaKQnCHU_Ai-154" value="" style="group" parent="iMzeJBbJIZaKQnCHU_Ai-156" vertex="1" connectable="0">
          <mxGeometry x="92" width="141.91227635327596" height="40.46265341400067" as="geometry" />
        </mxCell>
        <mxCell id="iMzeJBbJIZaKQnCHU_Ai-147" value="" style="group" parent="iMzeJBbJIZaKQnCHU_Ai-154" vertex="1" connectable="0">
          <mxGeometry width="51.912276353275956" height="40.46265341400067" as="geometry" />
        </mxCell>
        <mxCell id="iMzeJBbJIZaKQnCHU_Ai-148" value="&lt;font style=&quot;font-size: 26px;&quot; face=&quot;Comic Sans MS&quot;&gt;&lt;b style=&quot;&quot;&gt;x&lt;/b&gt;&lt;/font&gt;" style="rounded=1;whiteSpace=wrap;html=1;fillColor=none;strokeColor=none;fontColor=#000000;arcSize=18;container=0;fontSize=18;" parent="iMzeJBbJIZaKQnCHU_Ai-147" vertex="1">
          <mxGeometry width="37.332276353276384" height="28.99265341400174" as="geometry" />
        </mxCell>
        <mxCell id="iMzeJBbJIZaKQnCHU_Ai-149" value="&lt;font style=&quot;font-size: 16px;&quot; face=&quot;Comic Sans MS&quot;&gt;&lt;b style=&quot;&quot;&gt;1&lt;/b&gt;&lt;/font&gt;" style="rounded=1;whiteSpace=wrap;html=1;fillColor=none;strokeColor=none;fontColor=#000000;arcSize=18;container=0;fontSize=18;" parent="iMzeJBbJIZaKQnCHU_Ai-147" vertex="1">
          <mxGeometry x="14.579999999999927" y="11.469999999999345" width="37.332276353276384" height="28.99265341400174" as="geometry" />
        </mxCell>
        <mxCell id="iMzeJBbJIZaKQnCHU_Ai-150" value="" style="group" parent="iMzeJBbJIZaKQnCHU_Ai-154" vertex="1" connectable="0">
          <mxGeometry x="90" width="51.912276353275956" height="40.46265341400067" as="geometry" />
        </mxCell>
        <mxCell id="iMzeJBbJIZaKQnCHU_Ai-151" value="&lt;font style=&quot;font-size: 26px;&quot; face=&quot;Comic Sans MS&quot;&gt;&lt;b style=&quot;&quot;&gt;x&lt;/b&gt;&lt;/font&gt;" style="rounded=1;whiteSpace=wrap;html=1;fillColor=none;strokeColor=none;fontColor=#000000;arcSize=18;container=0;fontSize=18;" parent="iMzeJBbJIZaKQnCHU_Ai-150" vertex="1">
          <mxGeometry width="37.332276353276384" height="28.99265341400174" as="geometry" />
        </mxCell>
        <mxCell id="iMzeJBbJIZaKQnCHU_Ai-152" value="&lt;font style=&quot;font-size: 16px;&quot; face=&quot;Comic Sans MS&quot;&gt;&lt;b style=&quot;&quot;&gt;2&lt;/b&gt;&lt;/font&gt;" style="rounded=1;whiteSpace=wrap;html=1;fillColor=none;strokeColor=none;fontColor=#000000;arcSize=18;container=0;fontSize=18;" parent="iMzeJBbJIZaKQnCHU_Ai-150" vertex="1">
          <mxGeometry x="14.579999999999927" y="11.469999999999345" width="37.332276353276384" height="28.99265341400174" as="geometry" />
        </mxCell>
        <mxCell id="iMzeJBbJIZaKQnCHU_Ai-153" value="&lt;font style=&quot;font-size: 24px;&quot; face=&quot;Comic Sans MS&quot;&gt;&lt;b style=&quot;&quot;&gt;and&lt;/b&gt;&lt;/font&gt;" style="rounded=1;whiteSpace=wrap;html=1;fillColor=none;strokeColor=none;fontColor=#000000;arcSize=18;container=0;fontSize=18;" parent="iMzeJBbJIZaKQnCHU_Ai-154" vertex="1">
          <mxGeometry x="49.67000000000007" y="2.1899999999996" width="37.332276353276384" height="28.99265341400174" as="geometry" />
        </mxCell>
        <mxCell id="iMzeJBbJIZaKQnCHU_Ai-158" value="" style="endArrow=classic;html=1;rounded=0;strokeWidth=3.5;strokeColor=#000000;endFill=1;" parent="1" edge="1">
          <mxGeometry width="50" height="50" relative="1" as="geometry">
            <mxPoint x="4594" y="4720" as="sourcePoint" />
            <mxPoint x="4795" y="4720" as="targetPoint" />
          </mxGeometry>
        </mxCell>
        <mxCell id="iMzeJBbJIZaKQnCHU_Ai-159" value="" style="endArrow=none;html=1;rounded=0;strokeWidth=3.5;strokeColor=#000000;endFill=0;startArrow=classic;startFill=1;" parent="1" edge="1">
          <mxGeometry width="50" height="50" relative="1" as="geometry">
            <mxPoint x="4595" y="4521" as="sourcePoint" />
            <mxPoint x="4595" y="4721" as="targetPoint" />
          </mxGeometry>
        </mxCell>
        <mxCell id="iMzeJBbJIZaKQnCHU_Ai-160" value="&lt;font face=&quot;Comic Sans MS&quot;&gt;&lt;span&gt;&lt;b&gt;0&lt;/b&gt;&lt;/span&gt;&lt;/font&gt;" style="rounded=1;whiteSpace=wrap;html=1;fillColor=none;strokeColor=none;fontColor=#000000;arcSize=18;container=0;fontSize=18;" parent="1" vertex="1">
          <mxGeometry x="4554.996341066341" y="4724.99908260279" width="37.332276353276384" height="28.99265341400174" as="geometry" />
        </mxCell>
        <mxCell id="iMzeJBbJIZaKQnCHU_Ai-161" value="&lt;font face=&quot;Comic Sans MS&quot;&gt;&lt;span&gt;&lt;b&gt;1&lt;/b&gt;&lt;/span&gt;&lt;/font&gt;" style="rounded=1;whiteSpace=wrap;html=1;fillColor=none;strokeColor=none;fontColor=#000000;arcSize=18;container=0;fontSize=18;" parent="1" vertex="1">
          <mxGeometry x="4714.996341066341" y="4727.99908260279" width="37.332276353276384" height="28.99265341400174" as="geometry" />
        </mxCell>
        <mxCell id="iMzeJBbJIZaKQnCHU_Ai-162" value="&lt;font face=&quot;Comic Sans MS&quot;&gt;&lt;span&gt;&lt;b&gt;1&lt;/b&gt;&lt;/span&gt;&lt;/font&gt;" style="rounded=1;whiteSpace=wrap;html=1;fillColor=none;strokeColor=none;fontColor=#000000;arcSize=18;container=0;fontSize=18;" parent="1" vertex="1">
          <mxGeometry x="4554.996341066341" y="4562.4490826027895" width="37.332276353276384" height="28.99265341400174" as="geometry" />
        </mxCell>
        <mxCell id="iMzeJBbJIZaKQnCHU_Ai-163" value="" style="ellipse;whiteSpace=wrap;html=1;aspect=fixed;strokeWidth=2;" parent="1" vertex="1">
          <mxGeometry x="4589" y="4713.98" width="13" height="13" as="geometry" />
        </mxCell>
        <mxCell id="iMzeJBbJIZaKQnCHU_Ai-164" value="" style="ellipse;whiteSpace=wrap;html=1;aspect=fixed;strokeWidth=2;fillColor=#FF00FF;" parent="1" vertex="1">
          <mxGeometry x="4727.16" y="4713.7" width="13" height="13" as="geometry" />
        </mxCell>
        <mxCell id="iMzeJBbJIZaKQnCHU_Ai-165" value="" style="ellipse;whiteSpace=wrap;html=1;aspect=fixed;strokeWidth=2;fillColor=#FF00FF;" parent="1" vertex="1">
          <mxGeometry x="4589" y="4569.99" width="13" height="13" as="geometry" />
        </mxCell>
        <mxCell id="iMzeJBbJIZaKQnCHU_Ai-166" value="" style="endArrow=none;html=1;rounded=0;strokeWidth=5;strokeColor=#FF0000;endFill=0;" parent="1" edge="1">
          <mxGeometry width="50" height="50" relative="1" as="geometry">
            <mxPoint x="4577" y="4620" as="sourcePoint" />
            <mxPoint x="4682" y="4739" as="targetPoint" />
          </mxGeometry>
        </mxCell>
        <mxCell id="iMzeJBbJIZaKQnCHU_Ai-167" value="" style="ellipse;whiteSpace=wrap;html=1;aspect=fixed;strokeWidth=2;fillColor=#FF00FF;" parent="1" vertex="1">
          <mxGeometry x="4727.16" y="4570.45" width="13" height="13" as="geometry" />
        </mxCell>
        <mxCell id="iMzeJBbJIZaKQnCHU_Ai-168" value="" style="group" parent="1" vertex="1" connectable="0">
          <mxGeometry x="4536.996341066341" y="4518.70908260279" width="51.912276353275956" height="40.46265341400067" as="geometry" />
        </mxCell>
        <mxCell id="iMzeJBbJIZaKQnCHU_Ai-169" value="&lt;font style=&quot;font-size: 26px;&quot; face=&quot;Comic Sans MS&quot;&gt;&lt;b style=&quot;&quot;&gt;x&lt;/b&gt;&lt;/font&gt;" style="rounded=1;whiteSpace=wrap;html=1;fillColor=none;strokeColor=none;fontColor=#000000;arcSize=18;container=0;fontSize=18;" parent="iMzeJBbJIZaKQnCHU_Ai-168" vertex="1">
          <mxGeometry width="37.332276353276384" height="28.99265341400174" as="geometry" />
        </mxCell>
        <mxCell id="iMzeJBbJIZaKQnCHU_Ai-170" value="&lt;font style=&quot;font-size: 16px;&quot; face=&quot;Comic Sans MS&quot;&gt;&lt;b style=&quot;&quot;&gt;1&lt;/b&gt;&lt;/font&gt;" style="rounded=1;whiteSpace=wrap;html=1;fillColor=none;strokeColor=none;fontColor=#000000;arcSize=18;container=0;fontSize=18;" parent="iMzeJBbJIZaKQnCHU_Ai-168" vertex="1">
          <mxGeometry x="14.579999999999927" y="11.469999999999345" width="37.332276353276384" height="28.99265341400174" as="geometry" />
        </mxCell>
        <mxCell id="iMzeJBbJIZaKQnCHU_Ai-171" value="" style="group" parent="1" vertex="1" connectable="0">
          <mxGeometry x="4754.996341066341" y="4722.99908260279" width="51.912276353275956" height="40.46265341400067" as="geometry" />
        </mxCell>
        <mxCell id="iMzeJBbJIZaKQnCHU_Ai-172" value="&lt;font style=&quot;font-size: 26px;&quot; face=&quot;Comic Sans MS&quot;&gt;&lt;b style=&quot;&quot;&gt;x&lt;/b&gt;&lt;/font&gt;" style="rounded=1;whiteSpace=wrap;html=1;fillColor=none;strokeColor=none;fontColor=#000000;arcSize=18;container=0;fontSize=18;" parent="iMzeJBbJIZaKQnCHU_Ai-171" vertex="1">
          <mxGeometry width="37.332276353276384" height="28.99265341400174" as="geometry" />
        </mxCell>
        <mxCell id="iMzeJBbJIZaKQnCHU_Ai-173" value="&lt;font style=&quot;font-size: 16px;&quot; face=&quot;Comic Sans MS&quot;&gt;&lt;b style=&quot;&quot;&gt;2&lt;/b&gt;&lt;/font&gt;" style="rounded=1;whiteSpace=wrap;html=1;fillColor=none;strokeColor=none;fontColor=#000000;arcSize=18;container=0;fontSize=18;" parent="iMzeJBbJIZaKQnCHU_Ai-171" vertex="1">
          <mxGeometry x="14.579999999999927" y="11.469999999999345" width="37.332276353276384" height="28.99265341400174" as="geometry" />
        </mxCell>
        <mxCell id="iMzeJBbJIZaKQnCHU_Ai-174" value="" style="group" parent="1" vertex="1" connectable="0">
          <mxGeometry x="4628.996341066341" y="4499.99908260279" width="141.91227635327596" height="40.46265341400067" as="geometry" />
        </mxCell>
        <mxCell id="iMzeJBbJIZaKQnCHU_Ai-175" value="" style="group" parent="iMzeJBbJIZaKQnCHU_Ai-174" vertex="1" connectable="0">
          <mxGeometry width="51.912276353275956" height="40.46265341400067" as="geometry" />
        </mxCell>
        <mxCell id="iMzeJBbJIZaKQnCHU_Ai-176" value="&lt;font style=&quot;font-size: 26px;&quot; face=&quot;Comic Sans MS&quot;&gt;&lt;b style=&quot;&quot;&gt;x&lt;/b&gt;&lt;/font&gt;" style="rounded=1;whiteSpace=wrap;html=1;fillColor=none;strokeColor=none;fontColor=#000000;arcSize=18;container=0;fontSize=18;" parent="iMzeJBbJIZaKQnCHU_Ai-175" vertex="1">
          <mxGeometry width="37.332276353276384" height="28.99265341400174" as="geometry" />
        </mxCell>
        <mxCell id="iMzeJBbJIZaKQnCHU_Ai-177" value="&lt;font style=&quot;font-size: 16px;&quot; face=&quot;Comic Sans MS&quot;&gt;&lt;b style=&quot;&quot;&gt;1&lt;/b&gt;&lt;/font&gt;" style="rounded=1;whiteSpace=wrap;html=1;fillColor=none;strokeColor=none;fontColor=#000000;arcSize=18;container=0;fontSize=18;" parent="iMzeJBbJIZaKQnCHU_Ai-175" vertex="1">
          <mxGeometry x="14.579999999999927" y="11.469999999999345" width="37.332276353276384" height="28.99265341400174" as="geometry" />
        </mxCell>
        <mxCell id="iMzeJBbJIZaKQnCHU_Ai-178" value="" style="group" parent="iMzeJBbJIZaKQnCHU_Ai-174" vertex="1" connectable="0">
          <mxGeometry x="90" width="51.912276353275956" height="40.46265341400067" as="geometry" />
        </mxCell>
        <mxCell id="iMzeJBbJIZaKQnCHU_Ai-179" value="&lt;font style=&quot;font-size: 26px;&quot; face=&quot;Comic Sans MS&quot;&gt;&lt;b style=&quot;&quot;&gt;x&lt;/b&gt;&lt;/font&gt;" style="rounded=1;whiteSpace=wrap;html=1;fillColor=none;strokeColor=none;fontColor=#000000;arcSize=18;container=0;fontSize=18;" parent="iMzeJBbJIZaKQnCHU_Ai-178" vertex="1">
          <mxGeometry width="37.332276353276384" height="28.99265341400174" as="geometry" />
        </mxCell>
        <mxCell id="iMzeJBbJIZaKQnCHU_Ai-180" value="&lt;font style=&quot;font-size: 16px;&quot; face=&quot;Comic Sans MS&quot;&gt;&lt;b style=&quot;&quot;&gt;2&lt;/b&gt;&lt;/font&gt;" style="rounded=1;whiteSpace=wrap;html=1;fillColor=none;strokeColor=none;fontColor=#000000;arcSize=18;container=0;fontSize=18;" parent="iMzeJBbJIZaKQnCHU_Ai-178" vertex="1">
          <mxGeometry x="14.579999999999927" y="11.469999999999345" width="37.332276353276384" height="28.99265341400174" as="geometry" />
        </mxCell>
        <mxCell id="iMzeJBbJIZaKQnCHU_Ai-181" value="&lt;font style=&quot;font-size: 24px;&quot; face=&quot;Comic Sans MS&quot;&gt;&lt;b style=&quot;&quot;&gt;or&lt;/b&gt;&lt;/font&gt;" style="rounded=1;whiteSpace=wrap;html=1;fillColor=none;strokeColor=none;fontColor=#000000;arcSize=18;container=0;fontSize=18;" parent="iMzeJBbJIZaKQnCHU_Ai-174" vertex="1">
          <mxGeometry x="49.67000000000007" y="2.1899999999996" width="37.332276353276384" height="28.99265341400174" as="geometry" />
        </mxCell>
        <mxCell id="iMzeJBbJIZaKQnCHU_Ai-184" value="&lt;div style=&quot;line-height: 19px; white-space: pre;&quot;&gt;&lt;br&gt;&lt;/div&gt;" style="rounded=1;whiteSpace=wrap;html=1;arcSize=46;container=0;fontSize=17;strokeWidth=3;fillColor=none;" parent="1" vertex="1">
          <mxGeometry x="4898.83" y="4500.77" width="148.59" height="35.18" as="geometry" />
        </mxCell>
        <mxCell id="iMzeJBbJIZaKQnCHU_Ai-185" value="" style="endArrow=classic;html=1;rounded=0;strokeWidth=3.5;strokeColor=#000000;endFill=1;" parent="1" edge="1">
          <mxGeometry width="50" height="50" relative="1" as="geometry">
            <mxPoint x="4869.42" y="4719.77" as="sourcePoint" />
            <mxPoint x="5070.42" y="4719.77" as="targetPoint" />
          </mxGeometry>
        </mxCell>
        <mxCell id="iMzeJBbJIZaKQnCHU_Ai-186" value="" style="endArrow=none;html=1;rounded=0;strokeWidth=3.5;strokeColor=#000000;endFill=0;startArrow=classic;startFill=1;" parent="1" edge="1">
          <mxGeometry width="50" height="50" relative="1" as="geometry">
            <mxPoint x="4870.42" y="4520.77" as="sourcePoint" />
            <mxPoint x="4870.42" y="4720.77" as="targetPoint" />
          </mxGeometry>
        </mxCell>
        <mxCell id="iMzeJBbJIZaKQnCHU_Ai-187" value="&lt;font face=&quot;Comic Sans MS&quot;&gt;&lt;span&gt;&lt;b&gt;0&lt;/b&gt;&lt;/span&gt;&lt;/font&gt;" style="rounded=1;whiteSpace=wrap;html=1;fillColor=none;strokeColor=none;fontColor=#000000;arcSize=18;container=0;fontSize=18;" parent="1" vertex="1">
          <mxGeometry x="4830.416341066341" y="4724.76908260279" width="37.332276353276384" height="28.99265341400174" as="geometry" />
        </mxCell>
        <mxCell id="iMzeJBbJIZaKQnCHU_Ai-188" value="&lt;font face=&quot;Comic Sans MS&quot;&gt;&lt;span&gt;&lt;b&gt;1&lt;/b&gt;&lt;/span&gt;&lt;/font&gt;" style="rounded=1;whiteSpace=wrap;html=1;fillColor=none;strokeColor=none;fontColor=#000000;arcSize=18;container=0;fontSize=18;" parent="1" vertex="1">
          <mxGeometry x="4990.416341066341" y="4727.76908260279" width="37.332276353276384" height="28.99265341400174" as="geometry" />
        </mxCell>
        <mxCell id="iMzeJBbJIZaKQnCHU_Ai-189" value="&lt;font face=&quot;Comic Sans MS&quot;&gt;&lt;span&gt;&lt;b&gt;1&lt;/b&gt;&lt;/span&gt;&lt;/font&gt;" style="rounded=1;whiteSpace=wrap;html=1;fillColor=none;strokeColor=none;fontColor=#000000;arcSize=18;container=0;fontSize=18;" parent="1" vertex="1">
          <mxGeometry x="4830.416341066341" y="4562.21908260279" width="37.332276353276384" height="28.99265341400174" as="geometry" />
        </mxCell>
        <mxCell id="iMzeJBbJIZaKQnCHU_Ai-190" value="" style="ellipse;whiteSpace=wrap;html=1;aspect=fixed;strokeWidth=2;" parent="1" vertex="1">
          <mxGeometry x="4864.42" y="4713.75" width="13" height="13" as="geometry" />
        </mxCell>
        <mxCell id="iMzeJBbJIZaKQnCHU_Ai-191" value="" style="ellipse;whiteSpace=wrap;html=1;aspect=fixed;strokeWidth=2;fillColor=#FF00FF;" parent="1" vertex="1">
          <mxGeometry x="5002.58" y="4713.47" width="13" height="13" as="geometry" />
        </mxCell>
        <mxCell id="iMzeJBbJIZaKQnCHU_Ai-192" value="" style="ellipse;whiteSpace=wrap;html=1;aspect=fixed;strokeWidth=2;fillColor=#FF00FF;" parent="1" vertex="1">
          <mxGeometry x="4864.42" y="4569.76" width="13" height="13" as="geometry" />
        </mxCell>
        <mxCell id="iMzeJBbJIZaKQnCHU_Ai-194" value="" style="ellipse;whiteSpace=wrap;html=1;aspect=fixed;strokeWidth=2;fillColor=#FFFFFF;" parent="1" vertex="1">
          <mxGeometry x="5002.58" y="4570.22" width="13" height="13" as="geometry" />
        </mxCell>
        <mxCell id="iMzeJBbJIZaKQnCHU_Ai-195" value="" style="group" parent="1" vertex="1" connectable="0">
          <mxGeometry x="4823.996341066341" y="4513.00908260279" width="51.912276353275956" height="40.46265341400067" as="geometry" />
        </mxCell>
        <mxCell id="iMzeJBbJIZaKQnCHU_Ai-196" value="&lt;font style=&quot;font-size: 26px;&quot; face=&quot;Comic Sans MS&quot;&gt;&lt;b style=&quot;&quot;&gt;x&lt;/b&gt;&lt;/font&gt;" style="rounded=1;whiteSpace=wrap;html=1;fillColor=none;strokeColor=none;fontColor=#000000;arcSize=18;container=0;fontSize=18;" parent="iMzeJBbJIZaKQnCHU_Ai-195" vertex="1">
          <mxGeometry x="-4" width="37.332276353276384" height="28.99265341400174" as="geometry" />
        </mxCell>
        <mxCell id="iMzeJBbJIZaKQnCHU_Ai-197" value="&lt;font style=&quot;font-size: 16px;&quot; face=&quot;Comic Sans MS&quot;&gt;&lt;b style=&quot;&quot;&gt;1&lt;/b&gt;&lt;/font&gt;" style="rounded=1;whiteSpace=wrap;html=1;fillColor=none;strokeColor=none;fontColor=#000000;arcSize=18;container=0;fontSize=18;" parent="iMzeJBbJIZaKQnCHU_Ai-195" vertex="1">
          <mxGeometry x="11.289999999999928" y="16.939999999999344" width="37.332276353276384" height="28.99265341400174" as="geometry" />
        </mxCell>
        <mxCell id="iMzeJBbJIZaKQnCHU_Ai-198" value="" style="group" parent="1" vertex="1" connectable="0">
          <mxGeometry x="5030.416341066341" y="4722.76908260279" width="51.912276353275956" height="40.46265341400067" as="geometry" />
        </mxCell>
        <mxCell id="iMzeJBbJIZaKQnCHU_Ai-199" value="&lt;font style=&quot;font-size: 26px;&quot; face=&quot;Comic Sans MS&quot;&gt;&lt;b style=&quot;&quot;&gt;x&lt;/b&gt;&lt;/font&gt;" style="rounded=1;whiteSpace=wrap;html=1;fillColor=none;strokeColor=none;fontColor=#000000;arcSize=18;container=0;fontSize=18;" parent="iMzeJBbJIZaKQnCHU_Ai-198" vertex="1">
          <mxGeometry width="37.332276353276384" height="28.99265341400174" as="geometry" />
        </mxCell>
        <mxCell id="iMzeJBbJIZaKQnCHU_Ai-200" value="&lt;font style=&quot;font-size: 16px;&quot; face=&quot;Comic Sans MS&quot;&gt;&lt;b style=&quot;&quot;&gt;2&lt;/b&gt;&lt;/font&gt;" style="rounded=1;whiteSpace=wrap;html=1;fillColor=none;strokeColor=none;fontColor=#000000;arcSize=18;container=0;fontSize=18;" parent="iMzeJBbJIZaKQnCHU_Ai-198" vertex="1">
          <mxGeometry x="14.579999999999927" y="11.469999999999345" width="37.332276353276384" height="28.99265341400174" as="geometry" />
        </mxCell>
        <mxCell id="iMzeJBbJIZaKQnCHU_Ai-201" value="" style="group" parent="1" vertex="1" connectable="0">
          <mxGeometry x="4904.416341066341" y="4499.76908260279" width="141.91227635327596" height="40.46265341400067" as="geometry" />
        </mxCell>
        <mxCell id="iMzeJBbJIZaKQnCHU_Ai-202" value="" style="group" parent="iMzeJBbJIZaKQnCHU_Ai-201" vertex="1" connectable="0">
          <mxGeometry width="51.912276353275956" height="40.46265341400067" as="geometry" />
        </mxCell>
        <mxCell id="iMzeJBbJIZaKQnCHU_Ai-203" value="&lt;font style=&quot;font-size: 26px;&quot; face=&quot;Comic Sans MS&quot;&gt;&lt;b style=&quot;&quot;&gt;x&lt;/b&gt;&lt;/font&gt;" style="rounded=1;whiteSpace=wrap;html=1;fillColor=none;strokeColor=none;fontColor=#000000;arcSize=18;container=0;fontSize=18;" parent="iMzeJBbJIZaKQnCHU_Ai-202" vertex="1">
          <mxGeometry width="37.332276353276384" height="28.99265341400174" as="geometry" />
        </mxCell>
        <mxCell id="iMzeJBbJIZaKQnCHU_Ai-204" value="&lt;font style=&quot;font-size: 16px;&quot; face=&quot;Comic Sans MS&quot;&gt;&lt;b style=&quot;&quot;&gt;1&lt;/b&gt;&lt;/font&gt;" style="rounded=1;whiteSpace=wrap;html=1;fillColor=none;strokeColor=none;fontColor=#000000;arcSize=18;container=0;fontSize=18;" parent="iMzeJBbJIZaKQnCHU_Ai-202" vertex="1">
          <mxGeometry x="14.579999999999927" y="11.469999999999345" width="37.332276353276384" height="28.99265341400174" as="geometry" />
        </mxCell>
        <mxCell id="iMzeJBbJIZaKQnCHU_Ai-205" value="" style="group" parent="iMzeJBbJIZaKQnCHU_Ai-201" vertex="1" connectable="0">
          <mxGeometry x="90" width="51.912276353275956" height="40.46265341400067" as="geometry" />
        </mxCell>
        <mxCell id="iMzeJBbJIZaKQnCHU_Ai-206" value="&lt;font style=&quot;font-size: 26px;&quot; face=&quot;Comic Sans MS&quot;&gt;&lt;b style=&quot;&quot;&gt;x&lt;/b&gt;&lt;/font&gt;" style="rounded=1;whiteSpace=wrap;html=1;fillColor=none;strokeColor=none;fontColor=#000000;arcSize=18;container=0;fontSize=18;" parent="iMzeJBbJIZaKQnCHU_Ai-205" vertex="1">
          <mxGeometry width="37.332276353276384" height="28.99265341400174" as="geometry" />
        </mxCell>
        <mxCell id="iMzeJBbJIZaKQnCHU_Ai-207" value="&lt;font style=&quot;font-size: 16px;&quot; face=&quot;Comic Sans MS&quot;&gt;&lt;b style=&quot;&quot;&gt;2&lt;/b&gt;&lt;/font&gt;" style="rounded=1;whiteSpace=wrap;html=1;fillColor=none;strokeColor=none;fontColor=#000000;arcSize=18;container=0;fontSize=18;" parent="iMzeJBbJIZaKQnCHU_Ai-205" vertex="1">
          <mxGeometry x="14.579999999999927" y="11.469999999999345" width="37.332276353276384" height="28.99265341400174" as="geometry" />
        </mxCell>
        <mxCell id="iMzeJBbJIZaKQnCHU_Ai-208" value="&lt;font style=&quot;font-size: 24px;&quot; face=&quot;Comic Sans MS&quot;&gt;&lt;b style=&quot;&quot;&gt;xor&lt;/b&gt;&lt;/font&gt;" style="rounded=1;whiteSpace=wrap;html=1;fillColor=none;strokeColor=none;fontColor=#000000;arcSize=18;container=0;fontSize=18;" parent="iMzeJBbJIZaKQnCHU_Ai-201" vertex="1">
          <mxGeometry x="49.67000000000007" y="2.1899999999996" width="37.332276353276384" height="28.99265341400174" as="geometry" />
        </mxCell>
        <mxCell id="iMzeJBbJIZaKQnCHU_Ai-209" value="&lt;font style=&quot;font-size: 26px;&quot; face=&quot;Comic Sans MS&quot;&gt;&lt;b style=&quot;&quot;&gt;?&lt;/b&gt;&lt;/font&gt;" style="rounded=1;whiteSpace=wrap;html=1;fillColor=none;strokeColor=none;fontColor=#000000;arcSize=18;container=0;fontSize=18;" parent="1" vertex="1">
          <mxGeometry x="4919.996341066341" y="4645.46908260279" width="37.332276353276384" height="28.99265341400174" as="geometry" />
        </mxCell>
        <mxCell id="iMzeJBbJIZaKQnCHU_Ai-210" value="&lt;div style=&quot;line-height: 19px;&quot;&gt;&lt;font style=&quot;font-size: 15px;&quot; face=&quot;Comic Sans MS&quot;&gt;&lt;b style=&quot;&quot;&gt;Linearly Seperable Function AND&lt;/b&gt;&lt;/font&gt;&lt;/div&gt;" style="rounded=1;whiteSpace=wrap;html=1;arcSize=46;container=0;fontSize=17;strokeWidth=3;fillColor=#CCFFFF;" parent="1" vertex="1">
          <mxGeometry x="4270" y="4462" width="260" height="26.5" as="geometry" />
        </mxCell>
        <mxCell id="iMzeJBbJIZaKQnCHU_Ai-212" value="&lt;div style=&quot;line-height: 19px;&quot;&gt;&lt;font style=&quot;font-size: 15px;&quot; face=&quot;Comic Sans MS&quot;&gt;&lt;b style=&quot;&quot;&gt;Linearly Seperable Function OR&lt;/b&gt;&lt;/font&gt;&lt;/div&gt;" style="rounded=1;whiteSpace=wrap;html=1;arcSize=46;container=0;fontSize=17;strokeWidth=3;fillColor=#CCFFFF;" parent="1" vertex="1">
          <mxGeometry x="4546.91" y="4461" width="260" height="26.5" as="geometry" />
        </mxCell>
        <mxCell id="iMzeJBbJIZaKQnCHU_Ai-213" value="&lt;div style=&quot;line-height: 19px;&quot;&gt;&lt;font style=&quot;font-size: 15px;&quot; face=&quot;Comic Sans MS&quot;&gt;&lt;b style=&quot;&quot;&gt;Non-Linear Function XOR&lt;/b&gt;&lt;/font&gt;&lt;/div&gt;" style="rounded=1;whiteSpace=wrap;html=1;arcSize=46;container=0;fontSize=17;strokeWidth=3;fillColor=#CCFFFF;" parent="1" vertex="1">
          <mxGeometry x="4832" y="4461" width="246" height="26.5" as="geometry" />
        </mxCell>
        <mxCell id="iMzeJBbJIZaKQnCHU_Ai-214" value="&lt;div style=&quot;text-align: justify;&quot;&gt;&lt;br&gt;&lt;/div&gt;" style="rounded=1;whiteSpace=wrap;html=1;fillColor=none;strokeColor=none;fontColor=#FFFFFF;arcSize=7;container=0;fontSize=16;spacing=15;" parent="1" vertex="1">
          <mxGeometry x="4268.84" y="4800" width="46.58" height="302" as="geometry" />
        </mxCell>
        <mxCell id="iMzeJBbJIZaKQnCHU_Ai-215" value="" style="endArrow=none;html=1;rounded=0;strokeWidth=5;strokeColor=#000000;endFill=0;" parent="1" edge="1">
          <mxGeometry width="50" height="50" relative="1" as="geometry">
            <mxPoint x="4377.620773300773" y="5087.100135819237" as="sourcePoint" />
            <mxPoint x="4377.42" y="4870" as="targetPoint" />
          </mxGeometry>
        </mxCell>
        <mxCell id="iMzeJBbJIZaKQnCHU_Ai-216" value="" style="endArrow=none;html=1;rounded=0;strokeWidth=5;strokeColor=#000000;endFill=0;" parent="1" edge="1">
          <mxGeometry width="50" height="50" relative="1" as="geometry">
            <mxPoint x="4377.216508750508" y="5085.179843190517" as="sourcePoint" />
            <mxPoint x="4656.42" y="5085" as="targetPoint" />
          </mxGeometry>
        </mxCell>
        <mxCell id="iMzeJBbJIZaKQnCHU_Ai-217" value="&lt;font face=&quot;Comic Sans MS&quot;&gt;&lt;span&gt;&lt;b&gt;0&lt;/b&gt;&lt;/span&gt;&lt;/font&gt;" style="rounded=1;whiteSpace=wrap;html=1;fillColor=none;strokeColor=none;fontColor=#000000;arcSize=18;container=0;fontSize=18;" parent="1" vertex="1">
          <mxGeometry x="4339.99634106634" y="5097.00908260279" width="37.332276353276384" height="28.99265341400174" as="geometry" />
        </mxCell>
        <mxCell id="iMzeJBbJIZaKQnCHU_Ai-220" value="&lt;font face=&quot;Comic Sans MS&quot;&gt;&lt;span&gt;&lt;b&gt;3&lt;/b&gt;&lt;/span&gt;&lt;/font&gt;" style="rounded=1;whiteSpace=wrap;html=1;fillColor=none;strokeColor=none;fontColor=#000000;arcSize=18;container=0;fontSize=18;" parent="1" vertex="1">
          <mxGeometry x="4489.190911680912" y="5101.9573465859985" width="37.332276353276384" height="28.99265341400174" as="geometry" />
        </mxCell>
        <mxCell id="iMzeJBbJIZaKQnCHU_Ai-222" value="&lt;font face=&quot;Comic Sans MS&quot;&gt;&lt;span&gt;&lt;b&gt;6&lt;/b&gt;&lt;/span&gt;&lt;/font&gt;" style="rounded=1;whiteSpace=wrap;html=1;fillColor=none;strokeColor=none;fontColor=#000000;arcSize=18;container=0;fontSize=18;" parent="1" vertex="1">
          <mxGeometry x="4608.417723646722" y="5101.9573465859985" width="37.332276353276384" height="28.99265341400174" as="geometry" />
        </mxCell>
        <mxCell id="iMzeJBbJIZaKQnCHU_Ai-223" value="&lt;font face=&quot;Comic Sans MS&quot;&gt;&lt;span&gt;&lt;b&gt;3&lt;/b&gt;&lt;/span&gt;&lt;/font&gt;" style="rounded=1;whiteSpace=wrap;html=1;fillColor=none;strokeColor=none;fontColor=#000000;arcSize=18;container=0;fontSize=18;" parent="1" vertex="1">
          <mxGeometry x="4330" y="4978" width="30.75" height="28.99" as="geometry" />
        </mxCell>
        <mxCell id="iMzeJBbJIZaKQnCHU_Ai-224" value="&lt;font style=&quot;font-size: 19px;&quot; face=&quot;Comic Sans MS&quot;&gt;&lt;span&gt;&lt;b&gt;6&lt;/b&gt;&lt;/span&gt;&lt;/font&gt;" style="rounded=1;whiteSpace=wrap;html=1;fillColor=none;strokeColor=none;fontColor=#000000;arcSize=18;container=0;fontSize=18;" parent="1" vertex="1">
          <mxGeometry x="4329.419999999999" y="4885.002094085689" width="37.332276353276384" height="28.99265341400174" as="geometry" />
        </mxCell>
        <mxCell id="iMzeJBbJIZaKQnCHU_Ai-225" value="" style="endArrow=none;html=1;rounded=0;strokeWidth=5;strokeColor=#000000;endFill=0;" parent="1" edge="1">
          <mxGeometry width="50" height="50" relative="1" as="geometry">
            <mxPoint x="4378.42" y="4899" as="sourcePoint" />
            <mxPoint x="4364.42" y="4899" as="targetPoint" />
          </mxGeometry>
        </mxCell>
        <mxCell id="iMzeJBbJIZaKQnCHU_Ai-226" value="" style="endArrow=none;html=1;rounded=0;strokeWidth=5;strokeColor=#000000;endFill=0;" parent="1" edge="1">
          <mxGeometry width="50" height="50" relative="1" as="geometry">
            <mxPoint x="4377.15" y="4992.36" as="sourcePoint" />
            <mxPoint x="4363.15" y="4992.36" as="targetPoint" />
          </mxGeometry>
        </mxCell>
        <mxCell id="iMzeJBbJIZaKQnCHU_Ai-229" value="" style="endArrow=none;html=1;rounded=0;strokeWidth=5;strokeColor=#000000;endFill=0;" parent="1" edge="1">
          <mxGeometry width="50" height="50" relative="1" as="geometry">
            <mxPoint x="4507.42" y="5100.96" as="sourcePoint" />
            <mxPoint x="4507.42" y="5086.96" as="targetPoint" />
          </mxGeometry>
        </mxCell>
        <mxCell id="iMzeJBbJIZaKQnCHU_Ai-231" value="" style="endArrow=none;html=1;rounded=0;strokeWidth=5;strokeColor=#000000;endFill=0;" parent="1" edge="1">
          <mxGeometry width="50" height="50" relative="1" as="geometry">
            <mxPoint x="4627.85" y="5100.77" as="sourcePoint" />
            <mxPoint x="4627.85" y="5086.77" as="targetPoint" />
          </mxGeometry>
        </mxCell>
        <mxCell id="iMzeJBbJIZaKQnCHU_Ai-232" value="&lt;div style=&quot;line-height: 19px; white-space: pre;&quot;&gt;&lt;b style=&quot;font-family: &amp;quot;Comic Sans MS&amp;quot;; font-size: 18px; white-space: normal;&quot;&gt;Seperable Cases&lt;/b&gt;&lt;br&gt;&lt;/div&gt;" style="rounded=1;whiteSpace=wrap;html=1;arcSize=46;container=0;fontSize=17;strokeWidth=3;" parent="1" vertex="1">
          <mxGeometry x="4433.7" y="4790" width="187.5" height="26.5" as="geometry" />
        </mxCell>
        <mxCell id="iMzeJBbJIZaKQnCHU_Ai-251" value="&lt;div style=&quot;line-height: 19px; white-space: pre;&quot;&gt;&lt;b style=&quot;font-family: &amp;quot;Comic Sans MS&amp;quot;; font-size: 18px; white-space: normal;&quot;&gt;Non-Seperable Cases&lt;/b&gt;&lt;br&gt;&lt;/div&gt;" style="rounded=1;whiteSpace=wrap;html=1;arcSize=46;container=0;fontSize=17;strokeWidth=3;" parent="1" vertex="1">
          <mxGeometry x="4766.76" y="4790" width="218.2" height="26.5" as="geometry" />
        </mxCell>
        <mxCell id="iMzeJBbJIZaKQnCHU_Ai-253" value="&lt;div style=&quot;text-align: justify;&quot;&gt;&lt;br&gt;&lt;/div&gt;" style="rounded=1;whiteSpace=wrap;html=1;fillColor=none;strokeColor=none;fontColor=#FFFFFF;arcSize=7;container=0;fontSize=16;spacing=15;" parent="1" vertex="1">
          <mxGeometry x="5031.42" y="4802" width="46.58" height="300" as="geometry" />
        </mxCell>
        <mxCell id="iMzeJBbJIZaKQnCHU_Ai-254" value="&lt;div style=&quot;line-height: 19px; white-space: pre;&quot;&gt;&lt;b style=&quot;font-family: &amp;quot;Comic Sans MS&amp;quot;; font-size: 18px; white-space: normal;&quot;&gt;Always Converges&lt;/b&gt;&lt;br&gt;&lt;/div&gt;" style="rounded=1;whiteSpace=wrap;html=1;arcSize=46;container=0;fontSize=17;strokeWidth=3;fillColor=#E6FFCC;" parent="1" vertex="1">
          <mxGeometry x="4433.7" y="4823.5" width="187.5" height="26.5" as="geometry" />
        </mxCell>
        <mxCell id="iMzeJBbJIZaKQnCHU_Ai-255" value="&lt;div style=&quot;line-height: 19px; white-space: pre;&quot;&gt;&lt;b style=&quot;font-family: &amp;quot;Comic Sans MS&amp;quot;; font-size: 18px; white-space: normal;&quot;&gt;Will Never Converge&lt;/b&gt;&lt;br&gt;&lt;/div&gt;" style="rounded=1;whiteSpace=wrap;html=1;arcSize=46;container=0;fontSize=17;strokeWidth=3;fillColor=#FFCCCC;" parent="1" vertex="1">
          <mxGeometry x="4766.76" y="4823.31" width="218.24" height="26.5" as="geometry" />
        </mxCell>
        <mxCell id="iMzeJBbJIZaKQnCHU_Ai-266" value="" style="endArrow=none;html=1;rounded=0;strokeWidth=5;strokeColor=#000000;endFill=0;" parent="1" edge="1">
          <mxGeometry width="50" height="50" relative="1" as="geometry">
            <mxPoint x="4733.780773300773" y="5087.100135819237" as="sourcePoint" />
            <mxPoint x="4733.58" y="4870" as="targetPoint" />
          </mxGeometry>
        </mxCell>
        <mxCell id="iMzeJBbJIZaKQnCHU_Ai-267" value="" style="endArrow=none;html=1;rounded=0;strokeWidth=5;strokeColor=#000000;endFill=0;" parent="1" edge="1">
          <mxGeometry width="50" height="50" relative="1" as="geometry">
            <mxPoint x="4733.376508750508" y="5085.179843190517" as="sourcePoint" />
            <mxPoint x="5012.58" y="5085" as="targetPoint" />
          </mxGeometry>
        </mxCell>
        <mxCell id="iMzeJBbJIZaKQnCHU_Ai-268" value="&lt;font face=&quot;Comic Sans MS&quot;&gt;&lt;span&gt;&lt;b&gt;0&lt;/b&gt;&lt;/span&gt;&lt;/font&gt;" style="rounded=1;whiteSpace=wrap;html=1;fillColor=none;strokeColor=none;fontColor=#000000;arcSize=18;container=0;fontSize=18;" parent="1" vertex="1">
          <mxGeometry x="4696.15634106634" y="5097.00908260279" width="37.332276353276384" height="28.99265341400174" as="geometry" />
        </mxCell>
        <mxCell id="iMzeJBbJIZaKQnCHU_Ai-269" value="&lt;font face=&quot;Comic Sans MS&quot;&gt;&lt;span&gt;&lt;b&gt;3&lt;/b&gt;&lt;/span&gt;&lt;/font&gt;" style="rounded=1;whiteSpace=wrap;html=1;fillColor=none;strokeColor=none;fontColor=#000000;arcSize=18;container=0;fontSize=18;" parent="1" vertex="1">
          <mxGeometry x="4845.350911680912" y="5101.9573465859985" width="37.332276353276384" height="28.99265341400174" as="geometry" />
        </mxCell>
        <mxCell id="iMzeJBbJIZaKQnCHU_Ai-270" value="&lt;font face=&quot;Comic Sans MS&quot;&gt;&lt;span&gt;&lt;b&gt;6&lt;/b&gt;&lt;/span&gt;&lt;/font&gt;" style="rounded=1;whiteSpace=wrap;html=1;fillColor=none;strokeColor=none;fontColor=#000000;arcSize=18;container=0;fontSize=18;" parent="1" vertex="1">
          <mxGeometry x="4964.577723646722" y="5101.9573465859985" width="37.332276353276384" height="28.99265341400174" as="geometry" />
        </mxCell>
        <mxCell id="iMzeJBbJIZaKQnCHU_Ai-271" value="&lt;font face=&quot;Comic Sans MS&quot;&gt;&lt;span&gt;&lt;b&gt;3&lt;/b&gt;&lt;/span&gt;&lt;/font&gt;" style="rounded=1;whiteSpace=wrap;html=1;fillColor=none;strokeColor=none;fontColor=#000000;arcSize=18;container=0;fontSize=18;" parent="1" vertex="1">
          <mxGeometry x="4686.16" y="4978" width="30.75" height="28.99" as="geometry" />
        </mxCell>
        <mxCell id="iMzeJBbJIZaKQnCHU_Ai-272" value="&lt;font style=&quot;font-size: 19px;&quot; face=&quot;Comic Sans MS&quot;&gt;&lt;span&gt;&lt;b&gt;6&lt;/b&gt;&lt;/span&gt;&lt;/font&gt;" style="rounded=1;whiteSpace=wrap;html=1;fillColor=none;strokeColor=none;fontColor=#000000;arcSize=18;container=0;fontSize=18;" parent="1" vertex="1">
          <mxGeometry x="4685.579999999999" y="4885.002094085689" width="37.332276353276384" height="28.99265341400174" as="geometry" />
        </mxCell>
        <mxCell id="iMzeJBbJIZaKQnCHU_Ai-273" value="" style="endArrow=none;html=1;rounded=0;strokeWidth=5;strokeColor=#000000;endFill=0;" parent="1" edge="1">
          <mxGeometry width="50" height="50" relative="1" as="geometry">
            <mxPoint x="4734.58" y="4899" as="sourcePoint" />
            <mxPoint x="4720.58" y="4899" as="targetPoint" />
          </mxGeometry>
        </mxCell>
        <mxCell id="iMzeJBbJIZaKQnCHU_Ai-274" value="" style="endArrow=none;html=1;rounded=0;strokeWidth=5;strokeColor=#000000;endFill=0;" parent="1" edge="1">
          <mxGeometry width="50" height="50" relative="1" as="geometry">
            <mxPoint x="4733.3099999999995" y="4992.36" as="sourcePoint" />
            <mxPoint x="4719.3099999999995" y="4992.36" as="targetPoint" />
          </mxGeometry>
        </mxCell>
        <mxCell id="iMzeJBbJIZaKQnCHU_Ai-275" value="" style="endArrow=none;html=1;rounded=0;strokeWidth=5;strokeColor=#000000;endFill=0;" parent="1" edge="1">
          <mxGeometry width="50" height="50" relative="1" as="geometry">
            <mxPoint x="4863.58" y="5100.96" as="sourcePoint" />
            <mxPoint x="4863.58" y="5086.96" as="targetPoint" />
          </mxGeometry>
        </mxCell>
        <mxCell id="iMzeJBbJIZaKQnCHU_Ai-276" value="" style="endArrow=none;html=1;rounded=0;strokeWidth=5;strokeColor=#000000;endFill=0;" parent="1" edge="1">
          <mxGeometry width="50" height="50" relative="1" as="geometry">
            <mxPoint x="4984.01" y="5100.77" as="sourcePoint" />
            <mxPoint x="4984.01" y="5086.77" as="targetPoint" />
          </mxGeometry>
        </mxCell>
        <mxCell id="iMzeJBbJIZaKQnCHU_Ai-277" value="" style="endArrow=none;html=1;rounded=0;strokeWidth=4;strokeColor=#336600;endFill=0;" parent="1" edge="1">
          <mxGeometry width="50" height="50" relative="1" as="geometry">
            <mxPoint x="4383" y="5079" as="sourcePoint" />
            <mxPoint x="4634" y="4885" as="targetPoint" />
          </mxGeometry>
        </mxCell>
        <mxCell id="iMzeJBbJIZaKQnCHU_Ai-278" value="" style="ellipse;whiteSpace=wrap;html=1;aspect=fixed;strokeWidth=2;fillColor=#FF00FF;" parent="1" vertex="1">
          <mxGeometry x="4420.7" y="4983.5" width="13" height="13" as="geometry" />
        </mxCell>
        <mxCell id="iMzeJBbJIZaKQnCHU_Ai-279" value="" style="ellipse;whiteSpace=wrap;html=1;aspect=fixed;strokeWidth=2;fillColor=#FF00FF;" parent="1" vertex="1">
          <mxGeometry x="4433.7" y="4906.81" width="13" height="13" as="geometry" />
        </mxCell>
        <mxCell id="iMzeJBbJIZaKQnCHU_Ai-280" value="" style="ellipse;whiteSpace=wrap;html=1;aspect=fixed;strokeWidth=2;fillColor=#FF00FF;" parent="1" vertex="1">
          <mxGeometry x="4476.19" y="4950" width="13" height="13" as="geometry" />
        </mxCell>
        <mxCell id="iMzeJBbJIZaKQnCHU_Ai-281" value="" style="ellipse;whiteSpace=wrap;html=1;aspect=fixed;strokeWidth=2;fillColor=#FF00FF;" parent="1" vertex="1">
          <mxGeometry x="4524" y="4907" width="13" height="13" as="geometry" />
        </mxCell>
        <mxCell id="iMzeJBbJIZaKQnCHU_Ai-282" value="" style="ellipse;whiteSpace=wrap;html=1;aspect=fixed;strokeWidth=2;fillColor=#80FF00;" parent="1" vertex="1">
          <mxGeometry x="4500.099999999999" y="5026.5" width="13" height="13" as="geometry" />
        </mxCell>
        <mxCell id="iMzeJBbJIZaKQnCHU_Ai-283" value="" style="ellipse;whiteSpace=wrap;html=1;aspect=fixed;strokeWidth=2;fillColor=#80FF00;" parent="1" vertex="1">
          <mxGeometry x="4555" y="4996.8" width="13" height="13" as="geometry" />
        </mxCell>
        <mxCell id="iMzeJBbJIZaKQnCHU_Ai-284" value="" style="ellipse;whiteSpace=wrap;html=1;aspect=fixed;strokeWidth=2;fillColor=#80FF00;" parent="1" vertex="1">
          <mxGeometry x="4602" y="4960" width="13" height="13" as="geometry" />
        </mxCell>
        <mxCell id="iMzeJBbJIZaKQnCHU_Ai-285" value="" style="ellipse;whiteSpace=wrap;html=1;aspect=fixed;strokeWidth=2;fillColor=#80FF00;" parent="1" vertex="1">
          <mxGeometry x="4570" y="5039.5" width="13" height="13" as="geometry" />
        </mxCell>
        <mxCell id="iMzeJBbJIZaKQnCHU_Ai-286" value="" style="ellipse;whiteSpace=wrap;html=1;aspect=fixed;strokeWidth=2;fillColor=#80FF00;" parent="1" vertex="1">
          <mxGeometry x="4608.2" y="5004.8" width="13" height="13" as="geometry" />
        </mxCell>
        <mxCell id="iMzeJBbJIZaKQnCHU_Ai-288" value="" style="endArrow=none;html=1;rounded=0;strokeWidth=4;strokeColor=#336600;endFill=0;" parent="1" edge="1">
          <mxGeometry width="50" height="50" relative="1" as="geometry">
            <mxPoint x="4740" y="5079" as="sourcePoint" />
            <mxPoint x="4991" y="4885" as="targetPoint" />
          </mxGeometry>
        </mxCell>
        <mxCell id="iMzeJBbJIZaKQnCHU_Ai-289" value="" style="ellipse;whiteSpace=wrap;html=1;aspect=fixed;strokeWidth=2;fillColor=#FF00FF;" parent="1" vertex="1">
          <mxGeometry x="4777.7" y="4983.5" width="13" height="13" as="geometry" />
        </mxCell>
        <mxCell id="iMzeJBbJIZaKQnCHU_Ai-290" value="" style="ellipse;whiteSpace=wrap;html=1;aspect=fixed;strokeWidth=2;fillColor=#FF00FF;" parent="1" vertex="1">
          <mxGeometry x="4790.7" y="4906.81" width="13" height="13" as="geometry" />
        </mxCell>
        <mxCell id="iMzeJBbJIZaKQnCHU_Ai-291" value="" style="ellipse;whiteSpace=wrap;html=1;aspect=fixed;strokeWidth=2;fillColor=#FF00FF;" parent="1" vertex="1">
          <mxGeometry x="4833.19" y="4950" width="13" height="13" as="geometry" />
        </mxCell>
        <mxCell id="iMzeJBbJIZaKQnCHU_Ai-292" value="" style="ellipse;whiteSpace=wrap;html=1;aspect=fixed;strokeWidth=2;fillColor=#FF00FF;" parent="1" vertex="1">
          <mxGeometry x="4869.68" y="4906.81" width="13" height="13" as="geometry" />
        </mxCell>
        <mxCell id="iMzeJBbJIZaKQnCHU_Ai-293" value="" style="ellipse;whiteSpace=wrap;html=1;aspect=fixed;strokeWidth=2;fillColor=#80FF00;" parent="1" vertex="1">
          <mxGeometry x="4833.19" y="5039.5" width="13" height="13" as="geometry" />
        </mxCell>
        <mxCell id="iMzeJBbJIZaKQnCHU_Ai-294" value="" style="ellipse;whiteSpace=wrap;html=1;aspect=fixed;strokeWidth=2;fillColor=#80FF00;" parent="1" vertex="1">
          <mxGeometry x="4907" y="4988.81" width="13" height="13" as="geometry" />
        </mxCell>
        <mxCell id="iMzeJBbJIZaKQnCHU_Ai-295" value="" style="ellipse;whiteSpace=wrap;html=1;aspect=fixed;strokeWidth=2;fillColor=#80FF00;" parent="1" vertex="1">
          <mxGeometry x="4907" y="4906.8099999999995" width="13" height="13" as="geometry" />
        </mxCell>
        <mxCell id="iMzeJBbJIZaKQnCHU_Ai-296" value="" style="ellipse;whiteSpace=wrap;html=1;aspect=fixed;strokeWidth=2;fillColor=#80FF00;" parent="1" vertex="1">
          <mxGeometry x="4927" y="5039.5" width="13" height="13" as="geometry" />
        </mxCell>
        <mxCell id="iMzeJBbJIZaKQnCHU_Ai-297" value="" style="ellipse;whiteSpace=wrap;html=1;aspect=fixed;strokeWidth=2;fillColor=#80FF00;" parent="1" vertex="1">
          <mxGeometry x="4965.2" y="5004.8" width="13" height="13" as="geometry" />
        </mxCell>
        <mxCell id="iMzeJBbJIZaKQnCHU_Ai-298" value="" style="ellipse;whiteSpace=wrap;html=1;aspect=fixed;strokeWidth=2;fillColor=#FF00FF;" parent="1" vertex="1">
          <mxGeometry x="4944.33" y="4963" width="13" height="13" as="geometry" />
        </mxCell>
        <mxCell id="iMzeJBbJIZaKQnCHU_Ai-300" value="" style="ellipse;whiteSpace=wrap;html=1;aspect=fixed;strokeWidth=2;fillColor=#FF00FF;" parent="1" vertex="1">
          <mxGeometry x="4877.42" y="5026.5" width="13" height="13" as="geometry" />
        </mxCell>
        <mxCell id="iMzeJBbJIZaKQnCHU_Ai-304" value="" style="endArrow=classic;html=1;rounded=0;strokeWidth=3.5;strokeColor=#000000;endFill=1;" parent="1" edge="1">
          <mxGeometry width="50" height="50" relative="1" as="geometry">
            <mxPoint x="4322" y="5438" as="sourcePoint" />
            <mxPoint x="4523" y="5438" as="targetPoint" />
          </mxGeometry>
        </mxCell>
        <mxCell id="iMzeJBbJIZaKQnCHU_Ai-305" value="" style="endArrow=none;html=1;rounded=0;strokeWidth=3.5;strokeColor=#000000;endFill=0;startArrow=classic;startFill=1;" parent="1" edge="1">
          <mxGeometry width="50" height="50" relative="1" as="geometry">
            <mxPoint x="4323" y="5239" as="sourcePoint" />
            <mxPoint x="4323" y="5439" as="targetPoint" />
          </mxGeometry>
        </mxCell>
        <mxCell id="iMzeJBbJIZaKQnCHU_Ai-306" value="&lt;font face=&quot;Comic Sans MS&quot;&gt;&lt;span&gt;&lt;b&gt;iterations&lt;/b&gt;&lt;/span&gt;&lt;/font&gt;" style="rounded=1;whiteSpace=wrap;html=1;fillColor=none;strokeColor=none;fontColor=#000000;arcSize=18;container=0;fontSize=18;" parent="1" vertex="1">
          <mxGeometry x="4398.366341066341" y="5444.76908260279" width="37.332276353276384" height="28.99265341400174" as="geometry" />
        </mxCell>
        <mxCell id="iMzeJBbJIZaKQnCHU_Ai-312" value="" style="endArrow=none;html=1;rounded=1;strokeWidth=3;strokeColor=#FF0000;endFill=0;curved=0;" parent="1" edge="1">
          <mxGeometry width="50" height="50" relative="1" as="geometry">
            <mxPoint x="4517" y="5267" as="sourcePoint" />
            <mxPoint x="4328" y="5434" as="targetPoint" />
            <Array as="points">
              <mxPoint x="4462" y="5270" />
              <mxPoint x="4382" y="5300" />
            </Array>
          </mxGeometry>
        </mxCell>
        <mxCell id="iMzeJBbJIZaKQnCHU_Ai-377" value="&lt;div style=&quot;line-height: 19px;&quot;&gt;&lt;font style=&quot;font-size: 16px;&quot; face=&quot;Comic Sans MS&quot;&gt;&lt;b style=&quot;&quot;&gt;Overfitting&lt;/b&gt;&lt;/font&gt;&lt;/div&gt;" style="rounded=1;whiteSpace=wrap;html=1;arcSize=46;container=0;fontSize=19;strokeWidth=3;fillColor=#001933;fontColor=#FFFFFF;" parent="1" vertex="1">
          <mxGeometry x="4334.996341066341" y="5197.99908260279" width="199.91" height="28.5" as="geometry" />
        </mxCell>
        <mxCell id="iMzeJBbJIZaKQnCHU_Ai-380" value="&lt;font face=&quot;Comic Sans MS&quot;&gt;&lt;span&gt;&lt;b&gt;accuracy&lt;/b&gt;&lt;/span&gt;&lt;/font&gt;" style="rounded=1;whiteSpace=wrap;html=1;fillColor=none;strokeColor=none;fontColor=#000000;arcSize=18;container=0;fontSize=18;rotation=-90;" parent="1" vertex="1">
          <mxGeometry x="4280.086341066341" y="5317.38908260279" width="37.332276353276384" height="28.99265341400174" as="geometry" />
        </mxCell>
        <mxCell id="iMzeJBbJIZaKQnCHU_Ai-381" value="" style="endArrow=none;html=1;rounded=1;strokeWidth=3;strokeColor=#0000CC;endFill=0;curved=0;" parent="1" edge="1">
          <mxGeometry width="50" height="50" relative="1" as="geometry">
            <mxPoint x="4514" y="5323" as="sourcePoint" />
            <mxPoint x="4332" y="5433" as="targetPoint" />
            <Array as="points">
              <mxPoint x="4472" y="5323" />
              <mxPoint x="4437" y="5319" />
              <mxPoint x="4407" y="5313" />
            </Array>
          </mxGeometry>
        </mxCell>
        <mxCell id="iMzeJBbJIZaKQnCHU_Ai-382" value="" style="endArrow=none;html=1;rounded=1;strokeWidth=3;strokeColor=#CC00CC;endFill=0;curved=0;" parent="1" edge="1">
          <mxGeometry width="50" height="50" relative="1" as="geometry">
            <mxPoint x="4513" y="5337" as="sourcePoint" />
            <mxPoint x="4335" y="5436" as="targetPoint" />
            <Array as="points">
              <mxPoint x="4485" y="5330" />
              <mxPoint x="4461" y="5333" />
              <mxPoint x="4437" y="5327" />
              <mxPoint x="4411" y="5323" />
            </Array>
          </mxGeometry>
        </mxCell>
        <mxCell id="iMzeJBbJIZaKQnCHU_Ai-384" value="&lt;font color=&quot;#cc0000&quot; face=&quot;Comic Sans MS&quot;&gt;&lt;span&gt;&lt;b&gt;training&lt;/b&gt;&lt;/span&gt;&lt;/font&gt;" style="rounded=1;whiteSpace=wrap;html=1;fillColor=none;strokeColor=none;fontColor=#000000;arcSize=18;container=0;fontSize=18;" parent="1" vertex="1">
          <mxGeometry x="4466.026341066341" y="5231.009082602791" width="37.332276353276384" height="28.99265341400174" as="geometry" />
        </mxCell>
        <mxCell id="iMzeJBbJIZaKQnCHU_Ai-385" value="&lt;font color=&quot;#0000cc&quot; face=&quot;Comic Sans MS&quot;&gt;&lt;b style=&quot;&quot;&gt;test&lt;/b&gt;&lt;/font&gt;" style="rounded=1;whiteSpace=wrap;html=1;fillColor=none;strokeColor=none;fontColor=#000000;arcSize=18;container=0;fontSize=18;" parent="1" vertex="1">
          <mxGeometry x="4464.766341066341" y="5288.399082602791" width="37.332276353276384" height="28.99265341400174" as="geometry" />
        </mxCell>
        <mxCell id="iMzeJBbJIZaKQnCHU_Ai-386" value="&lt;font color=&quot;#cc00cc&quot; face=&quot;Comic Sans MS&quot;&gt;&lt;b style=&quot;&quot;&gt;validation&lt;/b&gt;&lt;/font&gt;" style="rounded=1;whiteSpace=wrap;html=1;fillColor=none;strokeColor=none;fontColor=#000000;arcSize=18;container=0;fontSize=18;" parent="1" vertex="1">
          <mxGeometry x="4448.696341066341" y="5339.9990826027915" width="37.332276353276384" height="28.99265341400174" as="geometry" />
        </mxCell>
        <mxCell id="iMzeJBbJIZaKQnCHU_Ai-387" value="&lt;div style=&quot;line-height: 19px;&quot;&gt;&lt;font style=&quot;font-size: 16px;&quot; face=&quot;Comic Sans MS&quot;&gt;&lt;b style=&quot;&quot;&gt;Weights Thrash Around&lt;/b&gt;&lt;/font&gt;&lt;/div&gt;" style="rounded=1;whiteSpace=wrap;html=1;arcSize=46;container=0;fontSize=19;strokeWidth=3;fillColor=#001933;fontColor=#FFFFFF;" parent="1" vertex="1">
          <mxGeometry x="4579.79" y="5198" width="222.21" height="28.5" as="geometry" />
        </mxCell>
        <mxCell id="iMzeJBbJIZaKQnCHU_Ai-388" value="" style="endArrow=none;html=1;rounded=0;strokeWidth=5;strokeColor=#000000;endFill=0;" parent="1" edge="1">
          <mxGeometry width="50" height="50" relative="1" as="geometry">
            <mxPoint x="4672" y="5284" as="sourcePoint" />
            <mxPoint x="4772" y="5384" as="targetPoint" />
          </mxGeometry>
        </mxCell>
        <mxCell id="iMzeJBbJIZaKQnCHU_Ai-389" value="" style="endArrow=none;html=1;rounded=0;strokeWidth=5;strokeColor=#000000;endFill=0;" parent="1" edge="1">
          <mxGeometry width="50" height="50" relative="1" as="geometry">
            <mxPoint x="4591" y="5400" as="sourcePoint" />
            <mxPoint x="4722" y="5284" as="targetPoint" />
          </mxGeometry>
        </mxCell>
        <mxCell id="iMzeJBbJIZaKQnCHU_Ai-390" value="" style="ellipse;whiteSpace=wrap;html=1;aspect=fixed;strokeWidth=2;fillColor=#80FF00;" parent="1" vertex="1">
          <mxGeometry x="4724.91" y="5312.99" width="13" height="13" as="geometry" />
        </mxCell>
        <mxCell id="iMzeJBbJIZaKQnCHU_Ai-391" value="" style="ellipse;whiteSpace=wrap;html=1;aspect=fixed;strokeWidth=2;fillColor=#80FF00;" parent="1" vertex="1">
          <mxGeometry x="4765.91" y="5286.5" width="13" height="13" as="geometry" />
        </mxCell>
        <mxCell id="iMzeJBbJIZaKQnCHU_Ai-392" value="" style="ellipse;whiteSpace=wrap;html=1;aspect=fixed;strokeWidth=2;fillColor=#80FF00;" parent="1" vertex="1">
          <mxGeometry x="4729.16" y="5371.58" width="13" height="13" as="geometry" />
        </mxCell>
        <mxCell id="iMzeJBbJIZaKQnCHU_Ai-393" value="" style="ellipse;whiteSpace=wrap;html=1;aspect=fixed;strokeWidth=2;fillColor=#80FF00;" parent="1" vertex="1">
          <mxGeometry x="4772.11" y="5331.3" width="13" height="13" as="geometry" />
        </mxCell>
        <mxCell id="iMzeJBbJIZaKQnCHU_Ai-394" value="" style="ellipse;whiteSpace=wrap;html=1;aspect=fixed;strokeWidth=2;fillColor=#FF00FF;" parent="1" vertex="1">
          <mxGeometry x="4590.91" y="5301" width="13" height="13" as="geometry" />
        </mxCell>
        <mxCell id="iMzeJBbJIZaKQnCHU_Ai-395" value="" style="ellipse;whiteSpace=wrap;html=1;aspect=fixed;strokeWidth=2;fillColor=#FF00FF;" parent="1" vertex="1">
          <mxGeometry x="4647.3" y="5293.19" width="13" height="13" as="geometry" />
        </mxCell>
        <mxCell id="iMzeJBbJIZaKQnCHU_Ai-397" value="" style="ellipse;whiteSpace=wrap;html=1;aspect=fixed;strokeWidth=2;fillColor=#FF00FF;" parent="1" vertex="1">
          <mxGeometry x="4625.41" y="5330.3" width="13" height="13" as="geometry" />
        </mxCell>
        <mxCell id="iMzeJBbJIZaKQnCHU_Ai-398" value="" style="ellipse;whiteSpace=wrap;html=1;aspect=fixed;strokeWidth=2;fillColor=#FF00FF;" parent="1" vertex="1">
          <mxGeometry x="4585" y="5355.3" width="13" height="13" as="geometry" />
        </mxCell>
        <mxCell id="iMzeJBbJIZaKQnCHU_Ai-399" value="" style="ellipse;whiteSpace=wrap;html=1;aspect=fixed;strokeWidth=2;fillColor=#FF00FF;" parent="1" vertex="1">
          <mxGeometry x="4744" y="5335.62" width="13" height="13" as="geometry" />
        </mxCell>
        <mxCell id="iMzeJBbJIZaKQnCHU_Ai-400" value="" style="ellipse;whiteSpace=wrap;html=1;aspect=fixed;strokeWidth=2;fillColor=#FF00FF;" parent="1" vertex="1">
          <mxGeometry x="4677" y="5384.990000000001" width="13" height="13" as="geometry" />
        </mxCell>
        <mxCell id="iMzeJBbJIZaKQnCHU_Ai-401" value="" style="ellipse;whiteSpace=wrap;html=1;aspect=fixed;strokeWidth=2;fillColor=#80FF00;" parent="1" vertex="1">
          <mxGeometry x="4625.41" y="5382" width="13" height="13" as="geometry" />
        </mxCell>
        <mxCell id="iMzeJBbJIZaKQnCHU_Ai-402" value="" style="endArrow=classic;html=1;rounded=0;strokeWidth=3.5;strokeColor=#FF0000;endFill=1;startArrow=classic;startFill=1;" parent="1" edge="1">
          <mxGeometry width="50" height="50" relative="1" as="geometry">
            <mxPoint x="4651" y="5377" as="sourcePoint" />
            <mxPoint x="4716" y="5350" as="targetPoint" />
          </mxGeometry>
        </mxCell>
        <mxCell id="iMzeJBbJIZaKQnCHU_Ai-403" value="&lt;div style=&quot;line-height: 19px;&quot;&gt;&lt;font style=&quot;font-size: 16px;&quot; face=&quot;Comic Sans MS&quot;&gt;&lt;b style=&quot;&quot;&gt;Barely Separating Solution&lt;/b&gt;&lt;/font&gt;&lt;/div&gt;" style="rounded=1;whiteSpace=wrap;html=1;arcSize=46;container=0;fontSize=19;strokeWidth=3;fillColor=#001933;fontColor=#FFFFFF;" parent="1" vertex="1">
          <mxGeometry x="4827.21" y="5198.19" width="222.21" height="28.5" as="geometry" />
        </mxCell>
        <mxCell id="iMzeJBbJIZaKQnCHU_Ai-404" value="" style="endArrow=none;html=1;rounded=0;strokeWidth=5;strokeColor=#000000;endFill=0;" parent="1" edge="1">
          <mxGeometry width="50" height="50" relative="1" as="geometry">
            <mxPoint x="4929" y="5269" as="sourcePoint" />
            <mxPoint x="5019.42" y="5384.19" as="targetPoint" />
          </mxGeometry>
        </mxCell>
        <mxCell id="iMzeJBbJIZaKQnCHU_Ai-405" value="" style="endArrow=none;html=1;rounded=0;strokeWidth=5;strokeColor=#000000;endFill=0;" parent="1" edge="1">
          <mxGeometry width="50" height="50" relative="1" as="geometry">
            <mxPoint x="4970" y="5403" as="sourcePoint" />
            <mxPoint x="4910" y="5273" as="targetPoint" />
          </mxGeometry>
        </mxCell>
        <mxCell id="iMzeJBbJIZaKQnCHU_Ai-406" value="" style="ellipse;whiteSpace=wrap;html=1;aspect=fixed;strokeWidth=2;fillColor=#80FF00;" parent="1" vertex="1">
          <mxGeometry x="4957.33" y="5307.389999999999" width="13" height="13" as="geometry" />
        </mxCell>
        <mxCell id="iMzeJBbJIZaKQnCHU_Ai-407" value="" style="ellipse;whiteSpace=wrap;html=1;aspect=fixed;strokeWidth=2;fillColor=#80FF00;" parent="1" vertex="1">
          <mxGeometry x="5005.33" y="5281.99" width="13" height="13" as="geometry" />
        </mxCell>
        <mxCell id="iMzeJBbJIZaKQnCHU_Ai-408" value="" style="ellipse;whiteSpace=wrap;html=1;aspect=fixed;strokeWidth=2;fillColor=#80FF00;" parent="1" vertex="1">
          <mxGeometry x="4992.33" y="5352.999999999999" width="13" height="13" as="geometry" />
        </mxCell>
        <mxCell id="iMzeJBbJIZaKQnCHU_Ai-409" value="" style="ellipse;whiteSpace=wrap;html=1;aspect=fixed;strokeWidth=2;fillColor=#80FF00;" parent="1" vertex="1">
          <mxGeometry x="5036.42" y="5335" width="13" height="13" as="geometry" />
        </mxCell>
        <mxCell id="iMzeJBbJIZaKQnCHU_Ai-410" value="" style="ellipse;whiteSpace=wrap;html=1;aspect=fixed;strokeWidth=2;fillColor=#FF00FF;" parent="1" vertex="1">
          <mxGeometry x="4869.36" y="5318.49" width="13" height="13" as="geometry" />
        </mxCell>
        <mxCell id="iMzeJBbJIZaKQnCHU_Ai-411" value="" style="ellipse;whiteSpace=wrap;html=1;aspect=fixed;strokeWidth=2;fillColor=#FF00FF;" parent="1" vertex="1">
          <mxGeometry x="4894.72" y="5293.379999999999" width="13" height="13" as="geometry" />
        </mxCell>
        <mxCell id="iMzeJBbJIZaKQnCHU_Ai-412" value="" style="ellipse;whiteSpace=wrap;html=1;aspect=fixed;strokeWidth=2;fillColor=#FF00FF;" parent="1" vertex="1">
          <mxGeometry x="4904.42" y="5336.38" width="13" height="13" as="geometry" />
        </mxCell>
        <mxCell id="iMzeJBbJIZaKQnCHU_Ai-413" value="" style="ellipse;whiteSpace=wrap;html=1;aspect=fixed;strokeWidth=2;fillColor=#FF00FF;" parent="1" vertex="1">
          <mxGeometry x="4920" y="5382" width="13" height="13" as="geometry" />
        </mxCell>
        <mxCell id="iMzeJBbJIZaKQnCHU_Ai-416" value="" style="ellipse;whiteSpace=wrap;html=1;aspect=fixed;strokeWidth=2;fillColor=#80FF00;" parent="1" vertex="1">
          <mxGeometry x="4957.33" y="5268" width="13" height="13" as="geometry" />
        </mxCell>
        <mxCell id="iMzeJBbJIZaKQnCHU_Ai-419" value="" style="ellipse;whiteSpace=wrap;html=1;aspect=fixed;strokeWidth=2;fillColor=#FF00FF;" parent="1" vertex="1">
          <mxGeometry x="4869.679999999999" y="5367" width="13" height="13" as="geometry" />
        </mxCell>
        <mxCell id="iMzeJBbJIZaKQnCHU_Ai-422" value="" style="ellipse;whiteSpace=wrap;html=1;aspect=fixed;strokeWidth=2;fillColor=#80FF00;" parent="1" vertex="1">
          <mxGeometry x="4992.33" y="5307.389999999999" width="13" height="13" as="geometry" />
        </mxCell>
        <mxCell id="KcQZZSa5eiqiG7Eb298S-1" value="" style="ellipse;whiteSpace=wrap;html=1;aspect=fixed;strokeWidth=2;fillColor=#99FFFF;" parent="1" vertex="1">
          <mxGeometry x="5493" y="4545.65" width="81.29" height="81.29" as="geometry" />
        </mxCell>
        <mxCell id="KcQZZSa5eiqiG7Eb298S-2" value="&lt;font style=&quot;font-size: 20px;&quot; face=&quot;Comic Sans MS&quot;&gt;&lt;b style=&quot;&quot;&gt;w&lt;/b&gt;&lt;/font&gt;" style="rounded=1;whiteSpace=wrap;html=1;fillColor=none;strokeColor=none;fontColor=#000000;arcSize=18;container=0;fontSize=18;" parent="1" vertex="1">
          <mxGeometry x="5500.65" y="4571.8" width="30" height="28.99" as="geometry" />
        </mxCell>
        <mxCell id="KcQZZSa5eiqiG7Eb298S-3" value="" style="ellipse;whiteSpace=wrap;html=1;fillColor=#000000;" parent="1" vertex="1">
          <mxGeometry x="5531.879999999999" y="4586.3" width="4.77" height="4.91" as="geometry" />
        </mxCell>
        <mxCell id="KcQZZSa5eiqiG7Eb298S-4" value="&lt;font face=&quot;Comic Sans MS&quot;&gt;&lt;b&gt;&lt;font style=&quot;font-size: 20px;&quot;&gt;x&lt;/font&gt;&lt;/b&gt;&lt;/font&gt;" style="rounded=1;whiteSpace=wrap;html=1;fillColor=none;strokeColor=none;fontColor=#000000;arcSize=18;container=0;fontSize=18;" parent="1" vertex="1">
          <mxGeometry x="5536.65" y="4571.8" width="30" height="28.99" as="geometry" />
        </mxCell>
        <mxCell id="KcQZZSa5eiqiG7Eb298S-5" value="" style="endArrow=classic;html=1;rounded=0;strokeWidth=3.5;strokeColor=#000000;endFill=1;exitX=1;exitY=0.5;exitDx=0;exitDy=0;" parent="1" source="KcQZZSa5eiqiG7Eb298S-1" edge="1">
          <mxGeometry width="50" height="50" relative="1" as="geometry">
            <mxPoint x="5415.15" y="4646.46" as="sourcePoint" />
            <mxPoint x="5771" y="4586" as="targetPoint" />
          </mxGeometry>
        </mxCell>
        <mxCell id="KcQZZSa5eiqiG7Eb298S-6" value="" style="endArrow=classic;html=1;rounded=0;strokeWidth=3.5;strokeColor=#000000;endFill=1;entryX=0;entryY=0;entryDx=0;entryDy=0;" parent="1" target="KcQZZSa5eiqiG7Eb298S-1" edge="1">
          <mxGeometry width="50" height="50" relative="1" as="geometry">
            <mxPoint x="5329" y="4481" as="sourcePoint" />
            <mxPoint x="5494" y="4527.1" as="targetPoint" />
          </mxGeometry>
        </mxCell>
        <mxCell id="KcQZZSa5eiqiG7Eb298S-7" value="" style="endArrow=classic;html=1;rounded=0;strokeWidth=3.5;strokeColor=#000000;endFill=1;" parent="1" edge="1">
          <mxGeometry width="50" height="50" relative="1" as="geometry">
            <mxPoint x="5329" y="4540" as="sourcePoint" />
            <mxPoint x="5491" y="4580" as="targetPoint" />
          </mxGeometry>
        </mxCell>
        <mxCell id="KcQZZSa5eiqiG7Eb298S-8" value="" style="endArrow=classic;html=1;rounded=0;strokeWidth=3.5;strokeColor=#000000;endFill=1;" parent="1" edge="1">
          <mxGeometry width="50" height="50" relative="1" as="geometry">
            <mxPoint x="5329" y="4630" as="sourcePoint" />
            <mxPoint x="5491" y="4597" as="targetPoint" />
          </mxGeometry>
        </mxCell>
        <mxCell id="KcQZZSa5eiqiG7Eb298S-9" value="" style="endArrow=classic;html=1;rounded=0;strokeWidth=3.5;strokeColor=#000000;endFill=1;entryX=0;entryY=1;entryDx=0;entryDy=0;" parent="1" target="KcQZZSa5eiqiG7Eb298S-1" edge="1">
          <mxGeometry width="50" height="50" relative="1" as="geometry">
            <mxPoint x="5330" y="4691" as="sourcePoint" />
            <mxPoint x="5505" y="4726.47" as="targetPoint" />
          </mxGeometry>
        </mxCell>
        <mxCell id="KcQZZSa5eiqiG7Eb298S-10" value="" style="group" parent="1" vertex="1" connectable="0">
          <mxGeometry x="5583" y="4553" width="130" height="39.38999999999942" as="geometry" />
        </mxCell>
        <mxCell id="KcQZZSa5eiqiG7Eb298S-11" value="&lt;font style=&quot;font-size: 20px;&quot; face=&quot;Comic Sans MS&quot;&gt;&lt;b style=&quot;&quot;&gt;w&lt;/b&gt;&lt;/font&gt;" style="rounded=1;whiteSpace=wrap;html=1;fillColor=none;strokeColor=none;fontColor=#000000;arcSize=18;container=0;fontSize=18;" parent="KcQZZSa5eiqiG7Eb298S-10" vertex="1">
          <mxGeometry x="44" y="-3" width="30" height="28.99" as="geometry" />
        </mxCell>
        <mxCell id="KcQZZSa5eiqiG7Eb298S-12" value="" style="ellipse;whiteSpace=wrap;html=1;fillColor=#000000;" parent="KcQZZSa5eiqiG7Eb298S-10" vertex="1">
          <mxGeometry x="71.22999999999956" y="11.5" width="4.77" height="4.91" as="geometry" />
        </mxCell>
        <mxCell id="KcQZZSa5eiqiG7Eb298S-13" value="&lt;font face=&quot;Comic Sans MS&quot;&gt;&lt;b&gt;&lt;font style=&quot;font-size: 20px;&quot;&gt;x + b)&lt;/font&gt;&lt;/b&gt;&lt;/font&gt;" style="rounded=1;whiteSpace=wrap;html=1;fillColor=none;strokeColor=none;fontColor=#000000;arcSize=18;container=0;fontSize=18;" parent="KcQZZSa5eiqiG7Eb298S-10" vertex="1">
          <mxGeometry x="76" y="-3" width="72" height="28.99" as="geometry" />
        </mxCell>
        <mxCell id="KcQZZSa5eiqiG7Eb298S-18" value="&lt;font style=&quot;font-size: 20px;&quot; face=&quot;Comic Sans MS&quot;&gt;&lt;b style=&quot;&quot;&gt;g(&lt;/b&gt;&lt;/font&gt;" style="rounded=1;whiteSpace=wrap;html=1;fillColor=none;strokeColor=none;fontColor=#000000;arcSize=18;container=0;fontSize=18;" parent="KcQZZSa5eiqiG7Eb298S-10" vertex="1">
          <mxGeometry x="24" y="-3" width="30" height="28.99" as="geometry" />
        </mxCell>
        <mxCell id="KcQZZSa5eiqiG7Eb298S-20" value="" style="group" parent="1" vertex="1" connectable="0">
          <mxGeometry x="5376" y="4470" width="80" height="39.38999999999942" as="geometry" />
        </mxCell>
        <mxCell id="KcQZZSa5eiqiG7Eb298S-21" value="&lt;font style=&quot;font-size: 15px;&quot; face=&quot;Comic Sans MS&quot;&gt;&lt;b style=&quot;&quot;&gt;0&lt;/b&gt;&lt;/font&gt;" style="rounded=1;whiteSpace=wrap;html=1;fillColor=none;strokeColor=none;fontColor=#000000;arcSize=18;container=0;fontSize=18;" parent="KcQZZSa5eiqiG7Eb298S-20" vertex="1">
          <mxGeometry x="15" y="10.399999999999636" width="30" height="28.99" as="geometry" />
        </mxCell>
        <mxCell id="KcQZZSa5eiqiG7Eb298S-22" value="&lt;font style=&quot;font-size: 20px;&quot; face=&quot;Comic Sans MS&quot;&gt;&lt;b style=&quot;&quot;&gt;w&lt;/b&gt;&lt;/font&gt;" style="rounded=1;whiteSpace=wrap;html=1;fillColor=none;strokeColor=none;fontColor=#000000;arcSize=18;container=0;fontSize=18;" parent="KcQZZSa5eiqiG7Eb298S-20" vertex="1">
          <mxGeometry x="3" width="30" height="28.99" as="geometry" />
        </mxCell>
        <mxCell id="KcQZZSa5eiqiG7Eb298S-24" value="&lt;font style=&quot;font-size: 20px;&quot; face=&quot;Comic Sans MS&quot;&gt;&lt;b style=&quot;&quot;&gt;=b&lt;/b&gt;&lt;/font&gt;" style="rounded=1;whiteSpace=wrap;html=1;fillColor=none;strokeColor=none;fontColor=#000000;arcSize=18;container=0;fontSize=18;" parent="KcQZZSa5eiqiG7Eb298S-20" vertex="1">
          <mxGeometry x="31" width="34" height="28.99" as="geometry" />
        </mxCell>
        <mxCell id="KcQZZSa5eiqiG7Eb298S-25" value="" style="group" parent="1" vertex="1" connectable="0">
          <mxGeometry x="5257" y="4465" width="80" height="39.38999999999942" as="geometry" />
        </mxCell>
        <mxCell id="KcQZZSa5eiqiG7Eb298S-26" value="&lt;font style=&quot;font-size: 15px;&quot; face=&quot;Comic Sans MS&quot;&gt;&lt;b style=&quot;&quot;&gt;0&lt;/b&gt;&lt;/font&gt;" style="rounded=1;whiteSpace=wrap;html=1;fillColor=none;strokeColor=none;fontColor=#000000;arcSize=18;container=0;fontSize=18;" parent="KcQZZSa5eiqiG7Eb298S-25" vertex="1">
          <mxGeometry x="14" y="10.399999999999636" width="30" height="28.99" as="geometry" />
        </mxCell>
        <mxCell id="KcQZZSa5eiqiG7Eb298S-27" value="&lt;font style=&quot;font-size: 20px;&quot; face=&quot;Comic Sans MS&quot;&gt;&lt;b style=&quot;&quot;&gt;x&lt;/b&gt;&lt;/font&gt;" style="rounded=1;whiteSpace=wrap;html=1;fillColor=none;strokeColor=none;fontColor=#000000;arcSize=18;container=0;fontSize=18;" parent="KcQZZSa5eiqiG7Eb298S-25" vertex="1">
          <mxGeometry x="2" width="30" height="28.99" as="geometry" />
        </mxCell>
        <mxCell id="KcQZZSa5eiqiG7Eb298S-28" value="&lt;font style=&quot;font-size: 20px;&quot; face=&quot;Comic Sans MS&quot;&gt;&lt;b style=&quot;&quot;&gt;=1&lt;/b&gt;&lt;/font&gt;" style="rounded=1;whiteSpace=wrap;html=1;fillColor=none;strokeColor=none;fontColor=#000000;arcSize=18;container=0;fontSize=18;" parent="KcQZZSa5eiqiG7Eb298S-25" vertex="1">
          <mxGeometry x="32" width="34" height="28.99" as="geometry" />
        </mxCell>
        <mxCell id="KcQZZSa5eiqiG7Eb298S-29" value="&lt;font style=&quot;font-size: 15px;&quot; face=&quot;Comic Sans MS&quot;&gt;&lt;b style=&quot;&quot;&gt;1&lt;/b&gt;&lt;/font&gt;" style="rounded=1;whiteSpace=wrap;html=1;fillColor=none;strokeColor=none;fontColor=#000000;arcSize=18;container=0;fontSize=18;" parent="1" vertex="1">
          <mxGeometry x="5298" y="4529.65" width="30" height="28.99" as="geometry" />
        </mxCell>
        <mxCell id="KcQZZSa5eiqiG7Eb298S-30" value="&lt;font style=&quot;font-size: 20px;&quot; face=&quot;Comic Sans MS&quot;&gt;&lt;b style=&quot;&quot;&gt;x&lt;/b&gt;&lt;/font&gt;" style="rounded=1;whiteSpace=wrap;html=1;fillColor=none;strokeColor=none;fontColor=#000000;arcSize=18;container=0;fontSize=18;" parent="1" vertex="1">
          <mxGeometry x="5286" y="4519.25" width="30" height="28.99" as="geometry" />
        </mxCell>
        <mxCell id="KcQZZSa5eiqiG7Eb298S-32" value="&lt;font style=&quot;font-size: 15px;&quot; face=&quot;Comic Sans MS&quot;&gt;&lt;b style=&quot;&quot;&gt;1&lt;/b&gt;&lt;/font&gt;" style="rounded=1;whiteSpace=wrap;html=1;fillColor=none;strokeColor=none;fontColor=#000000;arcSize=18;container=0;fontSize=18;" parent="1" vertex="1">
          <mxGeometry x="5351" y="4520.96" width="30" height="28.99" as="geometry" />
        </mxCell>
        <mxCell id="KcQZZSa5eiqiG7Eb298S-33" value="&lt;font style=&quot;font-size: 20px;&quot; face=&quot;Comic Sans MS&quot;&gt;&lt;b style=&quot;&quot;&gt;w&lt;/b&gt;&lt;/font&gt;" style="rounded=1;whiteSpace=wrap;html=1;fillColor=none;strokeColor=none;fontColor=#000000;arcSize=18;container=0;fontSize=18;" parent="1" vertex="1">
          <mxGeometry x="5339" y="4510.56" width="30" height="28.99" as="geometry" />
        </mxCell>
        <mxCell id="KcQZZSa5eiqiG7Eb298S-34" value="&lt;font style=&quot;font-size: 15px;&quot; face=&quot;Comic Sans MS&quot;&gt;&lt;b style=&quot;&quot;&gt;2&lt;/b&gt;&lt;/font&gt;" style="rounded=1;whiteSpace=wrap;html=1;fillColor=none;strokeColor=none;fontColor=#000000;arcSize=18;container=0;fontSize=18;" parent="1" vertex="1">
          <mxGeometry x="5296" y="4622.19" width="30" height="28.99" as="geometry" />
        </mxCell>
        <mxCell id="KcQZZSa5eiqiG7Eb298S-35" value="&lt;font style=&quot;font-size: 20px;&quot; face=&quot;Comic Sans MS&quot;&gt;&lt;b style=&quot;&quot;&gt;x&lt;/b&gt;&lt;/font&gt;" style="rounded=1;whiteSpace=wrap;html=1;fillColor=none;strokeColor=none;fontColor=#000000;arcSize=18;container=0;fontSize=18;" parent="1" vertex="1">
          <mxGeometry x="5284" y="4611.79" width="30" height="28.99" as="geometry" />
        </mxCell>
        <mxCell id="KcQZZSa5eiqiG7Eb298S-36" value="&lt;font style=&quot;font-size: 15px;&quot; face=&quot;Comic Sans MS&quot;&gt;&lt;b style=&quot;&quot;&gt;2&lt;/b&gt;&lt;/font&gt;" style="rounded=1;whiteSpace=wrap;html=1;fillColor=none;strokeColor=none;fontColor=#000000;arcSize=18;container=0;fontSize=18;" parent="1" vertex="1">
          <mxGeometry x="5351" y="4590.51" width="30" height="28.99" as="geometry" />
        </mxCell>
        <mxCell id="KcQZZSa5eiqiG7Eb298S-37" value="&lt;font style=&quot;font-size: 20px;&quot; face=&quot;Comic Sans MS&quot;&gt;&lt;b style=&quot;&quot;&gt;w&lt;/b&gt;&lt;/font&gt;" style="rounded=1;whiteSpace=wrap;html=1;fillColor=none;strokeColor=none;fontColor=#000000;arcSize=18;container=0;fontSize=18;" parent="1" vertex="1">
          <mxGeometry x="5339" y="4580.110000000001" width="30" height="28.99" as="geometry" />
        </mxCell>
        <mxCell id="KcQZZSa5eiqiG7Eb298S-44" value="&lt;font style=&quot;font-size: 15px;&quot; face=&quot;Comic Sans MS&quot;&gt;&lt;b style=&quot;&quot;&gt;3&lt;/b&gt;&lt;/font&gt;" style="rounded=1;whiteSpace=wrap;html=1;fillColor=none;strokeColor=none;fontColor=#000000;arcSize=18;container=0;fontSize=18;" parent="1" vertex="1">
          <mxGeometry x="5296" y="4687.71" width="30" height="28.99" as="geometry" />
        </mxCell>
        <mxCell id="KcQZZSa5eiqiG7Eb298S-45" value="&lt;font style=&quot;font-size: 20px;&quot; face=&quot;Comic Sans MS&quot;&gt;&lt;b style=&quot;&quot;&gt;x&lt;/b&gt;&lt;/font&gt;" style="rounded=1;whiteSpace=wrap;html=1;fillColor=none;strokeColor=none;fontColor=#000000;arcSize=18;container=0;fontSize=18;" parent="1" vertex="1">
          <mxGeometry x="5284" y="4677.31" width="30" height="28.99" as="geometry" />
        </mxCell>
        <mxCell id="KcQZZSa5eiqiG7Eb298S-46" value="&lt;font style=&quot;font-size: 15px;&quot; face=&quot;Comic Sans MS&quot;&gt;&lt;b style=&quot;&quot;&gt;3&lt;/b&gt;&lt;/font&gt;" style="rounded=1;whiteSpace=wrap;html=1;fillColor=none;strokeColor=none;fontColor=#000000;arcSize=18;container=0;fontSize=18;" parent="1" vertex="1">
          <mxGeometry x="5351" y="4644.040000000001" width="30" height="28.99" as="geometry" />
        </mxCell>
        <mxCell id="KcQZZSa5eiqiG7Eb298S-47" value="&lt;font style=&quot;font-size: 20px;&quot; face=&quot;Comic Sans MS&quot;&gt;&lt;b style=&quot;&quot;&gt;w&lt;/b&gt;&lt;/font&gt;" style="rounded=1;whiteSpace=wrap;html=1;fillColor=none;strokeColor=none;fontColor=#000000;arcSize=18;container=0;fontSize=18;" parent="1" vertex="1">
          <mxGeometry x="5339" y="4633.640000000001" width="30" height="28.99" as="geometry" />
        </mxCell>
        <mxCell id="KcQZZSa5eiqiG7Eb298S-48" value="&lt;div style=&quot;text-align: justify;&quot;&gt;&lt;br&gt;&lt;/div&gt;" style="rounded=1;whiteSpace=wrap;html=1;fillColor=none;strokeColor=none;fontColor=#FFFFFF;arcSize=7;container=0;fontSize=16;spacing=15;" parent="1" vertex="1">
          <mxGeometry x="5130" y="4456.99" width="120" height="263.01" as="geometry" />
        </mxCell>
        <mxCell id="KcQZZSa5eiqiG7Eb298S-49" value="&lt;div style=&quot;text-align: justify;&quot;&gt;&lt;br&gt;&lt;/div&gt;" style="rounded=1;whiteSpace=wrap;html=1;fillColor=none;strokeColor=none;fontColor=#FFFFFF;arcSize=7;container=0;fontSize=16;spacing=15;" parent="1" vertex="1">
          <mxGeometry x="5790" y="4457.25" width="120" height="263.01" as="geometry" />
        </mxCell>
        <mxCell id="P5t69rbOwRL67wGy0x8x-1" value="&lt;div style=&quot;line-height: 19px; white-space: pre;&quot;&gt;&lt;br&gt;&lt;/div&gt;" style="rounded=1;whiteSpace=wrap;html=1;fillColor=#CCFFFF;strokeColor=none;fontColor=#FFFFFF;arcSize=7;container=0;fontSize=17;" vertex="1" parent="1">
          <mxGeometry x="5130.65" y="4850" width="170" height="280" as="geometry" />
        </mxCell>
        <mxCell id="P5t69rbOwRL67wGy0x8x-2" value="&lt;div style=&quot;line-height: 19px; white-space: pre;&quot;&gt;&lt;br&gt;&lt;/div&gt;" style="rounded=1;whiteSpace=wrap;html=1;fillColor=#E5CCFF;strokeColor=none;fontColor=#FFFFFF;arcSize=4;container=0;fontSize=17;" vertex="1" parent="1">
          <mxGeometry x="5314.29" y="4850" width="402.71" height="280" as="geometry" />
        </mxCell>
        <mxCell id="P5t69rbOwRL67wGy0x8x-5" value="&lt;div style=&quot;line-height: 19px; white-space: pre;&quot;&gt;&lt;br&gt;&lt;/div&gt;" style="rounded=1;whiteSpace=wrap;html=1;fillColor=#CCFF99;strokeColor=none;fontColor=#FFFFFF;arcSize=7;container=0;fontSize=17;" vertex="1" parent="1">
          <mxGeometry x="5730.65" y="4850" width="170" height="280" as="geometry" />
        </mxCell>
        <mxCell id="P5t69rbOwRL67wGy0x8x-10" value="&lt;div style=&quot;line-height: 19px;&quot;&gt;&lt;font style=&quot;font-size: 26px;&quot; face=&quot;Comic Sans MS&quot; color=&quot;#000000&quot;&gt;&lt;b style=&quot;&quot;&gt;1&lt;/b&gt;&lt;/font&gt;&lt;/div&gt;" style="rounded=1;whiteSpace=wrap;html=1;fillColor=#99FFFF;strokeColor=#00FFFF;fontColor=#FFFFFF;arcSize=7;container=0;fontSize=17;strokeWidth=2;" vertex="1" parent="1">
          <mxGeometry x="5190.219999999999" y="4898.99" width="50" height="50" as="geometry" />
        </mxCell>
        <mxCell id="P5t69rbOwRL67wGy0x8x-11" value="&lt;div style=&quot;line-height: 19px;&quot;&gt;&lt;font style=&quot;font-size: 26px;&quot; face=&quot;Comic Sans MS&quot; color=&quot;#000000&quot;&gt;&lt;b style=&quot;&quot;&gt;2&lt;/b&gt;&lt;/font&gt;&lt;/div&gt;" style="rounded=1;whiteSpace=wrap;html=1;fillColor=#99FFFF;strokeColor=#00FFFF;fontColor=#FFFFFF;arcSize=7;container=0;fontSize=17;strokeWidth=2;" vertex="1" parent="1">
          <mxGeometry x="5190.65" y="5030.81" width="50" height="50" as="geometry" />
        </mxCell>
        <mxCell id="P5t69rbOwRL67wGy0x8x-12" value="&lt;div style=&quot;line-height: 19px;&quot;&gt;&lt;font face=&quot;Comic Sans MS&quot; style=&quot;font-size: 20px;&quot;&gt;&lt;b style=&quot;&quot;&gt;Input Layer&lt;/b&gt;&lt;/font&gt;&lt;/div&gt;" style="rounded=1;whiteSpace=wrap;html=1;fillColor=#007FFF;strokeColor=#007FFF;fontColor=#FFFFFF;arcSize=50;container=0;fontSize=17;strokeWidth=2;" vertex="1" parent="1">
          <mxGeometry x="5146.22" y="4977.24" width="149.78" height="28.51" as="geometry" />
        </mxCell>
        <mxCell id="P5t69rbOwRL67wGy0x8x-15" value="&lt;div style=&quot;line-height: 19px;&quot;&gt;&lt;font face=&quot;Comic Sans MS&quot;&gt;&lt;span style=&quot;font-size: 20px;&quot;&gt;&lt;b&gt;Hidden Layers&lt;/b&gt;&lt;/span&gt;&lt;/font&gt;&lt;/div&gt;" style="rounded=1;whiteSpace=wrap;html=1;fillColor=#7F00FF;strokeColor=#7F00FF;fontColor=#FFFFFF;arcSize=50;container=0;fontSize=17;strokeWidth=2;" vertex="1" parent="1">
          <mxGeometry x="5444" y="4976" width="162" height="28.51" as="geometry" />
        </mxCell>
        <mxCell id="P5t69rbOwRL67wGy0x8x-16" value="&lt;font face=&quot;Comic Sans MS&quot;&gt;&lt;span style=&quot;font-size: 26px;&quot;&gt;&lt;b&gt;3&lt;/b&gt;&lt;/span&gt;&lt;/font&gt;" style="ellipse;whiteSpace=wrap;html=1;aspect=fixed;strokeWidth=2;fillColor=#FFCCFF;" vertex="1" parent="1">
          <mxGeometry x="5495" y="4893.99" width="60" height="60" as="geometry" />
        </mxCell>
        <mxCell id="P5t69rbOwRL67wGy0x8x-17" value="&lt;font face=&quot;Comic Sans MS&quot;&gt;&lt;span style=&quot;font-size: 26px;&quot;&gt;&lt;b&gt;4&lt;/b&gt;&lt;/span&gt;&lt;/font&gt;" style="ellipse;whiteSpace=wrap;html=1;aspect=fixed;strokeWidth=2;fillColor=#FFCCFF;" vertex="1" parent="1">
          <mxGeometry x="5493" y="5026.5" width="60" height="60" as="geometry" />
        </mxCell>
        <mxCell id="P5t69rbOwRL67wGy0x8x-18" value="&lt;div style=&quot;line-height: 19px;&quot;&gt;&lt;font face=&quot;Comic Sans MS&quot;&gt;&lt;span style=&quot;font-size: 20px;&quot;&gt;&lt;b&gt;Output Layer&lt;/b&gt;&lt;/span&gt;&lt;/font&gt;&lt;/div&gt;" style="rounded=1;whiteSpace=wrap;html=1;fillColor=#009900;strokeColor=#009900;fontColor=#FFFFFF;arcSize=50;container=0;fontSize=17;strokeWidth=2;" vertex="1" parent="1">
          <mxGeometry x="5741.639999999999" y="4977.24" width="152.02" height="28.51" as="geometry" />
        </mxCell>
        <mxCell id="P5t69rbOwRL67wGy0x8x-19" value="&lt;font face=&quot;Comic Sans MS&quot;&gt;&lt;span style=&quot;font-size: 26px;&quot;&gt;&lt;b&gt;5&lt;/b&gt;&lt;/span&gt;&lt;/font&gt;" style="ellipse;whiteSpace=wrap;html=1;aspect=fixed;strokeWidth=2;fillColor=#B3FF66;" vertex="1" parent="1">
          <mxGeometry x="5787.65" y="4893.74" width="60" height="60" as="geometry" />
        </mxCell>
        <mxCell id="P5t69rbOwRL67wGy0x8x-20" value="&lt;font face=&quot;Comic Sans MS&quot;&gt;&lt;span style=&quot;font-size: 26px;&quot;&gt;&lt;b&gt;6&lt;/b&gt;&lt;/span&gt;&lt;/font&gt;" style="ellipse;whiteSpace=wrap;html=1;aspect=fixed;strokeWidth=2;fillColor=#B3FF66;" vertex="1" parent="1">
          <mxGeometry x="5785.65" y="5026.25" width="60" height="60" as="geometry" />
        </mxCell>
        <mxCell id="P5t69rbOwRL67wGy0x8x-21" value="" style="endArrow=classic;html=1;rounded=0;strokeWidth=3.8;strokeColor=#000000;endFill=1;exitX=1;exitY=0.5;exitDx=0;exitDy=0;entryX=0;entryY=0.5;entryDx=0;entryDy=0;" edge="1" parent="1" source="P5t69rbOwRL67wGy0x8x-10" target="P5t69rbOwRL67wGy0x8x-16">
          <mxGeometry width="50" height="50" relative="1" as="geometry">
            <mxPoint x="5456" y="4839.13" as="sourcePoint" />
            <mxPoint x="5653" y="4839.13" as="targetPoint" />
          </mxGeometry>
        </mxCell>
        <mxCell id="P5t69rbOwRL67wGy0x8x-22" value="" style="endArrow=classic;html=1;rounded=0;strokeWidth=3.8;strokeColor=#000000;endFill=1;exitX=1;exitY=0.5;exitDx=0;exitDy=0;" edge="1" parent="1" source="P5t69rbOwRL67wGy0x8x-11" target="P5t69rbOwRL67wGy0x8x-17">
          <mxGeometry width="50" height="50" relative="1" as="geometry">
            <mxPoint x="5250" y="4934" as="sourcePoint" />
            <mxPoint x="5505" y="4934" as="targetPoint" />
          </mxGeometry>
        </mxCell>
        <mxCell id="P5t69rbOwRL67wGy0x8x-23" value="" style="endArrow=classic;html=1;rounded=0;strokeWidth=3.8;strokeColor=#000000;endFill=1;exitX=1;exitY=0.5;exitDx=0;exitDy=0;entryX=0;entryY=1;entryDx=0;entryDy=0;" edge="1" parent="1" source="P5t69rbOwRL67wGy0x8x-17" target="P5t69rbOwRL67wGy0x8x-19">
          <mxGeometry width="50" height="50" relative="1" as="geometry">
            <mxPoint x="5251" y="5066" as="sourcePoint" />
            <mxPoint x="5503" y="5066" as="targetPoint" />
          </mxGeometry>
        </mxCell>
        <mxCell id="P5t69rbOwRL67wGy0x8x-24" value="" style="endArrow=classic;html=1;rounded=0;strokeWidth=3.8;strokeColor=#000000;endFill=1;exitX=1;exitY=0.5;exitDx=0;exitDy=0;entryX=0;entryY=0;entryDx=0;entryDy=0;" edge="1" parent="1" source="P5t69rbOwRL67wGy0x8x-16" target="P5t69rbOwRL67wGy0x8x-20">
          <mxGeometry width="50" height="50" relative="1" as="geometry">
            <mxPoint x="5563" y="5067" as="sourcePoint" />
            <mxPoint x="5798" y="4934" as="targetPoint" />
          </mxGeometry>
        </mxCell>
        <mxCell id="P5t69rbOwRL67wGy0x8x-25" value="" style="endArrow=classic;html=1;rounded=0;strokeWidth=3.8;strokeColor=#000000;endFill=1;exitX=1;exitY=0.5;exitDx=0;exitDy=0;entryX=0;entryY=0.5;entryDx=0;entryDy=0;" edge="1" parent="1" source="P5t69rbOwRL67wGy0x8x-16" target="P5t69rbOwRL67wGy0x8x-19">
          <mxGeometry width="50" height="50" relative="1" as="geometry">
            <mxPoint x="5565" y="4934" as="sourcePoint" />
            <mxPoint x="5795" y="5063" as="targetPoint" />
          </mxGeometry>
        </mxCell>
        <mxCell id="P5t69rbOwRL67wGy0x8x-26" value="" style="endArrow=classic;html=1;rounded=0;strokeWidth=3.8;strokeColor=#000000;endFill=1;exitX=1;exitY=0.5;exitDx=0;exitDy=0;entryX=0;entryY=0.5;entryDx=0;entryDy=0;" edge="1" parent="1" source="P5t69rbOwRL67wGy0x8x-17" target="P5t69rbOwRL67wGy0x8x-20">
          <mxGeometry width="50" height="50" relative="1" as="geometry">
            <mxPoint x="5563" y="5067" as="sourcePoint" />
            <mxPoint x="5806" y="4955" as="targetPoint" />
          </mxGeometry>
        </mxCell>
        <mxCell id="P5t69rbOwRL67wGy0x8x-27" value="" style="endArrow=classic;html=1;rounded=0;strokeWidth=3.8;strokeColor=#000000;endFill=1;exitX=1;exitY=0.5;exitDx=0;exitDy=0;entryX=0;entryY=0;entryDx=0;entryDy=0;" edge="1" parent="1" source="P5t69rbOwRL67wGy0x8x-10" target="P5t69rbOwRL67wGy0x8x-17">
          <mxGeometry width="50" height="50" relative="1" as="geometry">
            <mxPoint x="5563" y="5067" as="sourcePoint" />
            <mxPoint x="5796" y="5066" as="targetPoint" />
          </mxGeometry>
        </mxCell>
        <mxCell id="P5t69rbOwRL67wGy0x8x-28" value="" style="endArrow=classic;html=1;rounded=0;strokeWidth=3.8;strokeColor=#000000;endFill=1;exitX=1;exitY=0.5;exitDx=0;exitDy=0;entryX=0;entryY=1;entryDx=0;entryDy=0;" edge="1" parent="1" source="P5t69rbOwRL67wGy0x8x-11" target="P5t69rbOwRL67wGy0x8x-16">
          <mxGeometry width="50" height="50" relative="1" as="geometry">
            <mxPoint x="5250" y="4934" as="sourcePoint" />
            <mxPoint x="5512" y="5045" as="targetPoint" />
          </mxGeometry>
        </mxCell>
        <mxCell id="P5t69rbOwRL67wGy0x8x-29" value="&lt;div style=&quot;line-height: 19px;&quot;&gt;&lt;b style=&quot;color: rgb(0, 0, 0); font-family: &amp;quot;Comic Sans MS&amp;quot;; font-size: 20px;&quot;&gt;1&lt;/b&gt;&lt;br&gt;&lt;/div&gt;" style="rounded=1;whiteSpace=wrap;html=1;fillColor=#FFCCFF;strokeColor=#FF00FF;fontColor=#FFFFFF;arcSize=50;container=0;fontSize=17;strokeWidth=2;" vertex="1" parent="1">
          <mxGeometry x="5348" y="4811.3" width="52" height="28.51" as="geometry" />
        </mxCell>
        <mxCell id="P5t69rbOwRL67wGy0x8x-30" value="&lt;font face=&quot;Comic Sans MS&quot;&gt;&lt;span style=&quot;font-size: 20px;&quot;&gt;&lt;b&gt;Bias&lt;/b&gt;&lt;/span&gt;&lt;/font&gt;" style="rounded=1;whiteSpace=wrap;html=1;fillColor=none;strokeColor=none;fontColor=#000000;arcSize=18;container=0;fontSize=18;" vertex="1" parent="1">
          <mxGeometry x="5338" y="4774.820000000001" width="72" height="28.99" as="geometry" />
        </mxCell>
        <mxCell id="P5t69rbOwRL67wGy0x8x-31" value="" style="endArrow=classic;html=1;rounded=0;strokeWidth=3.8;strokeColor=#CC0066;endFill=1;exitX=1;exitY=0.75;exitDx=0;exitDy=0;entryX=0;entryY=0;entryDx=0;entryDy=0;" edge="1" parent="1" source="P5t69rbOwRL67wGy0x8x-32" target="P5t69rbOwRL67wGy0x8x-19">
          <mxGeometry width="50" height="50" relative="1" as="geometry">
            <mxPoint x="5690" y="4813.8125" as="sourcePoint" />
            <mxPoint x="5815.786796564371" y="4873.906796564371" as="targetPoint" />
          </mxGeometry>
        </mxCell>
        <mxCell id="P5t69rbOwRL67wGy0x8x-32" value="&lt;div style=&quot;line-height: 19px;&quot;&gt;&lt;b style=&quot;color: rgb(0, 0, 0); font-family: &amp;quot;Comic Sans MS&amp;quot;; font-size: 20px;&quot;&gt;1&lt;/b&gt;&lt;br&gt;&lt;/div&gt;" style="rounded=1;whiteSpace=wrap;html=1;fillColor=#FFCCFF;strokeColor=#FF00FF;fontColor=#FFFFFF;arcSize=50;container=0;fontSize=17;strokeWidth=2;" vertex="1" parent="1">
          <mxGeometry x="5640" y="4811.3" width="52" height="28.51" as="geometry" />
        </mxCell>
        <mxCell id="P5t69rbOwRL67wGy0x8x-33" value="&lt;font face=&quot;Comic Sans MS&quot;&gt;&lt;span style=&quot;font-size: 20px;&quot;&gt;&lt;b&gt;Bias&lt;/b&gt;&lt;/span&gt;&lt;/font&gt;" style="rounded=1;whiteSpace=wrap;html=1;fillColor=none;strokeColor=none;fontColor=#000000;arcSize=18;container=0;fontSize=18;" vertex="1" parent="1">
          <mxGeometry x="5630" y="4774.820000000001" width="72" height="28.99" as="geometry" />
        </mxCell>
        <mxCell id="P5t69rbOwRL67wGy0x8x-35" value="" style="endArrow=classic;html=1;rounded=0;strokeWidth=3.8;strokeColor=#CC0066;endFill=1;entryX=0;entryY=0;entryDx=0;entryDy=0;exitX=1;exitY=0.75;exitDx=0;exitDy=0;" edge="1" parent="1" source="P5t69rbOwRL67wGy0x8x-29" target="P5t69rbOwRL67wGy0x8x-16">
          <mxGeometry width="50" height="50" relative="1" as="geometry">
            <mxPoint x="5388" y="4853" as="sourcePoint" />
            <mxPoint x="5514" y="4913" as="targetPoint" />
          </mxGeometry>
        </mxCell>
        <mxCell id="P5t69rbOwRL67wGy0x8x-37" value="&lt;font face=&quot;Comic Sans MS&quot; style=&quot;font-size: 15px;&quot;&gt;&lt;b style=&quot;&quot;&gt;03&lt;/b&gt;&lt;/font&gt;" style="rounded=1;whiteSpace=wrap;html=1;fillColor=none;strokeColor=none;fontColor=#CC0066;arcSize=18;container=0;fontSize=18;" vertex="1" parent="1">
          <mxGeometry x="5436" y="4823.9" width="38" height="28.99" as="geometry" />
        </mxCell>
        <mxCell id="P5t69rbOwRL67wGy0x8x-38" value="&lt;font face=&quot;Comic Sans MS&quot; style=&quot;font-size: 20px;&quot;&gt;&lt;b style=&quot;&quot;&gt;w&lt;/b&gt;&lt;/font&gt;" style="rounded=1;whiteSpace=wrap;html=1;fillColor=none;strokeColor=none;fontColor=#CC0066;arcSize=18;container=0;fontSize=18;" vertex="1" parent="1">
          <mxGeometry x="5421" y="4813.500000000001" width="30" height="28.99" as="geometry" />
        </mxCell>
        <mxCell id="P5t69rbOwRL67wGy0x8x-39" value="&lt;font face=&quot;Comic Sans MS&quot; style=&quot;font-size: 15px;&quot;&gt;&lt;b style=&quot;&quot;&gt;05&lt;/b&gt;&lt;/font&gt;" style="rounded=1;whiteSpace=wrap;html=1;fillColor=none;strokeColor=none;fontColor=#CC0066;arcSize=18;container=0;fontSize=18;" vertex="1" parent="1">
          <mxGeometry x="5729" y="4823.71" width="38" height="28.99" as="geometry" />
        </mxCell>
        <mxCell id="P5t69rbOwRL67wGy0x8x-40" value="&lt;font face=&quot;Comic Sans MS&quot; style=&quot;font-size: 20px;&quot;&gt;&lt;b style=&quot;&quot;&gt;w&lt;/b&gt;&lt;/font&gt;" style="rounded=1;whiteSpace=wrap;html=1;fillColor=none;strokeColor=none;fontColor=#CC0066;arcSize=18;container=0;fontSize=18;" vertex="1" parent="1">
          <mxGeometry x="5714" y="4813.310000000001" width="30" height="28.99" as="geometry" />
        </mxCell>
        <mxCell id="P5t69rbOwRL67wGy0x8x-46" value="&lt;div style=&quot;line-height: 19px;&quot;&gt;&lt;b style=&quot;color: rgb(0, 0, 0); font-family: &amp;quot;Comic Sans MS&amp;quot;; font-size: 20px;&quot;&gt;1&lt;/b&gt;&lt;br&gt;&lt;/div&gt;" style="rounded=1;whiteSpace=wrap;html=1;fillColor=#FFCCFF;strokeColor=#FF00FF;fontColor=#FFFFFF;arcSize=50;container=0;fontSize=17;strokeWidth=2;" vertex="1" parent="1">
          <mxGeometry x="5346" y="5143.49" width="52" height="28.51" as="geometry" />
        </mxCell>
        <mxCell id="P5t69rbOwRL67wGy0x8x-47" value="&lt;font face=&quot;Comic Sans MS&quot;&gt;&lt;span style=&quot;font-size: 20px;&quot;&gt;&lt;b&gt;Bias&lt;/b&gt;&lt;/span&gt;&lt;/font&gt;" style="rounded=1;whiteSpace=wrap;html=1;fillColor=none;strokeColor=none;fontColor=#000000;arcSize=18;container=0;fontSize=18;" vertex="1" parent="1">
          <mxGeometry x="5336" y="5179.02" width="72" height="28.99" as="geometry" />
        </mxCell>
        <mxCell id="P5t69rbOwRL67wGy0x8x-48" value="&lt;div style=&quot;line-height: 19px;&quot;&gt;&lt;b style=&quot;color: rgb(0, 0, 0); font-family: &amp;quot;Comic Sans MS&amp;quot;; font-size: 20px;&quot;&gt;1&lt;/b&gt;&lt;br&gt;&lt;/div&gt;" style="rounded=1;whiteSpace=wrap;html=1;fillColor=#FFCCFF;strokeColor=#FF00FF;fontColor=#FFFFFF;arcSize=50;container=0;fontSize=17;strokeWidth=2;" vertex="1" parent="1">
          <mxGeometry x="5639" y="5142.48" width="52" height="28.51" as="geometry" />
        </mxCell>
        <mxCell id="P5t69rbOwRL67wGy0x8x-49" value="&lt;font face=&quot;Comic Sans MS&quot;&gt;&lt;span style=&quot;font-size: 20px;&quot;&gt;&lt;b&gt;Bias&lt;/b&gt;&lt;/span&gt;&lt;/font&gt;" style="rounded=1;whiteSpace=wrap;html=1;fillColor=none;strokeColor=none;fontColor=#000000;arcSize=18;container=0;fontSize=18;" vertex="1" parent="1">
          <mxGeometry x="5629" y="5181.5" width="72" height="28.99" as="geometry" />
        </mxCell>
        <mxCell id="P5t69rbOwRL67wGy0x8x-50" value="" style="endArrow=classic;html=1;rounded=0;strokeWidth=3.8;strokeColor=#CC0066;endFill=1;entryX=0;entryY=1;entryDx=0;entryDy=0;exitX=1;exitY=0.25;exitDx=0;exitDy=0;" edge="1" parent="1" source="P5t69rbOwRL67wGy0x8x-46" target="P5t69rbOwRL67wGy0x8x-17">
          <mxGeometry width="50" height="50" relative="1" as="geometry">
            <mxPoint x="5388" y="4853" as="sourcePoint" />
            <mxPoint x="5514" y="4913" as="targetPoint" />
          </mxGeometry>
        </mxCell>
        <mxCell id="P5t69rbOwRL67wGy0x8x-51" value="&lt;font face=&quot;Comic Sans MS&quot; style=&quot;font-size: 15px;&quot;&gt;&lt;b style=&quot;&quot;&gt;04&lt;/b&gt;&lt;/font&gt;" style="rounded=1;whiteSpace=wrap;html=1;fillColor=none;strokeColor=none;fontColor=#CC0066;arcSize=18;container=0;fontSize=18;" vertex="1" parent="1">
          <mxGeometry x="5439.5" y="5135.009999999999" width="38" height="28.99" as="geometry" />
        </mxCell>
        <mxCell id="P5t69rbOwRL67wGy0x8x-52" value="&lt;font face=&quot;Comic Sans MS&quot; style=&quot;font-size: 20px;&quot;&gt;&lt;b style=&quot;&quot;&gt;w&lt;/b&gt;&lt;/font&gt;" style="rounded=1;whiteSpace=wrap;html=1;fillColor=none;strokeColor=none;fontColor=#CC0066;arcSize=18;container=0;fontSize=18;" vertex="1" parent="1">
          <mxGeometry x="5424.5" y="5124.610000000001" width="30" height="28.99" as="geometry" />
        </mxCell>
        <mxCell id="P5t69rbOwRL67wGy0x8x-53" value="" style="endArrow=classic;html=1;rounded=0;strokeWidth=3.8;strokeColor=#CC0066;endFill=1;entryX=0;entryY=1;entryDx=0;entryDy=0;exitX=1;exitY=0.25;exitDx=0;exitDy=0;" edge="1" parent="1" source="P5t69rbOwRL67wGy0x8x-48" target="P5t69rbOwRL67wGy0x8x-20">
          <mxGeometry width="50" height="50" relative="1" as="geometry">
            <mxPoint x="5690" y="5189.99" as="sourcePoint" />
            <mxPoint x="5824" y="5103.99" as="targetPoint" />
          </mxGeometry>
        </mxCell>
        <mxCell id="P5t69rbOwRL67wGy0x8x-54" value="&lt;font face=&quot;Comic Sans MS&quot; style=&quot;font-size: 15px;&quot;&gt;&lt;b style=&quot;&quot;&gt;06&lt;/b&gt;&lt;/font&gt;" style="rounded=1;whiteSpace=wrap;html=1;fillColor=none;strokeColor=none;fontColor=#CC0066;arcSize=18;container=0;fontSize=18;" vertex="1" parent="1">
          <mxGeometry x="5731" y="5136.349999999999" width="38" height="28.99" as="geometry" />
        </mxCell>
        <mxCell id="P5t69rbOwRL67wGy0x8x-55" value="&lt;font face=&quot;Comic Sans MS&quot; style=&quot;font-size: 20px;&quot;&gt;&lt;b style=&quot;&quot;&gt;w&lt;/b&gt;&lt;/font&gt;" style="rounded=1;whiteSpace=wrap;html=1;fillColor=none;strokeColor=none;fontColor=#CC0066;arcSize=18;container=0;fontSize=18;" vertex="1" parent="1">
          <mxGeometry x="5715" y="5125.950000000001" width="30" height="28.99" as="geometry" />
        </mxCell>
        <mxCell id="P5t69rbOwRL67wGy0x8x-56" value="&lt;font face=&quot;Comic Sans MS&quot;&gt;&lt;span style=&quot;font-size: 20px;&quot;&gt;&lt;b&gt;neurons&lt;/b&gt;&lt;/span&gt;&lt;/font&gt;" style="rounded=1;whiteSpace=wrap;html=1;fillColor=none;strokeColor=none;fontColor=#000000;arcSize=18;container=0;fontSize=18;" vertex="1" parent="1">
          <mxGeometry x="5781.65" y="4854.490000000001" width="72" height="28.99" as="geometry" />
        </mxCell>
        <mxCell id="P5t69rbOwRL67wGy0x8x-57" value="&lt;font face=&quot;Comic Sans MS&quot;&gt;&lt;span style=&quot;font-size: 20px;&quot;&gt;&lt;b&gt;neurons&lt;/b&gt;&lt;/span&gt;&lt;/font&gt;" style="rounded=1;whiteSpace=wrap;html=1;fillColor=none;strokeColor=none;fontColor=#000000;arcSize=18;container=0;fontSize=18;" vertex="1" parent="1">
          <mxGeometry x="5779.65" y="5093.010000000001" width="72" height="28.99" as="geometry" />
        </mxCell>
        <mxCell id="P5t69rbOwRL67wGy0x8x-58" value="&lt;font face=&quot;Comic Sans MS&quot;&gt;&lt;span style=&quot;font-size: 20px;&quot;&gt;&lt;b&gt;neurons&lt;/b&gt;&lt;/span&gt;&lt;/font&gt;" style="rounded=1;whiteSpace=wrap;html=1;fillColor=none;strokeColor=none;fontColor=#000000;arcSize=18;container=0;fontSize=18;" vertex="1" parent="1">
          <mxGeometry x="5487" y="5094.010000000001" width="72" height="28.99" as="geometry" />
        </mxCell>
        <mxCell id="P5t69rbOwRL67wGy0x8x-59" value="&lt;font face=&quot;Comic Sans MS&quot;&gt;&lt;span style=&quot;font-size: 20px;&quot;&gt;&lt;b&gt;neurons&lt;/b&gt;&lt;/span&gt;&lt;/font&gt;" style="rounded=1;whiteSpace=wrap;html=1;fillColor=none;strokeColor=none;fontColor=#000000;arcSize=18;container=0;fontSize=18;" vertex="1" parent="1">
          <mxGeometry x="5495" y="4855.000000000001" width="72" height="28.99" as="geometry" />
        </mxCell>
        <mxCell id="P5t69rbOwRL67wGy0x8x-60" value="&lt;font face=&quot;Comic Sans MS&quot;&gt;&lt;span style=&quot;font-size: 20px;&quot;&gt;&lt;b&gt;neurons&lt;/b&gt;&lt;/span&gt;&lt;/font&gt;" style="rounded=1;whiteSpace=wrap;html=1;fillColor=none;strokeColor=none;fontColor=#000000;arcSize=18;container=0;fontSize=18;" vertex="1" parent="1">
          <mxGeometry x="5179.65" y="4856.010000000001" width="72" height="28.99" as="geometry" />
        </mxCell>
        <mxCell id="P5t69rbOwRL67wGy0x8x-61" value="&lt;font face=&quot;Comic Sans MS&quot;&gt;&lt;span style=&quot;font-size: 20px;&quot;&gt;&lt;b&gt;neurons&lt;/b&gt;&lt;/span&gt;&lt;/font&gt;" style="rounded=1;whiteSpace=wrap;html=1;fillColor=none;strokeColor=none;fontColor=#000000;arcSize=18;container=0;fontSize=18;" vertex="1" parent="1">
          <mxGeometry x="5179.65" y="5093.010000000001" width="72" height="28.99" as="geometry" />
        </mxCell>
        <mxCell id="P5t69rbOwRL67wGy0x8x-62" value="&lt;font style=&quot;font-size: 15px;&quot; face=&quot;Comic Sans MS&quot;&gt;&lt;b style=&quot;&quot;&gt;13&lt;/b&gt;&lt;/font&gt;" style="rounded=1;whiteSpace=wrap;html=1;fillColor=none;strokeColor=none;fontColor=#000099;arcSize=18;container=0;fontSize=18;" vertex="1" parent="1">
          <mxGeometry x="5360" y="4893.879999999999" width="38" height="28.99" as="geometry" />
        </mxCell>
        <mxCell id="P5t69rbOwRL67wGy0x8x-63" value="&lt;font style=&quot;font-size: 20px;&quot; face=&quot;Comic Sans MS&quot;&gt;&lt;b style=&quot;&quot;&gt;w&lt;/b&gt;&lt;/font&gt;" style="rounded=1;whiteSpace=wrap;html=1;fillColor=none;strokeColor=none;fontColor=#000099;arcSize=18;container=0;fontSize=18;" vertex="1" parent="1">
          <mxGeometry x="5345" y="4883.4800000000005" width="30" height="28.99" as="geometry" />
        </mxCell>
        <mxCell id="P5t69rbOwRL67wGy0x8x-64" value="&lt;font style=&quot;font-size: 15px;&quot; face=&quot;Comic Sans MS&quot;&gt;&lt;b style=&quot;&quot;&gt;14&lt;/b&gt;&lt;/font&gt;" style="rounded=1;whiteSpace=wrap;html=1;fillColor=none;strokeColor=none;fontColor=#000099;arcSize=18;container=0;fontSize=18;" vertex="1" parent="1">
          <mxGeometry x="5360" y="4947.009999999999" width="38" height="28.99" as="geometry" />
        </mxCell>
        <mxCell id="P5t69rbOwRL67wGy0x8x-65" value="&lt;font style=&quot;font-size: 20px;&quot; face=&quot;Comic Sans MS&quot;&gt;&lt;b style=&quot;&quot;&gt;w&lt;/b&gt;&lt;/font&gt;" style="rounded=1;whiteSpace=wrap;html=1;fillColor=none;strokeColor=none;fontColor=#000099;arcSize=18;container=0;fontSize=18;" vertex="1" parent="1">
          <mxGeometry x="5345" y="4936.610000000001" width="30" height="28.99" as="geometry" />
        </mxCell>
        <mxCell id="P5t69rbOwRL67wGy0x8x-66" value="&lt;font face=&quot;Comic Sans MS&quot;&gt;&lt;span style=&quot;font-size: 15px;&quot;&gt;&lt;b&gt;23&lt;/b&gt;&lt;/span&gt;&lt;/font&gt;" style="rounded=1;whiteSpace=wrap;html=1;fillColor=none;strokeColor=none;fontColor=#000099;arcSize=18;container=0;fontSize=18;" vertex="1" parent="1">
          <mxGeometry x="5360" y="5020.199999999999" width="38" height="28.99" as="geometry" />
        </mxCell>
        <mxCell id="P5t69rbOwRL67wGy0x8x-67" value="&lt;font style=&quot;font-size: 20px;&quot; face=&quot;Comic Sans MS&quot;&gt;&lt;b style=&quot;&quot;&gt;w&lt;/b&gt;&lt;/font&gt;" style="rounded=1;whiteSpace=wrap;html=1;fillColor=none;strokeColor=none;fontColor=#000099;arcSize=18;container=0;fontSize=18;" vertex="1" parent="1">
          <mxGeometry x="5345" y="5009.8" width="30" height="28.99" as="geometry" />
        </mxCell>
        <mxCell id="P5t69rbOwRL67wGy0x8x-68" value="&lt;font face=&quot;Comic Sans MS&quot;&gt;&lt;span style=&quot;font-size: 15px;&quot;&gt;&lt;b&gt;24&lt;/b&gt;&lt;/span&gt;&lt;/font&gt;" style="rounded=1;whiteSpace=wrap;html=1;fillColor=none;strokeColor=none;fontColor=#000099;arcSize=18;container=0;fontSize=18;" vertex="1" parent="1">
          <mxGeometry x="5360" y="5068.019999999999" width="38" height="28.99" as="geometry" />
        </mxCell>
        <mxCell id="P5t69rbOwRL67wGy0x8x-69" value="&lt;font style=&quot;font-size: 20px;&quot; face=&quot;Comic Sans MS&quot;&gt;&lt;b style=&quot;&quot;&gt;w&lt;/b&gt;&lt;/font&gt;" style="rounded=1;whiteSpace=wrap;html=1;fillColor=none;strokeColor=none;fontColor=#000099;arcSize=18;container=0;fontSize=18;" vertex="1" parent="1">
          <mxGeometry x="5345" y="5057.62" width="30" height="28.99" as="geometry" />
        </mxCell>
        <mxCell id="P5t69rbOwRL67wGy0x8x-70" value="&lt;font face=&quot;Comic Sans MS&quot; style=&quot;font-size: 15px;&quot;&gt;&lt;b style=&quot;&quot;&gt;35&lt;/b&gt;&lt;/font&gt;" style="rounded=1;whiteSpace=wrap;html=1;fillColor=none;strokeColor=none;fontColor=#6600CC;arcSize=18;container=0;fontSize=18;" vertex="1" parent="1">
          <mxGeometry x="5671" y="4894.639999999999" width="38" height="28.99" as="geometry" />
        </mxCell>
        <mxCell id="P5t69rbOwRL67wGy0x8x-71" value="&lt;font face=&quot;Comic Sans MS&quot; style=&quot;font-size: 20px;&quot;&gt;&lt;b style=&quot;&quot;&gt;w&lt;/b&gt;&lt;/font&gt;" style="rounded=1;whiteSpace=wrap;html=1;fillColor=none;strokeColor=none;fontColor=#6600CC;arcSize=18;container=0;fontSize=18;" vertex="1" parent="1">
          <mxGeometry x="5656" y="4884.240000000001" width="30" height="28.99" as="geometry" />
        </mxCell>
        <mxCell id="P5t69rbOwRL67wGy0x8x-72" value="&lt;font face=&quot;Comic Sans MS&quot; style=&quot;font-size: 15px;&quot;&gt;&lt;b style=&quot;&quot;&gt;36&lt;/b&gt;&lt;/font&gt;" style="rounded=1;whiteSpace=wrap;html=1;fillColor=none;strokeColor=none;fontColor=#6600CC;arcSize=18;container=0;fontSize=18;" vertex="1" parent="1">
          <mxGeometry x="5671" y="4947.7699999999995" width="38" height="28.99" as="geometry" />
        </mxCell>
        <mxCell id="P5t69rbOwRL67wGy0x8x-73" value="&lt;font face=&quot;Comic Sans MS&quot; style=&quot;font-size: 20px;&quot;&gt;&lt;b style=&quot;&quot;&gt;w&lt;/b&gt;&lt;/font&gt;" style="rounded=1;whiteSpace=wrap;html=1;fillColor=none;strokeColor=none;fontColor=#6600CC;arcSize=18;container=0;fontSize=18;" vertex="1" parent="1">
          <mxGeometry x="5656" y="4937.370000000001" width="30" height="28.99" as="geometry" />
        </mxCell>
        <mxCell id="P5t69rbOwRL67wGy0x8x-74" value="&lt;font face=&quot;Comic Sans MS&quot;&gt;&lt;span style=&quot;font-size: 15px;&quot;&gt;&lt;b&gt;45&lt;/b&gt;&lt;/span&gt;&lt;/font&gt;" style="rounded=1;whiteSpace=wrap;html=1;fillColor=none;strokeColor=none;fontColor=#6600CC;arcSize=18;container=0;fontSize=18;" vertex="1" parent="1">
          <mxGeometry x="5671" y="5020.959999999999" width="38" height="28.99" as="geometry" />
        </mxCell>
        <mxCell id="P5t69rbOwRL67wGy0x8x-75" value="&lt;font face=&quot;Comic Sans MS&quot; style=&quot;font-size: 20px;&quot;&gt;&lt;b style=&quot;&quot;&gt;w&lt;/b&gt;&lt;/font&gt;" style="rounded=1;whiteSpace=wrap;html=1;fillColor=none;strokeColor=none;fontColor=#6600CC;arcSize=18;container=0;fontSize=18;" vertex="1" parent="1">
          <mxGeometry x="5656" y="5010.56" width="30" height="28.99" as="geometry" />
        </mxCell>
        <mxCell id="P5t69rbOwRL67wGy0x8x-76" value="&lt;font face=&quot;Comic Sans MS&quot;&gt;&lt;span style=&quot;font-size: 15px;&quot;&gt;&lt;b&gt;45&lt;/b&gt;&lt;/span&gt;&lt;/font&gt;" style="rounded=1;whiteSpace=wrap;html=1;fillColor=none;strokeColor=none;fontColor=#6600CC;arcSize=18;container=0;fontSize=18;" vertex="1" parent="1">
          <mxGeometry x="5671" y="5068.779999999999" width="38" height="28.99" as="geometry" />
        </mxCell>
        <mxCell id="P5t69rbOwRL67wGy0x8x-77" value="&lt;font face=&quot;Comic Sans MS&quot; style=&quot;font-size: 20px;&quot;&gt;&lt;b style=&quot;&quot;&gt;w&lt;/b&gt;&lt;/font&gt;" style="rounded=1;whiteSpace=wrap;html=1;fillColor=none;strokeColor=none;fontColor=#6600CC;arcSize=18;container=0;fontSize=18;" vertex="1" parent="1">
          <mxGeometry x="5656" y="5058.38" width="30" height="28.99" as="geometry" />
        </mxCell>
        <mxCell id="P5t69rbOwRL67wGy0x8x-78" value="&lt;font face=&quot;Comic Sans MS&quot;&gt;&lt;span style=&quot;font-size: 20px;&quot;&gt;&lt;b&gt;weights&lt;/b&gt;&lt;/span&gt;&lt;/font&gt;" style="rounded=1;whiteSpace=wrap;html=1;fillColor=none;strokeColor=none;fontColor=#000099;arcSize=18;container=0;fontSize=18;" vertex="1" parent="1">
          <mxGeometry x="5336" y="4856.010000000001" width="72" height="28.99" as="geometry" />
        </mxCell>
        <mxCell id="P5t69rbOwRL67wGy0x8x-79" value="&lt;font color=&quot;#6600cc&quot; face=&quot;Comic Sans MS&quot;&gt;&lt;span style=&quot;font-size: 20px;&quot;&gt;&lt;b&gt;weights&lt;/b&gt;&lt;/span&gt;&lt;/font&gt;" style="rounded=1;whiteSpace=wrap;html=1;fillColor=none;strokeColor=none;fontColor=#000099;arcSize=18;container=0;fontSize=18;" vertex="1" parent="1">
          <mxGeometry x="5641" y="4855.000000000001" width="72" height="28.99" as="geometry" />
        </mxCell>
      </root>
    </mxGraphModel>
  </diagram>
</mxfile>
